<?xml version="1.0" encoding="utf-8" standalone="no"?>
<!DOCTYPE svg PUBLIC "-//W3C//DTD SVG 1.1//EN"
  "http://www.w3.org/Graphics/SVG/1.1/DTD/svg11.dtd">
<svg height="192.2225pt" version="1.1" viewBox="0 0 489.347593 192.2225" width="489.347593pt" xmlns="http://www.w3.org/2000/svg" xmlns:xlink="http://www.w3.org/1999/xlink">
 <metadata>
  <rdf:RDF xmlns:cc="http://creativecommons.org/ns#" xmlns:dc="http://purl.org/dc/elements/1.1/" xmlns:rdf="http://www.w3.org/1999/02/22-rdf-syntax-ns#">
   <cc:Work>
    <dc:type rdf:resource="http://purl.org/dc/dcmitype/StillImage"/>
    <dc:date>2021-06-22T13:00:49.660728</dc:date>
    <dc:format>image/svg+xml</dc:format>
    <dc:creator>
     <cc:Agent>
      <dc:title>Matplotlib v3.4.2, https://matplotlib.org/</dc:title>
     </cc:Agent>
    </dc:creator>
   </cc:Work>
  </rdf:RDF>
 </metadata>
 <defs>
  <style type="text/css">*{stroke-linecap:butt;stroke-linejoin:round;}</style>
 </defs>
 <g id="figure_1">
  <g id="patch_1">
   <path d="M 0 192.2225 
L 489.347593 192.2225 
L 489.347593 0 
L 0 0 
z
" style="fill:none;"/>
  </g>
  <g id="axes_1">
   <g id="patch_2">
    <path d="M 33.62625 170.28 
L 480.02625 170.28 
L 480.02625 7.2 
L 33.62625 7.2 
z
" style="fill:#ffffff;"/>
   </g>
   <g id="matplotlib.axis_1">
    <g id="xtick_1">
     <g id="line2d_1">
      <defs>
       <path d="M 0 0 
L 0 3.5 
" id="ma4c037a692" style="stroke:#000000;stroke-width:0.8;"/>
      </defs>
      <g>
       <use style="stroke:#000000;stroke-width:0.8;" x="33.62625" xlink:href="#ma4c037a692" y="170.28"/>
      </g>
     </g>
     <g id="text_1">
      <!-- 0 -->
      <g transform="translate(31.08125 183.35875)scale(0.08 -0.08)">
       <defs>
        <path d="M 2034 4250 
Q 1547 4250 1301 3770 
Q 1056 3291 1056 2328 
Q 1056 1369 1301 889 
Q 1547 409 2034 409 
Q 2525 409 2770 889 
Q 3016 1369 3016 2328 
Q 3016 3291 2770 3770 
Q 2525 4250 2034 4250 
z
M 2034 4750 
Q 2819 4750 3233 4129 
Q 3647 3509 3647 2328 
Q 3647 1150 3233 529 
Q 2819 -91 2034 -91 
Q 1250 -91 836 529 
Q 422 1150 422 2328 
Q 422 3509 836 4129 
Q 1250 4750 2034 4750 
z
" id="DejaVuSans-30" transform="scale(0.015625)"/>
       </defs>
       <use xlink:href="#DejaVuSans-30"/>
      </g>
     </g>
    </g>
    <g id="xtick_2">
     <g id="line2d_2">
      <g>
       <use style="stroke:#000000;stroke-width:0.8;" x="89.373293" xlink:href="#ma4c037a692" y="170.28"/>
      </g>
     </g>
     <g id="text_2">
      <!-- 1 -->
      <g transform="translate(86.828293 183.35875)scale(0.08 -0.08)">
       <defs>
        <path d="M 794 531 
L 1825 531 
L 1825 4091 
L 703 3866 
L 703 4441 
L 1819 4666 
L 2450 4666 
L 2450 531 
L 3481 531 
L 3481 0 
L 794 0 
L 794 531 
z
" id="DejaVuSans-31" transform="scale(0.015625)"/>
       </defs>
       <use xlink:href="#DejaVuSans-31"/>
      </g>
     </g>
    </g>
    <g id="xtick_3">
     <g id="line2d_3">
      <g>
       <use style="stroke:#000000;stroke-width:0.8;" x="145.120336" xlink:href="#ma4c037a692" y="170.28"/>
      </g>
     </g>
     <g id="text_3">
      <!-- 2 -->
      <g transform="translate(142.575336 183.35875)scale(0.08 -0.08)">
       <defs>
        <path d="M 1228 531 
L 3431 531 
L 3431 0 
L 469 0 
L 469 531 
Q 828 903 1448 1529 
Q 2069 2156 2228 2338 
Q 2531 2678 2651 2914 
Q 2772 3150 2772 3378 
Q 2772 3750 2511 3984 
Q 2250 4219 1831 4219 
Q 1534 4219 1204 4116 
Q 875 4013 500 3803 
L 500 4441 
Q 881 4594 1212 4672 
Q 1544 4750 1819 4750 
Q 2544 4750 2975 4387 
Q 3406 4025 3406 3419 
Q 3406 3131 3298 2873 
Q 3191 2616 2906 2266 
Q 2828 2175 2409 1742 
Q 1991 1309 1228 531 
z
" id="DejaVuSans-32" transform="scale(0.015625)"/>
       </defs>
       <use xlink:href="#DejaVuSans-32"/>
      </g>
     </g>
    </g>
    <g id="xtick_4">
     <g id="line2d_4">
      <g>
       <use style="stroke:#000000;stroke-width:0.8;" x="200.867379" xlink:href="#ma4c037a692" y="170.28"/>
      </g>
     </g>
     <g id="text_4">
      <!-- 3 -->
      <g transform="translate(198.322379 183.35875)scale(0.08 -0.08)">
       <defs>
        <path d="M 2597 2516 
Q 3050 2419 3304 2112 
Q 3559 1806 3559 1356 
Q 3559 666 3084 287 
Q 2609 -91 1734 -91 
Q 1441 -91 1130 -33 
Q 819 25 488 141 
L 488 750 
Q 750 597 1062 519 
Q 1375 441 1716 441 
Q 2309 441 2620 675 
Q 2931 909 2931 1356 
Q 2931 1769 2642 2001 
Q 2353 2234 1838 2234 
L 1294 2234 
L 1294 2753 
L 1863 2753 
Q 2328 2753 2575 2939 
Q 2822 3125 2822 3475 
Q 2822 3834 2567 4026 
Q 2313 4219 1838 4219 
Q 1578 4219 1281 4162 
Q 984 4106 628 3988 
L 628 4550 
Q 988 4650 1302 4700 
Q 1616 4750 1894 4750 
Q 2613 4750 3031 4423 
Q 3450 4097 3450 3541 
Q 3450 3153 3228 2886 
Q 3006 2619 2597 2516 
z
" id="DejaVuSans-33" transform="scale(0.015625)"/>
       </defs>
       <use xlink:href="#DejaVuSans-33"/>
      </g>
     </g>
    </g>
    <g id="xtick_5">
     <g id="line2d_5">
      <g>
       <use style="stroke:#000000;stroke-width:0.8;" x="256.614422" xlink:href="#ma4c037a692" y="170.28"/>
      </g>
     </g>
     <g id="text_5">
      <!-- 4 -->
      <g transform="translate(254.069422 183.35875)scale(0.08 -0.08)">
       <defs>
        <path d="M 2419 4116 
L 825 1625 
L 2419 1625 
L 2419 4116 
z
M 2253 4666 
L 3047 4666 
L 3047 1625 
L 3713 1625 
L 3713 1100 
L 3047 1100 
L 3047 0 
L 2419 0 
L 2419 1100 
L 313 1100 
L 313 1709 
L 2253 4666 
z
" id="DejaVuSans-34" transform="scale(0.015625)"/>
       </defs>
       <use xlink:href="#DejaVuSans-34"/>
      </g>
     </g>
    </g>
    <g id="xtick_6">
     <g id="line2d_6">
      <g>
       <use style="stroke:#000000;stroke-width:0.8;" x="312.361464" xlink:href="#ma4c037a692" y="170.28"/>
      </g>
     </g>
     <g id="text_6">
      <!-- 5 -->
      <g transform="translate(309.816464 183.35875)scale(0.08 -0.08)">
       <defs>
        <path d="M 691 4666 
L 3169 4666 
L 3169 4134 
L 1269 4134 
L 1269 2991 
Q 1406 3038 1543 3061 
Q 1681 3084 1819 3084 
Q 2600 3084 3056 2656 
Q 3513 2228 3513 1497 
Q 3513 744 3044 326 
Q 2575 -91 1722 -91 
Q 1428 -91 1123 -41 
Q 819 9 494 109 
L 494 744 
Q 775 591 1075 516 
Q 1375 441 1709 441 
Q 2250 441 2565 725 
Q 2881 1009 2881 1497 
Q 2881 1984 2565 2268 
Q 2250 2553 1709 2553 
Q 1456 2553 1204 2497 
Q 953 2441 691 2322 
L 691 4666 
z
" id="DejaVuSans-35" transform="scale(0.015625)"/>
       </defs>
       <use xlink:href="#DejaVuSans-35"/>
      </g>
     </g>
    </g>
    <g id="xtick_7">
     <g id="line2d_7">
      <g>
       <use style="stroke:#000000;stroke-width:0.8;" x="368.108507" xlink:href="#ma4c037a692" y="170.28"/>
      </g>
     </g>
     <g id="text_7">
      <!-- 6 -->
      <g transform="translate(365.563507 183.35875)scale(0.08 -0.08)">
       <defs>
        <path d="M 2113 2584 
Q 1688 2584 1439 2293 
Q 1191 2003 1191 1497 
Q 1191 994 1439 701 
Q 1688 409 2113 409 
Q 2538 409 2786 701 
Q 3034 994 3034 1497 
Q 3034 2003 2786 2293 
Q 2538 2584 2113 2584 
z
M 3366 4563 
L 3366 3988 
Q 3128 4100 2886 4159 
Q 2644 4219 2406 4219 
Q 1781 4219 1451 3797 
Q 1122 3375 1075 2522 
Q 1259 2794 1537 2939 
Q 1816 3084 2150 3084 
Q 2853 3084 3261 2657 
Q 3669 2231 3669 1497 
Q 3669 778 3244 343 
Q 2819 -91 2113 -91 
Q 1303 -91 875 529 
Q 447 1150 447 2328 
Q 447 3434 972 4092 
Q 1497 4750 2381 4750 
Q 2619 4750 2861 4703 
Q 3103 4656 3366 4563 
z
" id="DejaVuSans-36" transform="scale(0.015625)"/>
       </defs>
       <use xlink:href="#DejaVuSans-36"/>
      </g>
     </g>
    </g>
    <g id="xtick_8">
     <g id="line2d_8">
      <g>
       <use style="stroke:#000000;stroke-width:0.8;" x="423.85555" xlink:href="#ma4c037a692" y="170.28"/>
      </g>
     </g>
     <g id="text_8">
      <!-- 7 -->
      <g transform="translate(421.31055 183.35875)scale(0.08 -0.08)">
       <defs>
        <path d="M 525 4666 
L 3525 4666 
L 3525 4397 
L 1831 0 
L 1172 0 
L 2766 4134 
L 525 4134 
L 525 4666 
z
" id="DejaVuSans-37" transform="scale(0.015625)"/>
       </defs>
       <use xlink:href="#DejaVuSans-37"/>
      </g>
     </g>
    </g>
    <g id="xtick_9">
     <g id="line2d_9">
      <g>
       <use style="stroke:#000000;stroke-width:0.8;" x="479.602593" xlink:href="#ma4c037a692" y="170.28"/>
      </g>
     </g>
     <g id="text_9">
      <!-- 8 -->
      <g transform="translate(477.057593 183.35875)scale(0.08 -0.08)">
       <defs>
        <path d="M 2034 2216 
Q 1584 2216 1326 1975 
Q 1069 1734 1069 1313 
Q 1069 891 1326 650 
Q 1584 409 2034 409 
Q 2484 409 2743 651 
Q 3003 894 3003 1313 
Q 3003 1734 2745 1975 
Q 2488 2216 2034 2216 
z
M 1403 2484 
Q 997 2584 770 2862 
Q 544 3141 544 3541 
Q 544 4100 942 4425 
Q 1341 4750 2034 4750 
Q 2731 4750 3128 4425 
Q 3525 4100 3525 3541 
Q 3525 3141 3298 2862 
Q 3072 2584 2669 2484 
Q 3125 2378 3379 2068 
Q 3634 1759 3634 1313 
Q 3634 634 3220 271 
Q 2806 -91 2034 -91 
Q 1263 -91 848 271 
Q 434 634 434 1313 
Q 434 1759 690 2068 
Q 947 2378 1403 2484 
z
M 1172 3481 
Q 1172 3119 1398 2916 
Q 1625 2713 2034 2713 
Q 2441 2713 2670 2916 
Q 2900 3119 2900 3481 
Q 2900 3844 2670 4047 
Q 2441 4250 2034 4250 
Q 1625 4250 1398 4047 
Q 1172 3844 1172 3481 
z
" id="DejaVuSans-38" transform="scale(0.015625)"/>
       </defs>
       <use xlink:href="#DejaVuSans-38"/>
      </g>
     </g>
    </g>
   </g>
   <g id="matplotlib.axis_2">
    <g id="ytick_1">
     <g id="line2d_10">
      <defs>
       <path d="M 0 0 
L -3.5 0 
" id="ma1a3016409" style="stroke:#000000;stroke-width:0.8;"/>
      </defs>
      <g>
       <use style="stroke:#000000;stroke-width:0.8;" x="33.62625" xlink:href="#ma1a3016409" y="157.455778"/>
      </g>
     </g>
     <g id="text_10">
      <!-- −2.5 -->
      <g transform="translate(7.2 160.495153)scale(0.08 -0.08)">
       <defs>
        <path d="M 678 2272 
L 4684 2272 
L 4684 1741 
L 678 1741 
L 678 2272 
z
" id="DejaVuSans-2212" transform="scale(0.015625)"/>
        <path d="M 684 794 
L 1344 794 
L 1344 0 
L 684 0 
L 684 794 
z
" id="DejaVuSans-2e" transform="scale(0.015625)"/>
       </defs>
       <use xlink:href="#DejaVuSans-2212"/>
       <use x="83.789062" xlink:href="#DejaVuSans-32"/>
       <use x="147.412109" xlink:href="#DejaVuSans-2e"/>
       <use x="179.199219" xlink:href="#DejaVuSans-35"/>
      </g>
     </g>
    </g>
    <g id="ytick_2">
     <g id="line2d_11">
      <g>
       <use style="stroke:#000000;stroke-width:0.8;" x="33.62625" xlink:href="#ma1a3016409" y="133.923309"/>
      </g>
     </g>
     <g id="text_11">
      <!-- −2.0 -->
      <g transform="translate(7.2 136.962684)scale(0.08 -0.08)">
       <use xlink:href="#DejaVuSans-2212"/>
       <use x="83.789062" xlink:href="#DejaVuSans-32"/>
       <use x="147.412109" xlink:href="#DejaVuSans-2e"/>
       <use x="179.199219" xlink:href="#DejaVuSans-30"/>
      </g>
     </g>
    </g>
    <g id="ytick_3">
     <g id="line2d_12">
      <g>
       <use style="stroke:#000000;stroke-width:0.8;" x="33.62625" xlink:href="#ma1a3016409" y="110.390841"/>
      </g>
     </g>
     <g id="text_12">
      <!-- −1.5 -->
      <g transform="translate(7.2 113.430216)scale(0.08 -0.08)">
       <use xlink:href="#DejaVuSans-2212"/>
       <use x="83.789062" xlink:href="#DejaVuSans-31"/>
       <use x="147.412109" xlink:href="#DejaVuSans-2e"/>
       <use x="179.199219" xlink:href="#DejaVuSans-35"/>
      </g>
     </g>
    </g>
    <g id="ytick_4">
     <g id="line2d_13">
      <g>
       <use style="stroke:#000000;stroke-width:0.8;" x="33.62625" xlink:href="#ma1a3016409" y="86.858372"/>
      </g>
     </g>
     <g id="text_13">
      <!-- −1.0 -->
      <g transform="translate(7.2 89.897747)scale(0.08 -0.08)">
       <use xlink:href="#DejaVuSans-2212"/>
       <use x="83.789062" xlink:href="#DejaVuSans-31"/>
       <use x="147.412109" xlink:href="#DejaVuSans-2e"/>
       <use x="179.199219" xlink:href="#DejaVuSans-30"/>
      </g>
     </g>
    </g>
    <g id="ytick_5">
     <g id="line2d_14">
      <g>
       <use style="stroke:#000000;stroke-width:0.8;" x="33.62625" xlink:href="#ma1a3016409" y="63.325903"/>
      </g>
     </g>
     <g id="text_14">
      <!-- −0.5 -->
      <g transform="translate(7.2 66.365278)scale(0.08 -0.08)">
       <use xlink:href="#DejaVuSans-2212"/>
       <use x="83.789062" xlink:href="#DejaVuSans-30"/>
       <use x="147.412109" xlink:href="#DejaVuSans-2e"/>
       <use x="179.199219" xlink:href="#DejaVuSans-35"/>
      </g>
     </g>
    </g>
    <g id="ytick_6">
     <g id="line2d_15">
      <g>
       <use style="stroke:#000000;stroke-width:0.8;" x="33.62625" xlink:href="#ma1a3016409" y="39.793435"/>
      </g>
     </g>
     <g id="text_15">
      <!-- 0.0 -->
      <g transform="translate(13.90375 42.83281)scale(0.08 -0.08)">
       <use xlink:href="#DejaVuSans-30"/>
       <use x="63.623047" xlink:href="#DejaVuSans-2e"/>
       <use x="95.410156" xlink:href="#DejaVuSans-30"/>
      </g>
     </g>
    </g>
    <g id="ytick_7">
     <g id="line2d_16">
      <g>
       <use style="stroke:#000000;stroke-width:0.8;" x="33.62625" xlink:href="#ma1a3016409" y="16.260966"/>
      </g>
     </g>
     <g id="text_16">
      <!-- 0.5 -->
      <g transform="translate(13.90375 19.300341)scale(0.08 -0.08)">
       <use xlink:href="#DejaVuSans-30"/>
       <use x="63.623047" xlink:href="#DejaVuSans-2e"/>
       <use x="95.410156" xlink:href="#DejaVuSans-35"/>
      </g>
     </g>
    </g>
   </g>
   <g id="line2d_17">
    <path clip-path="url(#pe658192641)" d="M 33.62625 67.091253 
L 33.962076 68.738468 
L 34.297901 69.208363 
L 34.465814 68.973416 
L 34.633727 67.561148 
L 34.801639 67.091253 
L 35.137465 65.20909 
L 35.305378 65.20909 
L 35.473291 65.444037 
L 35.809116 68.50352 
L 36.144942 72.032899 
L 36.312854 72.267846 
L 36.64868 74.622487 
L 36.816593 74.857434 
L 37.824069 78.856708 
L 37.991982 78.856708 
L 38.327808 77.68197 
L 38.495721 78.62176 
L 38.663633 77.44444 
L 38.831546 77.916917 
L 38.999459 77.68197 
L 39.167372 78.151865 
L 39.503197 79.79908 
L 39.67111 79.564133 
L 39.839023 80.268976 
L 40.174848 78.856708 
L 40.510674 77.68197 
L 40.678587 77.68197 
L 40.8465 77.916917 
L 41.014412 77.916917 
L 41.182325 78.856708 
L 41.350238 79.091656 
L 41.518151 79.564133 
L 41.686063 79.329185 
L 41.853976 78.856708 
L 42.189802 78.856708 
L 42.525627 78.151865 
L 42.69354 77.916917 
L 42.861453 77.44444 
L 43.197278 78.62176 
L 43.365191 80.268976 
L 43.533104 80.738871 
L 43.701017 80.503923 
L 44.036842 70.855579 
L 44.708493 40.970755 
L 44.876406 39.088592 
L 45.044319 40.028382 
L 45.380145 44.735081 
L 45.548057 43.322813 
L 45.883883 29.675195 
L 46.219708 16.259943 
L 46.387621 16.967367 
L 46.555534 28.497875 
L 47.563011 136.511827 
L 47.730924 138.39399 
L 47.898836 138.628938 
L 48.066749 139.336362 
L 48.234662 139.101415 
L 48.570487 140.041205 
L 48.7384 139.57131 
L 48.906313 139.57131 
L 49.074226 139.806258 
L 49.577964 137.689147 
L 49.91379 133.217396 
L 50.249615 124.511424 
L 50.921266 97.448554 
L 51.257092 89.447425 
L 51.592917 86.857837 
L 51.76083 86.857837 
L 51.928743 86.152994 
L 52.096656 86.152994 
L 52.432481 83.093511 
L 52.600394 82.623616 
L 52.93622 80.9764 
L 53.272045 81.446296 
L 53.439958 81.916191 
L 53.607871 81.446296 
L 53.775784 82.858563 
L 54.111609 82.858563 
L 54.279522 82.623616 
L 54.447435 82.623616 
L 54.78326 81.681243 
L 54.951173 81.681243 
L 55.286999 82.858563 
L 55.454911 84.270831 
L 55.790737 84.740726 
L 56.294475 86.387942 
L 56.462388 86.622889 
L 56.630301 87.565262 
L 56.798214 87.092785 
L 56.966126 88.035157 
L 57.134039 88.270105 
L 57.301952 88.270105 
L 57.469865 89.212477 
L 57.80569 89.682372 
L 57.973603 91.09464 
L 58.141516 91.329588 
L 58.309429 92.034431 
L 58.477341 91.799483 
L 58.645254 91.799483 
L 59.316905 93.446698 
L 59.652731 95.328861 
L 59.820644 94.858966 
L 60.156469 95.801339 
L 60.324382 95.566391 
L 60.492295 94.858966 
L 60.660208 94.858966 
L 60.82812 93.446698 
L 61.163946 93.446698 
L 61.331859 93.919176 
L 61.499771 93.681646 
L 61.667684 93.681646 
L 62.171423 91.564535 
L 62.675161 87.800209 
L 63.514725 84.505779 
L 63.682638 85.445569 
L 63.85055 83.798354 
L 64.018463 83.563406 
L 64.186376 81.681243 
L 64.354289 81.211348 
L 64.858027 78.856708 
L 65.02594 78.151865 
L 65.193853 78.151865 
L 65.361765 77.209493 
L 65.697591 77.68197 
L 65.865504 77.68197 
L 66.033417 78.386813 
L 66.201329 78.386813 
L 66.369242 77.68197 
L 66.537155 77.68197 
L 67.040893 75.797225 
L 67.376719 75.797225 
L 67.544632 76.974545 
L 67.880457 77.44444 
L 68.04837 77.209493 
L 68.216283 77.44444 
L 68.552108 76.50465 
L 68.720021 76.974545 
L 68.887934 76.269702 
L 69.391672 77.68197 
L 69.559585 76.974545 
L 69.727498 77.916917 
L 69.89541 77.916917 
L 70.063323 78.386813 
L 70.231236 78.151865 
L 70.399149 78.62176 
L 70.902887 77.44444 
L 71.0708 77.68197 
L 71.238713 78.151865 
L 71.406625 79.329185 
L 71.574538 79.564133 
L 71.742451 79.091656 
L 71.910364 80.268976 
L 72.078277 80.034028 
L 72.246189 80.268976 
L 72.582015 78.62176 
L 72.749928 79.79908 
L 72.91784 78.856708 
L 73.085753 78.856708 
L 73.253666 79.091656 
L 73.757404 80.503923 
L 73.925317 80.503923 
L 74.09323 81.211348 
L 74.261143 80.738871 
L 74.596968 79.329185 
L 74.764881 79.091656 
L 74.932794 78.62176 
L 75.100707 78.856708 
L 75.268619 78.856708 
L 75.604445 80.034028 
L 75.772358 79.329185 
L 75.940271 80.503923 
L 76.108183 80.503923 
L 76.276096 80.738871 
L 76.779834 78.151865 
L 76.947747 78.386813 
L 77.787311 78.386813 
L 78.123137 79.329185 
L 78.291049 79.329185 
L 78.626875 78.386813 
L 78.962701 77.916917 
L 79.130613 77.916917 
L 79.298526 78.151865 
L 79.466439 78.151865 
L 79.634352 77.68197 
L 79.970177 78.151865 
L 80.306003 79.564133 
L 80.641828 78.151865 
L 80.809741 77.68197 
L 80.977654 77.68197 
L 81.313479 77.209493 
L 81.649305 78.151865 
L 81.985131 77.68197 
L 82.153043 78.151865 
L 82.320956 77.916917 
L 82.488869 77.916917 
L 82.656782 77.209493 
L 82.992607 75.092382 
L 83.16052 74.622487 
L 83.328433 74.622487 
L 83.496346 73.445167 
L 83.664258 73.915062 
L 83.832171 73.680114 
L 84.167997 73.680114 
L 84.503822 72.032899 
L 84.839648 68.033625 
L 85.007561 67.796096 
L 85.175473 66.856305 
L 85.343386 67.3262 
L 85.679212 70.385683 
L 85.847125 71.090526 
L 86.015037 72.975271 
L 86.18295 72.267846 
L 86.350863 72.737742 
L 86.854601 69.443311 
L 87.190427 67.561148 
L 87.35834 67.796096 
L 87.862078 72.737742 
L 88.029991 75.092382 
L 88.365816 76.974545 
L 88.533729 77.916917 
L 88.701642 78.151865 
L 88.869555 77.916917 
L 89.20538 79.091656 
L 89.709118 82.151139 
L 89.877031 82.386086 
L 90.044944 82.858563 
L 90.212857 83.798354 
L 90.884508 81.916191 
L 91.052421 82.151139 
L 91.220333 81.681243 
L 91.388246 81.681243 
L 91.724072 83.328459 
L 91.891985 83.798354 
L 92.059897 83.798354 
L 92.395723 83.328459 
L 92.563636 83.328459 
L 92.731548 82.858563 
L 92.899461 82.858563 
L 93.067374 82.151139 
L 93.235287 82.151139 
L 93.571112 82.858563 
L 93.739025 83.093511 
L 93.906938 82.858563 
L 94.074851 83.563406 
L 94.242764 83.328459 
L 94.410676 83.328459 
L 94.578589 83.563406 
L 94.746502 83.093511 
L 94.914415 83.563406 
L 95.082327 83.563406 
L 95.25024 83.798354 
L 95.418153 83.093511 
L 95.586066 81.211348 
L 95.921891 71.563004 
L 96.593542 44.265185 
L 96.761455 43.322813 
L 96.929368 44.030238 
L 97.097281 46.382296 
L 97.265194 45.677453 
L 97.433106 41.44065 
L 97.936845 19.554373 
L 98.104757 18.614583 
L 98.27267 25.203444 
L 98.608496 64.974142 
L 99.112234 126.15864 
L 99.44806 138.628938 
L 99.783885 139.806258 
L 100.455536 146.160172 
L 100.623449 146.395119 
L 100.791362 145.690276 
L 101.127187 143.100688 
L 101.2951 142.865741 
L 101.463013 142.395846 
L 101.798839 140.276153 
L 102.134664 134.864612 
L 102.47049 124.511424 
L 103.142141 98.388344 
L 103.477966 92.27196 
L 103.813792 90.152268 
L 103.981705 90.624745 
L 104.31753 88.977529 
L 104.989181 85.445569 
L 105.325007 84.740726 
L 105.49292 84.505779 
L 105.660833 83.798354 
L 105.828745 85.210622 
L 105.996658 84.975674 
L 106.332484 85.445569 
L 106.500396 85.918046 
L 106.668309 85.680517 
L 106.836222 85.918046 
L 107.004135 86.387942 
L 107.172048 86.152994 
L 107.507873 86.622889 
L 107.675786 86.387942 
L 107.843699 86.857837 
L 108.011611 87.800209 
L 108.347437 88.270105 
L 108.51535 89.91732 
L 108.851175 90.624745 
L 109.187001 90.624745 
L 109.354914 90.859692 
L 109.690739 92.034431 
L 110.194478 94.154123 
L 110.36239 95.566391 
L 110.530303 95.566391 
L 110.698216 95.801339 
L 110.866129 96.271234 
L 111.034041 96.036286 
L 111.369867 95.328861 
L 111.53778 96.036286 
L 111.705693 97.448554 
L 112.209431 98.625874 
L 112.377344 98.860822 
L 112.545257 98.388344 
L 112.713169 98.388344 
L 113.552733 95.801339 
L 113.720646 96.271234 
L 113.888559 96.271234 
L 114.056472 96.506181 
L 114.224384 96.271234 
L 114.392297 96.271234 
L 114.728123 94.624018 
L 115.231861 90.859692 
L 115.399774 90.624745 
L 115.735599 88.74 
L 115.903512 88.977529 
L 116.743076 84.975674 
L 116.910989 83.328459 
L 117.078902 83.328459 
L 117.414727 81.681243 
L 117.58264 81.446296 
L 117.750553 80.738871 
L 117.918465 80.738871 
L 118.086378 81.446296 
L 118.422204 81.446296 
L 119.261768 79.329185 
L 119.42968 79.091656 
L 119.597593 79.79908 
L 119.765506 78.856708 
L 119.933419 78.856708 
L 120.101332 80.034028 
L 120.269244 80.268976 
L 120.437157 79.79908 
L 120.772983 80.738871 
L 120.940895 80.503923 
L 121.108808 79.329185 
L 121.444634 78.856708 
L 122.620023 81.916191 
L 122.787936 81.916191 
L 122.955849 80.9764 
L 123.123762 80.738871 
L 123.6275 79.564133 
L 123.963326 81.446296 
L 124.131238 81.446296 
L 124.467064 82.623616 
L 124.634977 82.386086 
L 124.802889 82.858563 
L 124.970802 81.916191 
L 125.138715 81.916191 
L 125.306628 81.681243 
L 125.474541 81.681243 
L 125.642453 80.9764 
L 125.810366 80.9764 
L 125.978279 82.151139 
L 126.146192 81.446296 
L 126.314104 81.916191 
L 126.482017 81.916191 
L 126.64993 81.446296 
L 126.817843 81.916191 
L 126.985756 80.9764 
L 127.153668 80.738871 
L 127.321581 80.9764 
L 127.489494 80.268976 
L 127.657407 80.503923 
L 127.825319 81.681243 
L 127.993232 81.211348 
L 128.161145 81.446296 
L 128.329058 81.916191 
L 128.496971 81.446296 
L 128.664883 81.681243 
L 128.832796 80.9764 
L 129.000709 80.9764 
L 129.168622 81.446296 
L 129.504447 79.329185 
L 129.67236 79.564133 
L 129.840273 79.564133 
L 130.008186 79.79908 
L 130.344011 81.446296 
L 130.679837 80.9764 
L 130.84775 81.681243 
L 131.015662 79.79908 
L 131.351488 79.79908 
L 131.519401 79.329185 
L 131.687313 79.564133 
L 131.855226 79.091656 
L 132.358965 79.79908 
L 132.69479 79.79908 
L 132.862703 80.034028 
L 133.030616 79.329185 
L 133.198528 79.564133 
L 133.366441 78.62176 
L 133.702267 79.329185 
L 133.87018 79.564133 
L 134.038092 79.329185 
L 134.541831 80.738871 
L 134.709743 80.503923 
L 135.381395 78.386813 
L 135.71722 76.974545 
L 135.885133 76.739597 
L 136.053046 77.68197 
L 136.220958 77.68197 
L 136.388871 77.44444 
L 136.724697 76.739597 
L 136.89261 76.50465 
L 137.228435 74.384957 
L 137.396348 74.384957 
L 137.732173 72.737742 
L 138.235912 69.915788 
L 138.403825 69.680841 
L 138.73965 70.150736 
L 138.907563 71.328056 
L 139.075476 71.090526 
L 139.243388 71.563004 
L 139.411301 72.737742 
L 139.747127 72.737742 
L 139.91504 72.502794 
L 140.754604 69.443311 
L 141.090429 71.090526 
L 141.258342 73.210219 
L 141.594167 75.092382 
L 141.929993 77.68197 
L 142.433731 80.268976 
L 142.93747 82.623616 
L 143.105382 81.681243 
L 143.441208 82.386086 
L 143.609121 82.623616 
L 143.944946 80.738871 
L 144.448685 82.386086 
L 144.616597 83.093511 
L 144.952423 82.623616 
L 145.120336 82.151139 
L 145.288249 82.386086 
L 145.624074 81.681243 
L 145.791987 81.681243 
L 145.9599 81.916191 
L 146.127812 82.623616 
L 146.295725 82.151139 
L 146.631551 83.798354 
L 146.799464 82.858563 
L 146.967376 82.623616 
L 147.135289 81.681243 
L 147.303202 82.386086 
L 147.471115 81.446296 
L 147.639027 81.916191 
L 147.80694 81.446296 
L 147.974853 81.916191 
L 148.310679 83.328459 
L 148.478591 83.328459 
L 148.646504 82.151139 
L 148.98233 72.032899 
L 149.821894 38.381167 
L 149.989806 39.088592 
L 150.325632 42.383022 
L 150.493545 40.498278 
L 151.165196 22.143961 
L 151.333109 30.14509 
L 151.668934 69.680841 
L 152.172673 128.040803 
L 152.508498 139.336362 
L 152.676411 140.513683 
L 152.844324 140.513683 
L 153.348062 142.160898 
L 153.515975 143.100688 
L 153.683888 142.160898 
L 153.8518 142.395846 
L 154.187626 143.100688 
L 154.859277 135.099559 
L 155.195103 124.98132 
L 155.866754 99.330717 
L 156.202579 92.741855 
L 156.538405 90.152268 
L 157.377969 86.152994 
L 157.713794 84.270831 
L 157.881707 84.270831 
L 158.217533 85.210622 
L 158.385445 84.975674 
L 158.553358 85.445569 
L 158.721271 85.445569 
L 158.889184 85.918046 
L 159.057097 85.918046 
L 159.225009 86.152994 
L 159.560835 87.092785 
L 159.728748 86.622889 
L 159.89666 86.622889 
L 161.07205 90.152268 
L 161.239963 89.91732 
L 161.575788 91.329588 
L 161.743701 91.09464 
L 161.911614 91.329588 
L 162.079527 91.799483 
L 162.751178 95.093914 
L 163.087003 96.036286 
L 163.254916 95.328861 
L 163.422829 95.566391 
L 163.590742 95.093914 
L 163.926567 96.036286 
L 164.09448 96.506181 
L 164.262393 97.918449 
L 164.430305 98.153397 
L 164.766131 98.860822 
L 164.934044 99.095769 
L 165.269869 98.388344 
L 165.437782 98.625874 
L 165.605695 97.683502 
L 165.773608 98.625874 
L 165.94152 97.683502 
L 166.109433 98.388344 
L 166.277346 98.153397 
L 166.613172 96.976077 
L 166.781084 97.918449 
L 167.452735 93.211751 
L 167.620648 92.976803 
L 167.956474 89.447425 
L 168.628125 87.092785 
L 168.796038 87.092785 
L 169.131863 84.975674 
L 169.299776 83.563406 
L 169.467689 83.328459 
L 169.635602 82.386086 
L 169.803514 80.738871 
L 169.971427 80.268976 
L 170.13934 79.329185 
L 170.307253 79.79908 
L 170.475166 79.79908 
L 170.810991 80.268976 
L 170.978904 80.738871 
L 171.314729 79.091656 
L 171.482642 78.62176 
L 171.650555 77.68197 
L 171.986381 77.68197 
L 172.322206 78.151865 
L 172.490119 78.856708 
L 172.658032 78.62176 
L 172.825944 79.564133 
L 172.993857 79.79908 
L 173.329683 78.151865 
L 173.497596 78.386813 
L 173.665508 76.974545 
L 173.833421 77.68197 
L 174.001334 77.68197 
L 174.505072 79.564133 
L 174.672985 79.79908 
L 174.840898 79.564133 
L 175.008811 79.79908 
L 175.344636 78.62176 
L 175.512549 78.386813 
L 175.680462 78.62176 
L 176.016287 78.62176 
L 176.1842 78.386813 
L 176.855851 81.211348 
L 177.023764 80.9764 
L 177.191677 80.268976 
L 177.35959 80.738871 
L 177.695415 79.329185 
L 178.199153 79.329185 
L 178.534979 80.738871 
L 178.702892 80.738871 
L 178.870805 80.9764 
L 179.038717 80.034028 
L 179.20663 81.446296 
L 179.374543 81.211348 
L 179.710368 78.856708 
L 180.046194 78.856708 
L 180.214107 78.62176 
L 180.549932 80.034028 
L 180.717845 80.034028 
L 180.885758 79.564133 
L 181.053671 79.564133 
L 181.389496 79.091656 
L 181.557409 79.329185 
L 181.725322 78.856708 
L 182.061147 77.44444 
L 182.22906 77.209493 
L 182.564886 78.62176 
L 182.732798 78.151865 
L 182.900711 78.151865 
L 183.068624 79.329185 
L 183.236537 78.386813 
L 183.40445 78.62176 
L 183.740275 78.151865 
L 183.908188 77.209493 
L 184.076101 77.68197 
L 184.244013 77.68197 
L 184.411926 77.44444 
L 184.579839 77.68197 
L 184.747752 78.386813 
L 184.915665 78.151865 
L 185.083577 78.386813 
L 185.25149 78.386813 
L 185.587316 77.68197 
L 185.755228 77.44444 
L 186.091054 77.44444 
L 186.258967 76.974545 
L 186.42688 77.209493 
L 186.930618 78.856708 
L 187.938095 73.445167 
L 188.106007 73.210219 
L 188.27392 73.210219 
L 188.441833 73.915062 
L 188.609746 73.680114 
L 188.777659 74.150009 
L 188.945571 73.915062 
L 189.281397 71.797951 
L 189.953048 66.14888 
L 190.120961 65.913933 
L 190.456786 68.268573 
L 190.792612 71.090526 
L 191.128437 72.737742 
L 191.29635 72.267846 
L 191.632176 70.385683 
L 191.968001 66.856305 
L 192.135914 66.38641 
L 192.47174 68.033625 
L 192.975478 78.151865 
L 193.143391 78.151865 
L 193.311304 77.916917 
L 193.647129 76.50465 
L 193.815042 76.50465 
L 194.822519 80.268976 
L 194.990431 80.268976 
L 195.158344 81.211348 
L 195.326257 80.503923 
L 195.662083 80.9764 
L 195.997908 80.034028 
L 196.165821 81.211348 
L 196.333734 80.503923 
L 196.501646 81.211348 
L 196.669559 80.9764 
L 196.837472 81.446296 
L 197.005385 81.446296 
L 197.173298 80.738871 
L 197.34121 80.738871 
L 197.509123 80.268976 
L 197.677036 80.268976 
L 197.844949 80.9764 
L 198.180774 82.858563 
L 198.348687 82.858563 
L 198.684513 81.446296 
L 198.852425 81.446296 
L 199.020338 81.211348 
L 199.188251 81.446296 
L 199.356164 80.738871 
L 199.524076 80.738871 
L 199.691989 80.503923 
L 199.859902 80.034028 
L 200.027815 80.268976 
L 200.195728 81.916191 
L 200.36364 82.151139 
L 200.531553 79.79908 
L 200.867379 66.856305 
L 201.371117 43.792708 
L 201.53903 40.498278 
L 201.706943 40.498278 
L 202.042768 43.557761 
L 202.210681 42.145493 
L 202.882332 14.612727 
L 203.050245 14.612727 
L 203.218158 23.791176 
L 203.553983 66.38641 
L 204.057721 127.333378 
L 204.225634 134.159769 
L 204.56146 137.454199 
L 204.729373 137.454199 
L 205.233111 140.276153 
L 205.401024 140.276153 
L 205.904762 137.924095 
L 206.240588 135.569455 
L 206.4085 134.864612 
L 206.576413 132.982449 
L 206.744326 129.45307 
L 207.919715 89.212477 
L 208.255541 84.975674 
L 209.43093 79.564133 
L 209.766756 77.916917 
L 210.102582 79.091656 
L 210.774233 83.563406 
L 211.277971 82.151139 
L 211.781709 79.091656 
L 211.949622 79.091656 
L 212.45336 84.033302 
L 212.789186 84.975674 
L 213.125012 84.505779 
L 213.292924 83.798354 
L 213.460837 84.033302 
L 213.796663 84.975674 
L 213.964576 84.740726 
L 214.132488 84.975674 
L 214.636227 88.74 
L 214.804139 88.505052 
L 215.139965 90.152268 
L 215.307878 89.682372 
L 215.475791 88.505052 
L 215.811616 84.270831 
L 215.979529 83.563406 
L 216.315354 84.740726 
L 216.819093 87.327732 
L 216.987006 87.800209 
L 217.154918 87.800209 
L 217.322831 87.092785 
L 217.994482 79.79908 
L 218.162395 79.79908 
L 218.666133 83.093511 
L 219.169872 88.505052 
L 219.505697 87.565262 
L 220.009436 83.563406 
L 220.345261 79.79908 
L 220.681087 78.151865 
L 220.848999 78.151865 
L 221.016912 77.209493 
L 221.352738 78.856708 
L 221.520651 79.329185 
L 221.688563 78.856708 
L 221.856476 78.856708 
L 222.192302 78.151865 
L 222.360214 78.386813 
L 222.528127 78.856708 
L 222.863953 77.916917 
L 223.031866 77.916917 
L 223.535604 75.562277 
L 223.703517 74.857434 
L 223.87143 75.092382 
L 224.207255 74.384957 
L 224.375168 74.622487 
L 224.543081 74.622487 
L 225.046819 76.739597 
L 225.214732 76.50465 
L 225.382645 76.974545 
L 225.71847 76.50465 
L 225.886383 75.797225 
L 226.054296 75.797225 
L 226.390121 75.32733 
L 226.558034 75.562277 
L 226.89386 77.44444 
L 227.061772 76.974545 
L 227.229685 77.209493 
L 227.397598 78.151865 
L 227.565511 77.916917 
L 227.901336 76.50465 
L 228.237162 76.032172 
L 228.405075 76.032172 
L 228.908813 77.209493 
L 229.076726 77.209493 
L 229.244638 77.44444 
L 229.412551 77.44444 
L 229.580464 77.68197 
L 229.748377 77.68197 
L 229.91629 77.916917 
L 230.084202 76.974545 
L 230.420028 76.974545 
L 230.587941 76.269702 
L 230.923766 76.739597 
L 231.091679 77.44444 
L 231.259592 77.44444 
L 231.427505 77.916917 
L 231.76333 76.974545 
L 231.931243 76.032172 
L 232.099156 75.797225 
L 232.267068 76.50465 
L 232.434981 76.032172 
L 232.602894 76.739597 
L 232.770807 76.269702 
L 233.106632 77.209493 
L 233.274545 77.44444 
L 233.442458 78.62176 
L 234.282022 75.32733 
L 234.282022 75.32733 
" style="fill:none;stroke:#1f77b4;stroke-linecap:square;stroke-width:1.5;"/>
   </g>
   <g id="line2d_18">
    <path clip-path="url(#pe658192641)" d="M 234.449935 75.32733 
L 234.617847 75.32733 
L 234.78576 75.092382 
L 235.121586 75.562277 
L 235.457411 77.209493 
L 235.625324 76.739597 
L 235.793237 76.739597 
L 236.129062 73.210219 
L 236.296975 72.975271 
L 236.464888 72.975271 
L 236.800714 74.857434 
L 236.968626 75.092382 
L 237.136539 75.562277 
L 237.304452 76.739597 
L 237.472365 75.092382 
L 237.640277 75.32733 
L 237.80819 73.680114 
L 238.311929 72.502794 
L 238.647754 73.915062 
L 238.815667 73.915062 
L 238.98358 74.384957 
L 239.151492 75.32733 
L 239.319405 75.092382 
L 239.487318 75.092382 
L 239.655231 75.32733 
L 239.823144 74.857434 
L 239.991056 73.915062 
L 240.158969 73.915062 
L 240.326882 73.210219 
L 240.494795 73.210219 
L 240.662707 72.975271 
L 240.83062 73.915062 
L 240.998533 72.975271 
L 241.166446 72.737742 
L 241.334359 73.680114 
L 241.502271 73.915062 
L 241.670184 73.445167 
L 241.838097 73.915062 
L 242.00601 73.680114 
L 242.341835 72.502794 
L 242.509748 73.680114 
L 242.677661 73.445167 
L 243.181399 75.32733 
L 243.349312 75.092382 
L 244.020963 73.210219 
L 244.188876 73.445167 
L 244.356789 72.975271 
L 244.524701 73.445167 
L 244.692614 72.502794 
L 244.860527 72.737742 
L 245.02844 72.502794 
L 245.196353 72.502794 
L 245.364265 72.737742 
L 245.532178 73.210219 
L 245.700091 72.975271 
L 245.868004 73.445167 
L 246.035916 73.445167 
L 246.371742 72.502794 
L 246.539655 72.737742 
L 246.707568 72.502794 
L 247.211306 73.210219 
L 247.379219 73.210219 
L 247.547131 72.737742 
L 247.715044 72.737742 
L 248.386695 71.797951 
L 248.722521 73.445167 
L 248.890434 72.502794 
L 249.058346 72.737742 
L 249.226259 72.502794 
L 249.562085 72.975271 
L 249.729998 72.975271 
L 249.89791 72.267846 
L 250.065823 72.502794 
L 250.233736 72.975271 
L 250.401649 71.797951 
L 250.737474 71.797951 
L 250.905387 72.267846 
L 251.0733 72.032899 
L 251.409125 73.445167 
L 251.577038 73.680114 
L 252.248689 71.328056 
L 252.416602 72.737742 
L 252.584515 72.737742 
L 253.088253 74.384957 
L 253.256166 73.915062 
L 253.424079 73.915062 
L 253.591992 74.150009 
L 254.09573 72.267846 
L 254.263643 72.975271 
L 254.431555 72.267846 
L 254.599468 72.267846 
L 254.767381 72.502794 
L 254.935294 72.502794 
L 255.103207 72.975271 
L 255.271119 72.032899 
L 255.606945 73.210219 
L 255.94277 73.680114 
L 256.614422 71.328056 
L 256.782334 71.328056 
L 256.950247 71.797951 
L 257.11816 71.797951 
L 257.453985 71.328056 
L 257.621898 71.797951 
L 257.789811 71.797951 
L 257.957724 71.563004 
L 258.125637 72.502794 
L 258.293549 71.328056 
L 258.461462 71.328056 
L 258.629375 70.855579 
L 258.797288 71.797951 
L 258.9652 71.328056 
L 259.636852 73.680114 
L 259.804764 73.445167 
L 259.972677 73.445167 
L 260.308503 72.737742 
L 260.476416 72.737742 
L 260.644328 72.502794 
L 260.812241 72.502794 
L 260.980154 72.737742 
L 261.315979 73.680114 
L 261.483892 73.680114 
L 261.651805 73.915062 
L 261.819718 73.680114 
L 262.155543 72.737742 
L 262.323456 71.563004 
L 262.491369 71.328056 
L 263.16302 73.915062 
L 263.330933 74.150009 
L 263.498846 73.915062 
L 263.666758 74.857434 
L 264.170497 72.032899 
L 264.338409 72.032899 
L 264.506322 71.563004 
L 264.674235 72.032899 
L 265.010061 73.445167 
L 265.177973 73.915062 
L 265.345886 73.680114 
L 265.681712 73.680114 
L 266.18545 71.563004 
L 266.353363 72.032899 
L 266.521276 72.032899 
L 266.689188 71.797951 
L 267.025014 73.445167 
L 267.192927 72.737742 
L 267.360839 72.737742 
L 267.696665 73.680114 
L 268.032491 73.680114 
L 268.200403 73.445167 
L 268.368316 73.680114 
L 268.536229 72.975271 
L 268.704142 73.445167 
L 268.872054 72.737742 
L 269.20788 73.680114 
L 269.375793 73.680114 
L 269.543706 74.384957 
L 269.879531 74.384957 
L 270.047444 73.915062 
L 270.215357 72.975271 
L 270.38327 72.975271 
L 270.551182 72.737742 
L 270.719095 72.267846 
L 271.390746 73.915062 
L 271.558659 73.445167 
L 271.726572 74.384957 
L 272.23031 72.737742 
L 272.398223 72.737742 
L 272.566136 72.502794 
L 272.901961 73.445167 
L 273.237787 75.092382 
L 273.237787 75.092382 
" style="fill:none;stroke:#ff7f0e;stroke-linecap:square;stroke-width:2;"/>
   </g>
   <g id="line2d_19">
    <path clip-path="url(#pe658192641)" d="M 273.4057 74.622487 
L 273.573612 74.384957 
L 273.741525 74.384957 
L 274.077351 73.445167 
L 274.245263 72.267846 
L 274.413176 72.975271 
L 274.581089 72.737742 
L 274.916915 73.915062 
L 275.084827 74.622487 
L 275.420653 74.150009 
L 275.588566 74.622487 
L 275.756478 74.622487 
L 275.924391 74.857434 
L 276.092304 74.150009 
L 276.260217 74.384957 
L 276.42813 74.150009 
L 276.596042 72.975271 
L 276.763955 72.975271 
L 276.931868 73.915062 
L 277.099781 73.680114 
L 277.435606 74.622487 
L 277.603519 74.384957 
L 277.771432 74.384957 
L 277.939345 73.915062 
L 278.107257 74.384957 
L 278.610996 72.737742 
L 278.778909 72.267846 
L 278.946821 72.502794 
L 279.114734 73.915062 
L 279.282647 74.384957 
L 279.618472 76.269702 
L 280.290124 73.680114 
L 280.458036 73.915062 
L 280.625949 72.737742 
L 280.793862 72.975271 
L 280.961775 72.975271 
L 281.129687 73.915062 
L 281.2976 74.150009 
L 281.465513 74.150009 
L 281.801339 75.092382 
L 282.137164 73.210219 
L 282.808815 71.563004 
L 282.976728 72.267846 
L 283.144641 71.090526 
L 283.312554 71.797951 
L 283.480466 71.563004 
L 283.648379 71.563004 
L 283.816292 71.797951 
L 283.984205 71.328056 
L 284.655856 66.621357 
L 284.823769 67.3262 
L 284.991681 67.3262 
L 285.327507 68.033625 
L 285.49542 67.796096 
L 285.663332 67.3262 
L 285.831245 66.38641 
L 285.999158 66.621357 
L 286.167071 66.14888 
L 286.334984 66.856305 
L 286.502896 68.50352 
L 286.670809 68.033625 
L 286.838722 69.443311 
L 287.174547 69.915788 
L 288.182024 66.856305 
L 288.853675 70.855579 
L 289.021588 71.328056 
L 289.693239 75.092382 
L 290.029065 77.44444 
L 290.196978 77.68197 
L 290.36489 77.68197 
L 290.700716 76.032172 
L 290.868629 76.50465 
L 291.036541 76.269702 
L 291.204454 76.269702 
L 291.708193 77.68197 
L 291.876105 78.62176 
L 292.044018 77.44444 
L 292.211931 77.44444 
L 292.547756 76.974545 
L 292.715669 76.974545 
L 292.883582 77.209493 
L 293.219408 77.209493 
L 293.723146 78.856708 
L 294.058971 78.386813 
L 294.394797 79.564133 
L 294.56271 79.79908 
L 294.898535 75.562277 
L 295.402274 54.383425 
L 295.738099 40.735807 
L 295.906012 36.499004 
L 296.073925 35.556632 
L 296.241838 35.321684 
L 296.40975 34.851789 
L 296.577663 32.027253 
L 297.249314 14.850257 
L 297.417227 21.909013 
L 297.753053 55.560745 
L 298.256791 112.50844 
L 298.592617 123.804 
L 298.928442 126.863483 
L 299.096355 127.805855 
L 299.935919 136.276879 
L 300.103832 136.511827 
L 300.439657 135.334507 
L 300.775483 131.335233 
L 301.111308 126.15864 
L 302.286698 86.622889 
L 302.45461 84.975674 
L 302.622523 84.975674 
L 302.790436 84.740726 
L 302.958349 85.918046 
L 303.126262 86.152994 
L 303.294174 86.152994 
L 303.462087 85.918046 
L 303.797913 84.740726 
L 303.965825 84.505779 
L 304.301651 82.623616 
L 304.469564 83.093511 
L 304.637477 82.623616 
L 304.805389 82.858563 
L 304.973302 82.858563 
L 305.309128 83.798354 
L 305.47704 84.740726 
L 305.644953 84.740726 
L 305.812866 85.210622 
L 305.980779 84.740726 
L 306.148692 85.680517 
L 306.316604 85.210622 
L 306.484517 85.445569 
L 306.65243 85.445569 
L 306.988256 87.327732 
L 307.156168 86.857837 
L 308.163645 90.859692 
L 308.331558 91.09464 
L 308.499471 90.859692 
L 308.667383 91.329588 
L 308.835296 91.329588 
L 310.010686 95.801339 
L 310.178598 96.036286 
L 310.346511 95.801339 
L 310.514424 96.036286 
L 310.682337 95.328861 
L 310.850249 95.328861 
L 311.018162 94.858966 
L 311.186075 95.566391 
L 311.353988 96.976077 
L 311.521901 97.213606 
L 311.689813 98.860822 
L 311.857726 98.860822 
L 312.025639 100.03556 
L 313.033116 96.036286 
L 313.201028 96.036286 
L 313.368941 95.801339 
L 313.536854 96.036286 
L 313.872679 95.093914 
L 314.040592 95.093914 
L 314.208505 94.389071 
L 314.376418 94.624018 
L 314.712243 91.799483 
L 315.048069 90.387215 
L 315.215982 89.91732 
L 315.551807 88.270105 
L 315.71972 88.270105 
L 316.391371 84.033302 
L 316.727197 80.9764 
L 317.230935 79.564133 
L 317.398848 79.564133 
L 317.734673 78.62176 
L 317.902586 78.386813 
L 318.238412 77.209493 
L 318.406325 77.916917 
L 318.910063 76.032172 
L 319.077976 76.974545 
L 319.245888 76.739597 
L 319.581714 76.032172 
L 319.91754 76.50465 
L 320.253365 77.44444 
L 320.757103 76.739597 
L 320.925016 76.032172 
L 321.092929 76.974545 
L 321.428755 76.974545 
L 321.596667 77.44444 
L 321.76458 77.209493 
L 321.932493 77.44444 
L 322.100406 77.44444 
L 322.268318 77.916917 
L 322.436231 77.68197 
L 322.772057 76.974545 
L 322.93997 77.44444 
L 323.107882 77.44444 
L 323.275795 78.151865 
L 323.443708 77.916917 
L 323.611621 78.856708 
L 323.779533 78.62176 
L 324.115359 79.329185 
L 324.619097 77.916917 
L 324.78701 78.386813 
L 324.954923 78.151865 
L 325.290749 79.329185 
L 325.458661 80.034028 
L 325.626574 80.034028 
L 325.794487 80.738871 
L 325.9624 80.503923 
L 326.130312 81.681243 
L 326.801964 79.091656 
L 326.969876 78.856708 
L 327.137789 78.151865 
L 327.305702 79.564133 
L 327.473615 79.564133 
L 328.145266 82.151139 
L 328.313179 82.151139 
L 328.816917 80.268976 
L 329.152742 80.268976 
L 329.488568 79.79908 
L 329.656481 80.503923 
L 329.824394 79.564133 
L 329.992306 79.564133 
L 330.160219 79.79908 
L 330.328132 79.564133 
L 330.663957 80.034028 
L 330.999783 78.856708 
L 331.167696 79.564133 
L 331.335609 79.091656 
L 331.503521 79.564133 
L 331.671434 79.329185 
L 331.839347 79.329185 
L 332.00726 80.034028 
L 332.175172 80.034028 
L 332.343085 79.79908 
L 332.678911 78.386813 
L 332.846824 78.856708 
L 333.014736 77.209493 
L 333.182649 77.68197 
L 333.350562 77.68197 
L 333.518475 78.386813 
L 333.8543 78.386813 
L 334.022213 78.62176 
L 334.190126 78.62176 
L 334.358039 78.386813 
L 334.693864 77.209493 
L 334.861777 77.68197 
L 335.701341 75.092382 
L 335.869254 75.32733 
L 336.205079 75.32733 
L 336.372992 74.384957 
L 336.540905 74.150009 
L 337.212556 72.267846 
L 337.548381 70.385683 
L 337.716294 70.620631 
L 337.884207 70.150736 
L 338.05212 70.620631 
L 338.387945 70.150736 
L 338.555858 69.208363 
L 338.891684 69.208363 
L 339.731248 72.737742 
L 340.234986 71.328056 
L 340.570811 68.738468 
L 340.738724 68.033625 
L 341.410375 73.210219 
L 341.746201 76.269702 
L 341.914114 76.032172 
L 342.417852 78.151865 
L 342.585765 79.564133 
L 342.92159 79.564133 
L 343.257416 78.62176 
L 343.425329 79.329185 
L 343.593242 79.091656 
L 343.761154 80.034028 
L 343.929067 80.034028 
L 344.264893 80.738871 
L 344.432805 80.9764 
L 344.768631 79.091656 
L 344.936544 79.091656 
L 345.104457 78.856708 
L 345.776108 80.503923 
L 345.94402 80.268976 
L 346.111933 80.503923 
L 346.279846 80.268976 
L 346.447759 80.738871 
L 346.783584 79.79908 
L 346.951497 79.79908 
L 347.11941 79.329185 
L 347.287323 79.79908 
L 347.958974 83.328459 
L 348.126887 83.093511 
L 348.294799 80.9764 
L 348.630625 69.208363 
L 349.302276 41.44065 
L 349.470189 40.970755 
L 349.638102 41.205702 
L 349.806014 41.910545 
L 349.973927 40.498278 
L 350.14184 36.968899 
L 350.645578 16.024995 
L 350.813491 16.73242 
L 350.981404 25.908287 
L 351.98888 122.626679 
L 352.492619 128.980593 
L 352.660532 129.688018 
L 353.16427 133.922239 
L 353.332183 133.217396 
L 353.500096 133.922239 
L 353.668008 133.452344 
L 353.835921 133.452344 
L 354.003834 132.512553 
L 354.171747 132.982449 
L 354.339659 132.040076 
L 354.507572 130.392861 
L 354.843398 120.509569 
L 355.515049 92.976803 
L 355.850874 87.565262 
L 356.018787 87.092785 
L 356.1867 87.565262 
L 356.354613 88.977529 
L 356.522526 88.977529 
L 356.690438 87.565262 
L 356.858351 88.035157 
L 357.362089 83.798354 
L 357.530002 83.798354 
L 357.697915 83.328459 
L 358.201653 84.975674 
L 358.705392 87.092785 
L 359.20913 85.680517 
L 359.544956 85.680517 
L 359.712868 86.152994 
L 360.048694 87.800209 
L 360.216607 88.035157 
L 360.552432 88.74 
L 360.720345 89.91732 
L 360.888258 89.447425 
L 361.559909 92.27196 
L 361.727822 91.799483 
L 362.063647 92.976803 
L 362.399473 95.801339 
L 362.567386 96.271234 
L 362.735298 97.683502 
L 362.903211 96.976077 
L 363.071124 97.683502 
L 363.239037 96.976077 
L 363.910688 99.330717 
L 364.078601 99.800612 
L 364.414426 101.21288 
L 364.750252 100.273089 
L 365.086077 99.800612 
L 365.25399 99.095769 
L 365.421903 99.095769 
L 366.093554 100.977932 
L 366.42938 100.508037 
L 366.765205 98.625874 
L 366.933118 95.801339 
L 367.436856 92.506908 
L 367.940595 89.682372 
L 368.108507 88.977529 
L 368.27642 89.447425 
L 368.612246 88.977529 
L 369.283897 84.033302 
L 369.45181 84.033302 
L 369.787635 83.563406 
L 369.955548 83.563406 
L 370.123461 84.033302 
L 370.291373 83.563406 
L 370.795112 80.9764 
L 370.963025 81.211348 
L 371.29885 82.623616 
L 371.466763 82.151139 
L 371.802589 82.151139 
L 371.970501 81.446296 
L 372.306327 81.446296 
L 372.47424 81.916191 
L 372.810065 80.9764 
L 372.977978 81.211348 
L 373.145891 80.503923 
L 373.313804 80.738871 
L 373.481716 80.503923 
L 373.649629 81.916191 
L 373.817542 81.681243 
L 373.985455 82.623616 
L 374.153367 81.916191 
L 374.489193 83.328459 
L 374.825019 81.916191 
L 374.992931 81.211348 
L 375.160844 81.446296 
L 375.328757 81.211348 
L 375.49667 81.211348 
L 375.832495 82.151139 
L 376.000408 82.386086 
L 376.168321 82.151139 
L 376.336234 82.151139 
L 376.504146 83.093511 
L 376.672059 82.858563 
L 376.839972 82.858563 
L 377.007885 81.916191 
L 377.175797 82.151139 
L 377.34371 81.211348 
L 377.511623 81.446296 
L 378.015361 82.623616 
L 378.183274 82.623616 
L 378.351187 83.563406 
L 378.5191 83.563406 
L 378.687012 84.033302 
L 378.854925 84.033302 
L 379.190751 82.623616 
L 379.526576 79.79908 
L 379.694489 79.79908 
L 379.862402 80.738871 
L 380.198228 83.328459 
L 380.534053 85.680517 
L 380.701966 85.210622 
L 380.869879 84.270831 
L 381.037791 84.740726 
L 381.373617 82.858563 
L 381.54153 82.623616 
L 381.877355 80.738871 
L 382.045268 80.738871 
L 382.213181 82.386086 
L 382.381094 81.681243 
L 382.716919 82.858563 
L 382.884832 83.093511 
L 383.052745 83.563406 
L 383.220658 83.328459 
L 383.724396 80.9764 
L 383.892309 80.503923 
L 384.060221 80.738871 
L 384.228134 82.386086 
L 384.396047 82.386086 
L 384.56396 83.093511 
L 384.899785 82.386086 
L 385.067698 82.623616 
L 385.235611 81.916191 
L 385.403524 81.916191 
L 385.739349 81.211348 
L 385.907262 81.446296 
L 386.075175 81.446296 
L 386.578913 84.975674 
L 387.250564 81.916191 
L 387.754303 78.386813 
L 387.922215 78.856708 
L 388.090128 77.916917 
L 388.425954 77.916917 
L 388.593866 77.44444 
L 388.761779 77.916917 
L 388.929692 77.916917 
L 389.601343 74.150009 
L 389.769256 74.150009 
L 390.105082 72.975271 
L 390.272994 73.210219 
L 390.440907 72.737742 
L 390.776733 73.680114 
L 390.944645 75.562277 
L 391.112558 76.032172 
L 391.448384 76.032172 
L 391.616297 74.857434 
L 391.784209 75.092382 
L 391.952122 75.092382 
L 392.287948 74.150009 
L 392.45586 74.622487 
L 392.791686 76.50465 
L 392.959599 80.034028 
L 393.127512 80.738871 
L 393.295424 82.151139 
L 393.463337 81.916191 
L 393.63125 82.151139 
L 393.799163 82.151139 
L 394.134988 83.798354 
L 394.302901 84.975674 
L 394.470814 84.975674 
L 394.806639 86.387942 
L 395.142465 85.445569 
L 395.47829 86.622889 
L 395.982029 85.210622 
L 396.149942 85.210622 
L 396.317854 84.975674 
L 396.485767 86.387942 
L 396.65368 85.680517 
L 396.821593 86.152994 
L 396.989505 85.918046 
L 397.493244 84.505779 
L 397.661157 84.740726 
L 397.996982 86.857837 
L 398.164895 87.565262 
L 398.50072 86.152994 
L 398.668633 86.387942 
L 398.836546 86.857837 
L 399.004459 86.857837 
L 399.172372 87.327732 
L 399.340284 87.327732 
L 399.67611 85.445569 
L 400.011936 76.974545 
L 400.851499 44.500133 
L 401.019412 43.792708 
L 401.187325 44.500133 
L 401.355238 43.792708 
L 401.523151 42.145493 
L 402.026889 22.613856 
L 402.194802 20.261798 
L 402.362714 23.086334 
L 402.69854 55.088268 
L 403.202278 119.332249 
L 403.538104 134.394716 
L 404.713493 146.865014 
L 404.881406 147.807387 
L 405.72097 141.453473 
L 406.056796 137.454199 
L 406.224708 134.159769 
L 407.232185 98.625874 
L 407.568011 95.093914 
L 407.735923 95.093914 
L 408.407575 92.976803 
L 408.575487 93.681646 
L 408.911313 92.034431 
L 409.247138 90.387215 
L 409.415051 90.152268 
L 409.582964 88.505052 
L 409.91879 89.447425 
L 410.086702 89.447425 
L 410.758353 92.034431 
L 410.926266 91.799483 
L 411.094179 92.034431 
L 411.262092 92.034431 
L 411.430005 91.564535 
L 411.597917 92.034431 
L 411.933743 94.624018 
L 412.437481 96.271234 
L 412.605394 98.388344 
L 412.773307 98.625874 
L 413.109132 99.565665 
L 413.277045 100.03556 
L 413.612871 99.565665 
L 413.948696 100.03556 
L 414.78826 104.507311 
L 415.124086 105.214735 
L 415.627824 102.3902 
L 416.299475 106.389474 
L 416.467388 106.154526 
L 416.635301 106.154526 
L 416.803213 105.919578 
L 417.139039 104.977206 
L 417.306952 104.037415 
L 417.474865 103.802468 
L 417.642777 102.3902 
L 417.81069 102.155252 
L 417.978603 101.21288 
L 418.314429 97.918449 
L 418.482341 98.388344 
L 418.818167 96.976077 
L 419.153992 94.624018 
L 419.321905 93.919176 
L 419.489818 92.506908 
L 419.657731 92.506908 
L 419.825644 92.27196 
L 419.993556 92.27196 
L 420.497295 88.977529 
L 420.83312 88.035157 
L 421.001033 88.505052 
L 421.168946 89.682372 
L 421.336859 89.91732 
L 421.504771 89.91732 
L 421.672684 88.74 
L 422.00851 84.975674 
L 422.176422 84.505779 
L 422.344335 84.740726 
L 422.680161 86.387942 
L 422.848074 86.857837 
L 423.015986 86.857837 
L 423.85555 83.328459 
L 424.695114 86.622889 
L 424.863027 85.210622 
L 425.03094 85.445569 
L 425.198852 85.445569 
L 425.366765 86.622889 
L 425.534678 85.445569 
L 425.702591 85.210622 
L 425.870504 84.270831 
L 426.038416 84.270831 
L 426.374242 87.092785 
L 426.87798 87.800209 
L 427.045893 87.092785 
L 427.213806 87.800209 
L 427.381719 87.800209 
L 427.885457 85.918046 
L 428.05337 86.152994 
L 428.389195 88.74 
L 428.557108 88.977529 
L 428.725021 88.505052 
L 428.892934 89.447425 
L 429.396672 87.092785 
L 429.732498 87.565262 
L 430.068323 89.682372 
L 430.236236 89.682372 
L 430.404149 89.212477 
L 430.572061 88.270105 
L 430.739974 88.035157 
L 430.907887 88.270105 
L 431.0758 87.327732 
L 431.747451 88.270105 
L 431.915364 88.035157 
L 432.083276 88.035157 
L 432.251189 87.800209 
L 432.419102 89.682372 
L 432.754928 90.387215 
L 432.92284 90.387215 
L 433.594491 89.447425 
L 433.930317 86.857837 
L 434.09823 86.387942 
L 434.601968 88.74 
L 434.937794 92.27196 
L 435.105706 92.034431 
L 435.273619 90.859692 
L 435.777358 84.033302 
L 435.94527 84.033302 
L 436.616922 90.152268 
L 436.784834 90.152268 
L 436.952747 89.91732 
L 437.12066 88.977529 
L 437.288573 89.212477 
L 437.792311 84.975674 
L 437.960224 83.328459 
L 438.128137 83.093511 
L 438.296049 83.328459 
L 438.631875 85.918046 
L 438.799788 86.857837 
L 438.9677 87.092785 
L 439.135613 86.857837 
L 439.975177 78.62176 
L 440.646828 84.505779 
L 440.982654 85.680517 
L 441.150567 85.680517 
L 441.99013 78.856708 
L 442.158043 78.856708 
L 442.493869 83.798354 
L 442.829694 91.564535 
L 442.997607 93.446698 
L 443.16552 93.211751 
L 443.501345 91.09464 
L 443.669258 90.624745 
L 443.837171 92.034431 
L 444.005084 92.034431 
L 444.172997 92.506908 
L 444.508822 95.801339 
L 444.676735 95.328861 
L 444.844648 96.976077 
L 445.012561 97.448554 
L 445.180473 97.448554 
L 445.516299 96.741129 
L 445.684212 96.506181 
L 445.852124 95.328861 
L 446.020037 95.093914 
L 446.355863 95.093914 
L 446.523776 95.566391 
L 446.691688 96.741129 
L 446.859601 96.976077 
L 447.027514 97.448554 
L 447.195427 97.448554 
L 447.531252 100.273089 
L 447.699165 100.977932 
L 448.202903 98.625874 
L 448.370816 98.153397 
L 448.538729 98.153397 
L 448.874554 99.330717 
L 449.042467 100.03556 
L 449.714118 98.388344 
L 449.882031 96.741129 
L 450.217857 87.800209 
L 450.889508 60.737339 
L 451.057421 57.912804 
L 451.225333 58.385281 
L 451.393246 60.502391 
L 451.561159 60.737339 
L 451.729072 58.620228 
L 452.064897 43.557761 
L 452.400723 32.027253 
L 452.568636 34.851789 
L 452.736548 47.089721 
L 453.576112 144.982851 
L 453.911938 155.808516 
L 454.247763 160.515214 
L 454.583589 162.867273 
L 454.919415 161.457587 
L 455.087327 161.457587 
L 455.25524 161.692535 
L 455.758978 158.633051 
L 455.926891 156.985836 
L 456.43063 143.570584 
L 457.102281 120.274621 
L 457.438106 111.568649 
L 458.109757 104.977206 
L 458.613496 102.155252 
L 458.781408 101.920305 
L 458.949321 101.447828 
L 459.285147 102.625148 
L 459.620972 101.682775 
L 459.788885 101.682775 
L 459.956798 101.920305 
L 460.292623 103.095043 
L 460.460536 102.860095 
L 460.628449 102.3902 
L 460.796362 102.625148 
L 461.132187 103.56752 
L 461.468013 103.095043 
L 461.971751 103.802468 
L 462.139664 103.802468 
L 462.307577 105.214735 
L 462.47549 105.449683 
L 462.643402 106.389474 
L 462.811315 106.389474 
L 463.147141 108.036689 
L 463.315053 107.566794 
L 463.482966 108.036689 
L 463.818792 108.036689 
L 464.490443 110.391329 
L 464.658356 109.448957 
L 464.826269 109.921434 
L 464.994181 109.921434 
L 465.162094 110.626277 
L 465.330007 110.156381 
L 465.49792 110.626277 
L 465.665832 110.391329 
L 466.169571 113.450812 
L 466.337484 112.978335 
L 466.505396 112.978335 
L 466.673309 114.390603 
L 466.841222 113.450812 
L 467.009135 114.155655 
L 467.34496 113.450812 
L 467.512873 113.450812 
L 467.680786 113.68576 
L 468.688262 109.921434 
L 468.856175 110.156381 
L 469.192001 108.509166 
L 469.359914 108.271637 
L 469.527826 107.566794 
L 469.863652 104.037415 
L 470.199477 100.508037 
L 470.535303 99.330717 
L 470.703216 99.800612 
L 471.039041 98.625874 
L 471.206954 98.388344 
L 471.374867 97.683502 
L 471.54278 97.683502 
L 471.710692 97.918449 
L 472.382344 91.564535 
L 472.886082 94.389071 
L 473.053995 96.036286 
L 473.221908 96.271234 
L 473.38982 96.976077 
L 473.725646 93.211751 
L 474.061471 91.329588 
L 474.229384 91.799483 
L 474.56521 93.446698 
L 474.733123 93.446698 
L 474.901035 93.681646 
L 475.068948 93.211751 
L 475.236861 93.211751 
L 475.404774 92.741855 
L 475.572686 93.211751 
L 475.908512 92.27196 
L 476.076425 92.27196 
L 476.244338 92.034431 
L 476.41225 92.27196 
L 476.580163 92.976803 
L 476.748076 92.741855 
L 476.915989 93.211751 
L 477.083901 93.211751 
L 477.251814 93.446698 
L 477.419727 92.976803 
L 477.58764 93.446698 
L 477.755553 93.446698 
L 478.091378 92.976803 
L 478.259291 91.799483 
L 478.595116 91.799483 
L 478.763029 91.564535 
L 479.098855 91.564535 
L 479.266768 91.799483 
L 479.43468 91.564535 
L 479.602593 90.624745 
L 479.770506 90.387215 
L 479.770506 90.387215 
" style="fill:none;stroke:#1f77b4;stroke-linecap:square;stroke-width:1.5;"/>
   </g>
   <g id="patch_3">
    <path d="M 33.62625 170.28 
L 33.62625 7.2 
" style="fill:none;stroke:#000000;stroke-linecap:square;stroke-linejoin:miter;stroke-width:0.8;"/>
   </g>
   <g id="patch_4">
    <path d="M 480.02625 170.28 
L 480.02625 7.2 
" style="fill:none;stroke:#000000;stroke-linecap:square;stroke-linejoin:miter;stroke-width:0.8;"/>
   </g>
   <g id="patch_5">
    <path d="M 33.62625 170.28 
L 480.02625 170.28 
" style="fill:none;stroke:#000000;stroke-linecap:square;stroke-linejoin:miter;stroke-width:0.8;"/>
   </g>
   <g id="patch_6">
    <path d="M 33.62625 7.2 
L 480.02625 7.2 
" style="fill:none;stroke:#000000;stroke-linecap:square;stroke-linejoin:miter;stroke-width:0.8;"/>
   </g>
  </g>
 </g>
 <defs>
  <clipPath id="pe658192641">
   <rect height="163.08" width="446.4" x="33.62625" y="7.2"/>
  </clipPath>
 </defs>
</svg>
