<?xml version="1.0" encoding="utf-8" standalone="no"?>
<!DOCTYPE svg PUBLIC "-//W3C//DTD SVG 1.1//EN"
  "http://www.w3.org/Graphics/SVG/1.1/DTD/svg11.dtd">
<svg height="192.2225pt" version="1.1" viewBox="0 0 479.59375 192.2225" width="479.59375pt" xmlns="http://www.w3.org/2000/svg" xmlns:xlink="http://www.w3.org/1999/xlink">
 <metadata>
  <rdf:RDF xmlns:cc="http://creativecommons.org/ns#" xmlns:dc="http://purl.org/dc/elements/1.1/" xmlns:rdf="http://www.w3.org/1999/02/22-rdf-syntax-ns#">
   <cc:Work>
    <dc:type rdf:resource="http://purl.org/dc/dcmitype/StillImage"/>
    <dc:date>2021-06-22T13:45:54.075303</dc:date>
    <dc:format>image/svg+xml</dc:format>
    <dc:creator>
     <cc:Agent>
      <dc:title>Matplotlib v3.4.2, https://matplotlib.org/</dc:title>
     </cc:Agent>
    </dc:creator>
   </cc:Work>
  </rdf:RDF>
 </metadata>
 <defs>
  <style type="text/css">*{stroke-linecap:butt;stroke-linejoin:round;}</style>
 </defs>
 <g id="figure_1">
  <g id="patch_1">
   <path d="M 0 192.2225 
L 479.59375 192.2225 
L 479.59375 0 
L 0 0 
z
" style="fill:none;"/>
  </g>
  <g id="axes_1">
   <g id="patch_2">
    <path d="M 25.99375 170.28 
L 472.39375 170.28 
L 472.39375 7.2 
L 25.99375 7.2 
z
" style="fill:#ffffff;"/>
   </g>
   <g id="matplotlib.axis_1">
    <g id="xtick_1">
     <g id="line2d_1">
      <defs>
       <path d="M 0 0 
L 0 3.5 
" id="m5220e83194" style="stroke:#000000;stroke-width:0.8;"/>
      </defs>
      <g>
       <use style="stroke:#000000;stroke-width:0.8;" x="46.284659" xlink:href="#m5220e83194" y="170.28"/>
      </g>
     </g>
     <g id="text_1">
      <!-- 0 -->
      <g transform="translate(43.739659 183.35875)scale(0.08 -0.08)">
       <defs>
        <path d="M 2034 4250 
Q 1547 4250 1301 3770 
Q 1056 3291 1056 2328 
Q 1056 1369 1301 889 
Q 1547 409 2034 409 
Q 2525 409 2770 889 
Q 3016 1369 3016 2328 
Q 3016 3291 2770 3770 
Q 2525 4250 2034 4250 
z
M 2034 4750 
Q 2819 4750 3233 4129 
Q 3647 3509 3647 2328 
Q 3647 1150 3233 529 
Q 2819 -91 2034 -91 
Q 1250 -91 836 529 
Q 422 1150 422 2328 
Q 422 3509 836 4129 
Q 1250 4750 2034 4750 
z
" id="DejaVuSans-30" transform="scale(0.015625)"/>
       </defs>
       <use xlink:href="#DejaVuSans-30"/>
      </g>
     </g>
    </g>
    <g id="xtick_2">
     <g id="line2d_2">
      <g>
       <use style="stroke:#000000;stroke-width:0.8;" x="121.297262" xlink:href="#m5220e83194" y="170.28"/>
      </g>
     </g>
     <g id="text_2">
      <!-- 500 -->
      <g transform="translate(113.662262 183.35875)scale(0.08 -0.08)">
       <defs>
        <path d="M 691 4666 
L 3169 4666 
L 3169 4134 
L 1269 4134 
L 1269 2991 
Q 1406 3038 1543 3061 
Q 1681 3084 1819 3084 
Q 2600 3084 3056 2656 
Q 3513 2228 3513 1497 
Q 3513 744 3044 326 
Q 2575 -91 1722 -91 
Q 1428 -91 1123 -41 
Q 819 9 494 109 
L 494 744 
Q 775 591 1075 516 
Q 1375 441 1709 441 
Q 2250 441 2565 725 
Q 2881 1009 2881 1497 
Q 2881 1984 2565 2268 
Q 2250 2553 1709 2553 
Q 1456 2553 1204 2497 
Q 953 2441 691 2322 
L 691 4666 
z
" id="DejaVuSans-35" transform="scale(0.015625)"/>
       </defs>
       <use xlink:href="#DejaVuSans-35"/>
       <use x="63.623047" xlink:href="#DejaVuSans-30"/>
       <use x="127.246094" xlink:href="#DejaVuSans-30"/>
      </g>
     </g>
    </g>
    <g id="xtick_3">
     <g id="line2d_3">
      <g>
       <use style="stroke:#000000;stroke-width:0.8;" x="196.309865" xlink:href="#m5220e83194" y="170.28"/>
      </g>
     </g>
     <g id="text_3">
      <!-- 1000 -->
      <g transform="translate(186.129865 183.35875)scale(0.08 -0.08)">
       <defs>
        <path d="M 794 531 
L 1825 531 
L 1825 4091 
L 703 3866 
L 703 4441 
L 1819 4666 
L 2450 4666 
L 2450 531 
L 3481 531 
L 3481 0 
L 794 0 
L 794 531 
z
" id="DejaVuSans-31" transform="scale(0.015625)"/>
       </defs>
       <use xlink:href="#DejaVuSans-31"/>
       <use x="63.623047" xlink:href="#DejaVuSans-30"/>
       <use x="127.246094" xlink:href="#DejaVuSans-30"/>
       <use x="190.869141" xlink:href="#DejaVuSans-30"/>
      </g>
     </g>
    </g>
    <g id="xtick_4">
     <g id="line2d_4">
      <g>
       <use style="stroke:#000000;stroke-width:0.8;" x="271.322468" xlink:href="#m5220e83194" y="170.28"/>
      </g>
     </g>
     <g id="text_4">
      <!-- 1500 -->
      <g transform="translate(261.142468 183.35875)scale(0.08 -0.08)">
       <use xlink:href="#DejaVuSans-31"/>
       <use x="63.623047" xlink:href="#DejaVuSans-35"/>
       <use x="127.246094" xlink:href="#DejaVuSans-30"/>
       <use x="190.869141" xlink:href="#DejaVuSans-30"/>
      </g>
     </g>
    </g>
    <g id="xtick_5">
     <g id="line2d_5">
      <g>
       <use style="stroke:#000000;stroke-width:0.8;" x="346.335071" xlink:href="#m5220e83194" y="170.28"/>
      </g>
     </g>
     <g id="text_5">
      <!-- 2000 -->
      <g transform="translate(336.155071 183.35875)scale(0.08 -0.08)">
       <defs>
        <path d="M 1228 531 
L 3431 531 
L 3431 0 
L 469 0 
L 469 531 
Q 828 903 1448 1529 
Q 2069 2156 2228 2338 
Q 2531 2678 2651 2914 
Q 2772 3150 2772 3378 
Q 2772 3750 2511 3984 
Q 2250 4219 1831 4219 
Q 1534 4219 1204 4116 
Q 875 4013 500 3803 
L 500 4441 
Q 881 4594 1212 4672 
Q 1544 4750 1819 4750 
Q 2544 4750 2975 4387 
Q 3406 4025 3406 3419 
Q 3406 3131 3298 2873 
Q 3191 2616 2906 2266 
Q 2828 2175 2409 1742 
Q 1991 1309 1228 531 
z
" id="DejaVuSans-32" transform="scale(0.015625)"/>
       </defs>
       <use xlink:href="#DejaVuSans-32"/>
       <use x="63.623047" xlink:href="#DejaVuSans-30"/>
       <use x="127.246094" xlink:href="#DejaVuSans-30"/>
       <use x="190.869141" xlink:href="#DejaVuSans-30"/>
      </g>
     </g>
    </g>
    <g id="xtick_6">
     <g id="line2d_6">
      <g>
       <use style="stroke:#000000;stroke-width:0.8;" x="421.347674" xlink:href="#m5220e83194" y="170.28"/>
      </g>
     </g>
     <g id="text_6">
      <!-- 2500 -->
      <g transform="translate(411.167674 183.35875)scale(0.08 -0.08)">
       <use xlink:href="#DejaVuSans-32"/>
       <use x="63.623047" xlink:href="#DejaVuSans-35"/>
       <use x="127.246094" xlink:href="#DejaVuSans-30"/>
       <use x="190.869141" xlink:href="#DejaVuSans-30"/>
      </g>
     </g>
    </g>
   </g>
   <g id="matplotlib.axis_2">
    <g id="ytick_1">
     <g id="line2d_7">
      <defs>
       <path d="M 0 0 
L -3.5 0 
" id="mc498574626" style="stroke:#000000;stroke-width:0.8;"/>
      </defs>
      <g>
       <use style="stroke:#000000;stroke-width:0.8;" x="25.99375" xlink:href="#mc498574626" y="142.258518"/>
      </g>
     </g>
     <g id="text_7">
      <!-- −2 -->
      <g transform="translate(7.2 145.297893)scale(0.08 -0.08)">
       <defs>
        <path d="M 678 2272 
L 4684 2272 
L 4684 1741 
L 678 1741 
L 678 2272 
z
" id="DejaVuSans-2212" transform="scale(0.015625)"/>
       </defs>
       <use xlink:href="#DejaVuSans-2212"/>
       <use x="83.789062" xlink:href="#DejaVuSans-32"/>
      </g>
     </g>
    </g>
    <g id="ytick_2">
     <g id="line2d_8">
      <g>
       <use style="stroke:#000000;stroke-width:0.8;" x="25.99375" xlink:href="#mc498574626" y="112.301998"/>
      </g>
     </g>
     <g id="text_8">
      <!-- −1 -->
      <g transform="translate(7.2 115.341373)scale(0.08 -0.08)">
       <use xlink:href="#DejaVuSans-2212"/>
       <use x="83.789062" xlink:href="#DejaVuSans-31"/>
      </g>
     </g>
    </g>
    <g id="ytick_3">
     <g id="line2d_9">
      <g>
       <use style="stroke:#000000;stroke-width:0.8;" x="25.99375" xlink:href="#mc498574626" y="82.345477"/>
      </g>
     </g>
     <g id="text_9">
      <!-- 0 -->
      <g transform="translate(13.90375 85.384852)scale(0.08 -0.08)">
       <use xlink:href="#DejaVuSans-30"/>
      </g>
     </g>
    </g>
    <g id="ytick_4">
     <g id="line2d_10">
      <g>
       <use style="stroke:#000000;stroke-width:0.8;" x="25.99375" xlink:href="#mc498574626" y="52.388956"/>
      </g>
     </g>
     <g id="text_10">
      <!-- 1 -->
      <g transform="translate(13.90375 55.428331)scale(0.08 -0.08)">
       <use xlink:href="#DejaVuSans-31"/>
      </g>
     </g>
    </g>
    <g id="ytick_5">
     <g id="line2d_11">
      <g>
       <use style="stroke:#000000;stroke-width:0.8;" x="25.99375" xlink:href="#mc498574626" y="22.432435"/>
      </g>
     </g>
     <g id="text_11">
      <!-- 2 -->
      <g transform="translate(13.90375 25.47181)scale(0.08 -0.08)">
       <use xlink:href="#DejaVuSans-32"/>
      </g>
     </g>
    </g>
   </g>
   <g id="line2d_12">
    <path clip-path="url(#pa2899838b3)" d="M 46.284659 96.230372 
L 46.434684 89.881118 
L 46.58471 93.348202 
L 46.734735 77.61791 
L 46.88476 49.032665 
L 47.034785 86.817289 
L 47.484861 43.638767 
L 47.784911 97.393213 
L 47.934936 69.943867 
L 48.084962 116.447856 
L 48.234987 66.358269 
L 48.385012 98.714096 
L 48.535037 98.037248 
L 48.685062 84.0264 
L 48.835088 84.233326 
L 48.985113 40.823576 
L 49.135138 86.68538 
L 49.285163 72.520986 
L 49.585214 100.953654 
L 49.735239 78.848042 
L 49.885264 90.83062 
L 50.035289 116.05874 
L 50.185314 66.116807 
L 50.33534 74.123778 
L 50.63539 59.501447 
L 50.785415 81.560536 
L 50.93544 84.478832 
L 51.085466 105.473342 
L 51.385516 71.455461 
L 51.535541 92.047019 
L 51.685567 90.035761 
L 51.835592 114.938348 
L 51.985617 70.23815 
L 52.135642 92.702204 
L 52.285667 82.100647 
L 52.435693 63.382964 
L 52.585718 72.319262 
L 52.735743 95.128277 
L 52.885768 68.734747 
L 53.035793 85.540339 
L 53.185819 82.949556 
L 53.485869 67.26319 
L 53.635894 67.606518 
L 53.935945 83.372253 
L 54.08597 109.896901 
L 54.536045 55.536998 
L 54.686071 80.952387 
L 54.836096 68.189548 
L 54.986121 111.47148 
L 55.136146 63.268471 
L 55.286171 95.486427 
L 55.436197 63.275837 
L 55.736247 101.03843 
L 56.186323 59.481623 
L 56.336348 82.739219 
L 56.486373 56.521288 
L 56.636398 100.895826 
L 56.786424 100.212679 
L 56.936449 105.993319 
L 57.086474 81.461721 
L 57.386524 76.577893 
L 57.53655 87.619814 
L 57.686575 62.827056 
L 57.8366 76.494226 
L 57.986625 75.557555 
L 58.13665 82.509101 
L 58.286676 94.979479 
L 58.436701 44.315506 
L 58.586726 55.732643 
L 58.736751 104.763602 
L 58.886776 87.097247 
L 59.036802 95.225603 
L 59.186827 73.804422 
L 59.336852 91.547877 
L 59.636902 62.309701 
L 59.786928 112.312944 
L 59.936953 77.04553 
L 60.086978 105.838939 
L 60.537054 72.204804 
L 60.687079 88.828682 
L 60.837104 75.89889 
L 60.987129 82.12951 
L 61.137154 102.522728 
L 61.28718 78.967304 
L 61.437205 77.612114 
L 61.58723 109.164324 
L 61.737255 79.574302 
L 61.88728 93.53207 
L 62.037306 89.674084 
L 62.187331 114.347606 
L 62.337356 81.993419 
L 62.487381 89.841628 
L 62.637407 91.240957 
L 62.787432 75.415631 
L 62.937457 71.405776 
L 63.237507 90.737099 
L 63.387533 70.074292 
L 63.537558 91.868506 
L 63.837608 82.511084 
L 63.987633 71.424289 
L 64.287684 90.090134 
L 64.437709 83.773614 
L 64.587734 53.815362 
L 64.737759 105.218622 
L 64.887785 83.359676 
L 65.03781 80.440641 
L 65.187835 69.657511 
L 65.33786 87.948738 
L 65.487885 57.878484 
L 65.787936 94.777667 
L 65.937961 66.073481 
L 66.087986 94.731289 
L 66.238011 74.256044 
L 66.388037 89.726472 
L 66.688087 65.768112 
L 66.838112 65.48687 
L 66.988137 84.604884 
L 67.138163 79.59213 
L 67.288188 85.659927 
L 67.438213 57.500517 
L 67.888289 114.437804 
L 68.038314 74.469141 
L 68.188339 80.299791 
L 68.338364 92.199631 
L 68.48839 64.094429 
L 68.638415 73.552669 
L 68.78844 66.414381 
L 68.938465 85.736775 
L 69.08849 77.135249 
L 69.388541 88.632679 
L 69.538566 61.774076 
L 69.688591 75.156286 
L 69.838616 113.914257 
L 69.988642 61.734515 
L 70.138667 88.202164 
L 70.288692 64.589417 
L 70.588742 69.654349 
L 70.738768 110.567407 
L 71.038818 85.005767 
L 71.338868 87.062249 
L 71.488894 89.367642 
L 71.788944 66.009805 
L 71.938969 94.54901 
L 72.088994 61.133294 
L 72.23902 90.769777 
L 72.389045 73.40665 
L 72.53907 89.055876 
L 72.689095 60.259175 
L 72.839121 107.224915 
L 72.989146 87.360324 
L 73.139171 87.679604 
L 73.289196 75.749512 
L 73.439221 84.185843 
L 73.589247 74.471203 
L 73.739272 94.093613 
L 73.889297 64.540067 
L 74.039322 102.633587 
L 74.189347 101.309905 
L 74.339373 73.700997 
L 74.489398 87.437325 
L 74.639423 58.956776 
L 74.789448 91.18548 
L 74.939473 93.830435 
L 75.089499 93.785382 
L 75.239524 60.745326 
L 75.389549 61.390047 
L 75.539574 93.475256 
L 75.689599 88.278351 
L 75.839625 103.424491 
L 75.98965 72.009711 
L 76.139675 76.197361 
L 76.2897 102.138918 
L 76.439725 103.896917 
L 76.589751 97.632873 
L 76.739776 108.516585 
L 76.889801 67.743362 
L 77.039826 82.28347 
L 77.189851 75.431449 
L 77.339877 94.225588 
L 77.489902 74.731686 
L 77.639927 90.002682 
L 77.789952 86.952119 
L 77.939978 94.689574 
L 78.090003 95.053007 
L 78.240028 46.441393 
L 78.390053 78.808396 
L 78.540078 84.222221 
L 78.690104 118.577541 
L 78.840129 71.175541 
L 79.140179 92.407704 
L 79.290204 97.487494 
L 79.44023 94.685217 
L 79.590255 95.811738 
L 79.74028 73.204057 
L 79.890305 73.698017 
L 80.04033 97.681363 
L 80.340381 89.343512 
L 80.490406 73.094808 
L 80.640431 98.831174 
L 80.790456 44.850966 
L 80.940482 96.407187 
L 81.090507 98.496187 
L 81.240532 86.551705 
L 81.390557 96.150298 
L 81.540582 89.273996 
L 81.690608 87.506757 
L 81.840633 65.657172 
L 82.140683 85.670937 
L 82.290708 88.037708 
L 82.440734 111.833976 
L 82.590759 72.46743 
L 82.740784 97.51462 
L 82.890809 95.953016 
L 83.040835 84.650359 
L 83.19086 113.559415 
L 83.49091 52.745355 
L 83.790961 103.432641 
L 83.940986 68.313459 
L 84.091011 60.384063 
L 84.241036 78.372809 
L 84.391061 61.134832 
L 84.541087 61.946706 
L 84.691112 65.346818 
L 84.841137 86.153116 
L 84.991162 62.411622 
L 85.141187 73.474563 
L 85.291213 53.680407 
L 85.441238 88.114679 
L 85.591263 68.433691 
L 85.741288 71.896091 
L 85.891313 64.516775 
L 86.041339 64.760568 
L 86.191364 54.521554 
L 86.341389 61.585216 
L 86.491414 60.951866 
L 86.791465 70.485803 
L 87.091515 55.639476 
L 87.24154 88.106342 
L 87.391565 68.405335 
L 87.541591 76.217544 
L 87.841641 40.260901 
L 87.991666 74.223503 
L 88.141692 63.250123 
L 88.291717 75.213351 
L 88.441742 40.134142 
L 88.591767 73.399815 
L 88.741792 43.338683 
L 89.041843 77.448593 
L 89.191868 83.57219 
L 89.341893 59.565013 
L 89.491918 85.754662 
L 89.641944 63.218499 
L 89.791969 94.820546 
L 89.941994 51.518124 
L 90.092019 46.819818 
L 90.242044 71.504881 
L 90.39207 55.511755 
L 90.69212 80.658138 
L 90.842145 83.978381 
L 90.99217 50.765657 
L 91.142196 68.022557 
L 91.292221 53.640769 
L 91.592271 63.978356 
L 91.742296 57.587451 
L 91.892322 74.673869 
L 92.042347 75.91181 
L 92.192372 55.945535 
L 92.342397 75.292681 
L 92.492422 70.588182 
L 92.792473 89.261151 
L 93.092523 40.718305 
L 93.242549 93.449658 
L 93.392574 64.935717 
L 93.542599 67.087362 
L 93.692624 75.772786 
L 93.842649 74.714581 
L 93.992675 72.449214 
L 94.1427 96.144681 
L 94.292725 87.995757 
L 94.44275 68.356245 
L 94.742801 76.196374 
L 94.892826 79.380323 
L 95.042851 72.437635 
L 95.192876 77.218664 
L 95.342901 68.532973 
L 95.492927 83.325518 
L 95.642952 78.900476 
L 95.792977 54.019819 
L 95.943002 88.866152 
L 96.093027 56.733245 
L 96.243053 63.133608 
L 96.393078 40.135738 
L 96.543103 80.852824 
L 96.693128 74.658217 
L 96.843153 74.645475 
L 96.993179 62.188625 
L 97.443254 84.316189 
L 97.593279 83.901487 
L 97.743305 69.615534 
L 97.89333 73.955893 
L 98.043355 66.448182 
L 98.19338 92.820299 
L 98.793481 67.988497 
L 98.943506 67.446772 
L 99.093532 68.34267 
L 99.243557 91.933732 
L 99.393582 38.385862 
L 99.693632 77.865488 
L 99.843658 43.08095 
L 99.993683 80.455578 
L 100.143708 47.594179 
L 100.293733 75.064972 
L 100.443758 71.818424 
L 100.593784 87.365515 
L 100.743809 50.66499 
L 100.893834 74.420185 
L 101.043859 78.644114 
L 101.193884 58.516501 
L 101.34391 78.545847 
L 101.493935 61.759701 
L 101.64396 72.855224 
L 101.94401 79.588106 
L 102.094036 76.904056 
L 102.244061 47.529465 
L 102.394086 92.6064 
L 102.544111 69.562107 
L 102.694136 77.275756 
L 102.844162 58.026195 
L 102.994187 60.416599 
L 103.144212 88.62875 
L 103.294237 90.195627 
L 103.444263 102.161168 
L 103.594288 51.672856 
L 103.894338 75.772706 
L 104.044363 81.976955 
L 104.194389 83.44803 
L 104.344414 53.364311 
L 104.494439 55.49289 
L 104.644464 61.85269 
L 104.794489 48.644528 
L 104.944515 83.857033 
L 105.09454 76.866364 
L 105.39459 100.434011 
L 105.694641 46.754961 
L 105.994691 88.900933 
L 106.144716 80.446469 
L 106.294741 79.155191 
L 106.444767 75.604196 
L 106.594792 85.550838 
L 106.894842 48.317577 
L 107.044867 44.98961 
L 107.494943 79.576053 
L 107.644968 58.60744 
L 107.794993 72.818046 
L 107.945019 75.240779 
L 108.095044 84.358742 
L 108.395094 61.723937 
L 108.54512 79.656073 
L 108.695145 47.059584 
L 108.84517 40.266087 
L 108.995195 85.568905 
L 109.14522 86.954509 
L 109.295246 74.988784 
L 109.445271 51.88792 
L 109.595296 95.829122 
L 109.745321 45.14819 
L 109.895346 73.599561 
L 110.045372 64.410308 
L 110.345422 88.323785 
L 110.495447 57.183664 
L 110.645472 82.748235 
L 110.795498 69.547312 
L 110.945523 75.866826 
L 111.095548 69.571817 
L 111.245573 71.197443 
L 111.395598 77.535363 
L 111.695649 55.923199 
L 111.845674 70.811019 
L 111.995699 58.898392 
L 112.145724 84.631176 
L 112.29575 88.777147 
L 112.445775 76.126354 
L 112.5958 44.713903 
L 112.745825 97.290437 
L 113.195901 56.433383 
L 113.345926 87.172646 
L 113.495951 75.320938 
L 113.645977 50.142672 
L 113.796002 56.157528 
L 113.946027 71.14989 
L 114.096052 63.934401 
L 114.246077 87.66012 
L 114.396103 86.050549 
L 114.546128 59.608031 
L 114.696153 66.350056 
L 114.846178 104.678143 
L 114.996203 93.424624 
L 115.146229 51.443277 
L 115.446279 78.127553 
L 115.596304 67.515472 
L 115.746329 42.676915 
L 115.896355 69.084402 
L 116.04638 59.964492 
L 116.196405 80.460042 
L 116.34643 78.999049 
L 116.646481 64.064573 
L 116.796506 86.201665 
L 116.946531 85.454315 
L 117.096556 104.095181 
L 117.246581 97.725426 
L 117.546632 59.576604 
L 117.696657 64.200063 
L 117.846682 64.584126 
L 117.996707 90.457924 
L 118.146733 56.898234 
L 118.296758 65.791722 
L 118.446783 63.257467 
L 118.746834 79.293658 
L 119.046884 58.906003 
L 119.196909 52.495949 
L 119.346934 14.612727 
L 119.49696 84.868622 
L 119.79701 71.719303 
L 119.947035 76.74091 
L 120.09706 76.390716 
L 120.247086 74.302171 
L 120.397111 89.593078 
L 120.697161 62.03769 
L 120.997212 87.654259 
L 121.297262 63.90324 
L 121.447287 74.042227 
L 121.897363 56.144512 
L 122.047388 85.177671 
L 122.197413 56.809819 
L 122.347438 56.507033 
L 122.497464 59.99563 
L 122.647489 78.485414 
L 122.797514 81.003736 
L 123.097564 38.88402 
L 123.24759 68.174974 
L 123.397615 71.448684 
L 123.54764 64.51056 
L 123.847691 69.482183 
L 124.147741 54.952647 
L 124.297766 57.867304 
L 124.447791 73.123507 
L 124.597817 55.54859 
L 124.747842 75.426049 
L 124.897867 71.597789 
L 125.047892 75.498455 
L 125.197917 57.74855 
L 125.347943 70.37033 
L 125.497968 70.751826 
L 125.647993 79.892473 
L 125.798018 57.115659 
L 125.948043 64.390598 
L 126.098069 95.119165 
L 126.248094 90.368857 
L 126.398119 73.248834 
L 126.548144 90.850442 
L 126.698169 64.615337 
L 126.848195 60.907238 
L 126.99822 70.301301 
L 127.148245 48.070094 
L 127.29827 82.744443 
L 127.598321 45.072517 
L 127.748346 65.826369 
L 127.898371 70.406366 
L 128.048396 80.952114 
L 128.198421 56.826864 
L 128.348447 75.53101 
L 128.498472 58.133144 
L 128.648497 73.249294 
L 128.798522 50.122327 
L 128.948548 63.412551 
L 129.098573 91.023983 
L 129.248598 45.422042 
L 129.548648 69.836973 
L 129.848699 59.566258 
L 129.998724 82.716479 
L 130.148749 70.311556 
L 130.298774 67.93134 
L 130.4488 82.144822 
L 130.598825 63.934485 
L 130.74885 86.728503 
L 130.898875 68.70688 
L 131.0489 83.223096 
L 131.348951 62.338413 
L 131.498976 78.492379 
L 131.649001 46.461774 
L 131.799026 50.307678 
L 131.949052 64.724989 
L 132.099077 66.867712 
L 132.249102 62.713049 
L 132.399127 95.619202 
L 132.549152 81.905018 
L 132.699178 81.931314 
L 132.849203 62.041069 
L 132.999228 81.806974 
L 133.149253 57.111682 
L 133.299278 61.488354 
L 133.449304 57.617828 
L 133.599329 78.586659 
L 133.749354 78.116929 
L 133.899379 54.603444 
L 134.049405 83.057397 
L 134.349455 39.016399 
L 134.49948 74.317647 
L 134.649505 76.361128 
L 134.799531 85.362813 
L 134.949556 52.391596 
L 135.249606 87.035314 
L 135.399631 73.799875 
L 135.549657 73.841599 
L 135.699682 62.487427 
L 135.849707 86.292252 
L 136.299783 69.883074 
L 136.449808 75.406508 
L 136.599833 86.315433 
L 136.749858 83.658593 
L 136.899883 99.07687 
L 137.049909 97.317315 
L 137.199934 69.883718 
L 137.349959 62.769142 
L 137.499984 81.216748 
L 137.650009 60.478781 
L 137.800035 86.272296 
L 138.100085 50.675687 
L 138.25011 82.028828 
L 138.400135 70.102916 
L 138.700186 63.985764 
L 138.850211 52.638587 
L 139.000236 76.726011 
L 139.150262 67.54223 
L 139.300287 67.31571 
L 139.450312 99.766276 
L 139.600337 50.347514 
L 139.750362 75.098827 
L 139.900388 65.50088 
L 140.050413 87.393619 
L 140.350463 62.627611 
L 140.500488 72.222291 
L 140.650514 94.328367 
L 140.800539 71.811565 
L 140.950564 87.766852 
L 141.100589 73.325161 
L 141.250614 91.585442 
L 141.40064 53.123518 
L 141.550665 103.934166 
L 141.850715 47.714588 
L 142.00074 63.694064 
L 142.150766 59.644417 
L 142.300791 74.125111 
L 142.450816 75.634056 
L 142.600841 83.222918 
L 142.750866 58.34214 
L 143.050917 91.474915 
L 143.350967 39.676663 
L 143.500992 83.345108 
L 143.651018 73.431866 
L 143.801043 74.449872 
L 143.951068 56.712048 
L 144.101093 56.454987 
L 144.251119 83.577022 
L 144.551169 75.859273 
L 144.701194 57.38719 
L 144.851219 90.393253 
L 145.001245 55.252438 
L 145.301295 96.229985 
L 145.45132 51.631321 
L 145.601345 59.342219 
L 145.751371 61.209747 
L 146.051421 70.910678 
L 146.201446 65.542679 
L 146.351471 76.409437 
L 146.501497 46.232774 
L 146.651522 91.857388 
L 146.801547 84.137741 
L 146.951572 92.072998 
L 147.251623 68.962867 
L 147.401648 75.827354 
L 147.551673 66.548842 
L 147.701698 88.171302 
L 147.851723 55.329075 
L 148.151774 100.223082 
L 148.301799 70.277286 
L 148.451824 89.245505 
L 148.9019 77.11355 
L 149.051925 61.4311 
L 149.351976 88.549975 
L 149.502001 68.680235 
L 149.802051 80.934799 
L 149.952076 56.081335 
L 150.102102 64.032163 
L 150.252127 46.615838 
L 150.402152 89.613855 
L 150.552177 85.173381 
L 150.702202 66.922189 
L 150.852228 64.893819 
L 151.002253 95.845259 
L 151.152278 72.20472 
L 151.302303 82.654845 
L 151.452328 58.44804 
L 151.602354 62.89186 
L 151.752379 100.243753 
L 151.902404 59.415186 
L 152.052429 80.197765 
L 152.202454 79.865263 
L 152.35248 80.083105 
L 152.502505 71.061292 
L 152.65253 53.975412 
L 152.95258 66.608596 
L 153.102606 73.043329 
L 153.252631 61.79997 
L 153.552681 90.185332 
L 153.702706 67.313479 
L 153.852732 70.958211 
L 154.002757 53.670208 
L 154.152782 58.990641 
L 154.302807 53.767147 
L 154.452833 52.437938 
L 154.602858 78.165871 
L 154.752883 76.870421 
L 154.902908 85.6752 
L 155.052933 86.840366 
L 155.202959 63.93447 
L 155.503009 78.956393 
L 155.653034 52.498273 
L 155.803059 91.465184 
L 155.953085 61.74995 
L 156.10311 72.435133 
L 156.253135 60.144592 
L 156.40316 66.919663 
L 156.553185 79.481019 
L 156.703211 81.885572 
L 156.853236 80.134715 
L 157.153286 43.698566 
L 157.303311 40.158136 
L 157.453337 77.175773 
L 157.753387 90.068153 
L 157.903412 64.851049 
L 158.053437 66.124398 
L 158.203463 54.972584 
L 158.353488 72.430433 
L 158.503513 40.867979 
L 158.653538 77.958286 
L 158.803563 53.787893 
L 158.953589 48.521436 
L 159.253639 74.129485 
L 159.403664 56.386848 
L 159.55369 75.200245 
L 159.703715 39.292519 
L 160.003765 68.54771 
L 160.15379 68.515342 
L 160.303816 40.506678 
L 160.453841 82.847932 
L 160.603866 63.578531 
L 160.753891 86.706228 
L 160.903916 46.46069 
L 161.053942 78.600425 
L 161.203967 82.862524 
L 161.353992 81.215474 
L 161.504017 76.633838 
L 161.654042 76.513987 
L 161.804068 61.380572 
L 162.104118 77.656938 
L 162.254143 54.670642 
L 162.404168 85.154391 
L 162.554194 66.116775 
L 162.704219 79.995995 
L 162.854244 67.82112 
L 163.154294 98.727882 
L 163.30432 67.587016 
L 163.454345 98.761989 
L 163.60437 62.706392 
L 163.754395 96.959035 
L 163.90442 55.154354 
L 164.054446 79.75522 
L 164.204471 71.306064 
L 164.354496 49.121556 
L 164.504521 68.124786 
L 164.654547 70.942203 
L 164.804572 77.852233 
L 164.954597 61.119056 
L 165.104622 57.00845 
L 165.254647 79.622017 
L 165.404673 65.68023 
L 165.554698 86.008913 
L 165.704723 54.503631 
L 165.854748 59.959214 
L 166.004773 89.400515 
L 166.154799 69.024678 
L 166.304824 73.647303 
L 166.454849 83.809876 
L 166.604874 53.3399 
L 166.754899 84.357365 
L 166.904925 43.395891 
L 167.05495 78.229067 
L 167.355 66.042 
L 167.505025 46.301591 
L 167.655051 94.872243 
L 167.805076 61.243126 
L 167.955101 84.601364 
L 168.105126 84.403764 
L 168.255151 53.881475 
L 168.405177 72.223424 
L 168.555202 65.194997 
L 168.705227 95.545328 
L 168.855252 58.708429 
L 169.005277 98.534505 
L 169.305328 69.694643 
L 169.455353 65.92466 
L 169.605378 70.786467 
L 169.755404 66.815758 
L 169.905429 79.295493 
L 170.055454 72.329738 
L 170.205479 47.748101 
L 170.355504 86.267108 
L 170.50553 71.439288 
L 170.655555 83.079866 
L 170.955605 65.768738 
L 171.10563 84.912831 
L 171.255656 58.108314 
L 171.405681 66.800537 
L 171.705731 46.025835 
L 171.855756 67.833691 
L 172.005782 46.866252 
L 172.155807 60.89849 
L 172.305832 48.27644 
L 172.455857 71.462059 
L 172.605882 76.280527 
L 172.755908 71.341908 
L 173.205983 89.025617 
L 173.506034 43.696588 
L 173.656059 78.563447 
L 173.806084 52.873891 
L 173.956109 84.258838 
L 174.106134 73.786584 
L 174.25616 90.776672 
L 174.406185 66.391233 
L 174.55621 113.522357 
L 174.856261 104.985608 
L 175.006286 106.359215 
L 175.156311 109.177017 
L 175.306336 108.616603 
L 175.456361 110.959461 
L 175.756412 106.42781 
L 175.906437 122.130674 
L 176.056462 118.236378 
L 176.206487 102.218835 
L 176.356513 107.69534 
L 176.506538 132.664381 
L 176.806588 105.514146 
L 176.956613 98.365911 
L 177.106639 115.298955 
L 177.256664 99.899277 
L 177.406689 113.628632 
L 177.556714 101.486764 
L 177.706739 122.969431 
L 178.00679 108.60189 
L 178.156815 114.595151 
L 178.456865 108.727267 
L 178.606891 105.249716 
L 178.906941 114.561342 
L 179.206991 101.132829 
L 179.357017 109.543687 
L 179.507042 109.17938 
L 179.657067 113.938149 
L 179.807092 99.343046 
L 180.107143 112.02509 
L 180.257168 107.149094 
L 180.407193 110.406353 
L 180.557218 106.297296 
L 180.707244 114.965499 
L 180.857269 91.565957 
L 181.007294 125.239041 
L 181.157319 123.309587 
L 181.307344 109.525574 
L 181.45737 111.295276 
L 181.607395 106.226882 
L 181.75742 106.696739 
L 181.907445 115.642304 
L 182.207496 105.544724 
L 182.357521 115.873943 
L 182.657571 98.537014 
L 182.957622 122.859916 
L 183.257672 104.191093 
L 183.407697 108.097601 
L 183.557722 104.845323 
L 183.707748 114.995235 
L 183.857773 107.596972 
L 184.007798 115.821193 
L 184.157823 100.351974 
L 184.307848 106.277459 
L 184.457874 105.962221 
L 184.607899 103.99112 
L 184.757924 105.803906 
L 184.907949 115.809903 
L 185.057975 112.142548 
L 185.208 98.809857 
L 185.358025 112.71841 
L 185.50805 102.568726 
L 185.658075 112.988759 
L 185.808101 97.066121 
L 186.108151 108.135845 
L 186.258176 107.317449 
L 186.408201 113.114606 
L 186.558227 112.382325 
L 186.708252 108.587574 
L 186.858277 112.470631 
L 187.158327 105.270864 
L 187.308353 104.402256 
L 187.458378 107.727656 
L 187.608403 114.871328 
L 187.758428 103.634065 
L 187.908453 102.337737 
L 188.058479 113.630392 
L 188.208504 99.631052 
L 188.508554 110.394694 
L 188.658579 101.566625 
L 188.95863 118.257174 
L 189.108655 97.80902 
L 189.408705 113.630981 
L 189.558731 103.077924 
L 189.708756 117.511309 
L 189.858781 98.211155 
L 190.008806 117.228643 
L 190.158831 113.262235 
L 190.308857 98.894893 
L 190.458882 115.897069 
L 190.608907 102.779861 
L 190.758932 105.971271 
L 190.908958 121.184456 
L 191.058983 104.39702 
L 191.209008 105.561788 
L 191.509058 104.355501 
L 191.659084 115.431465 
L 191.959134 101.872975 
L 192.259184 107.701203 
L 192.70926 102.229699 
L 192.859285 113.065371 
L 193.00931 110.243596 
L 193.159336 102.18652 
L 193.309361 106.007835 
L 193.459386 98.892425 
L 193.609411 113.006153 
L 193.759436 110.743949 
L 193.909462 112.028606 
L 194.059487 111.879159 
L 194.209512 109.644166 
L 194.359537 110.121017 
L 194.509562 121.453172 
L 194.659588 105.293012 
L 194.809613 107.369412 
L 194.959638 122.339521 
L 195.109663 114.58836 
L 195.259688 120.500437 
L 195.409714 107.616277 
L 195.559739 118.805774 
L 195.709764 121.038043 
L 195.859789 107.415628 
L 196.009815 105.759217 
L 196.15984 101.31307 
L 196.309865 115.088961 
L 196.45989 112.780916 
L 196.609915 120.245708 
L 196.759941 105.372701 
L 196.909966 112.646736 
L 197.059991 110.283064 
L 197.210016 96.701029 
L 197.360041 120.206529 
L 197.510067 99.38573 
L 197.660092 124.894593 
L 197.810117 101.11187 
L 198.110167 118.081832 
L 198.260193 103.541746 
L 198.410218 113.794813 
L 198.560243 106.398904 
L 198.710268 104.767602 
L 198.860293 113.339231 
L 199.010319 99.997883 
L 199.310369 117.469142 
L 199.460394 108.077065 
L 199.610419 107.003333 
L 199.760445 118.444482 
L 199.91047 115.942017 
L 200.060495 116.283485 
L 200.21052 111.362833 
L 200.360545 110.176671 
L 200.510571 110.801344 
L 200.660596 110.358052 
L 200.810621 108.329645 
L 200.960646 114.420713 
L 201.110672 98.982048 
L 201.260697 97.161039 
L 201.560747 116.154664 
L 201.710772 106.28572 
L 201.860798 111.79648 
L 202.010823 98.534113 
L 202.160848 99.293206 
L 202.310873 95.974518 
L 202.460898 109.164555 
L 202.610924 100.349062 
L 202.760949 115.880965 
L 202.910974 108.578974 
L 203.060999 108.551445 
L 203.36105 121.971341 
L 203.6611 104.89796 
L 203.811125 111.794508 
L 203.96115 104.178249 
L 204.111176 111.739058 
L 204.261201 113.300227 
L 204.411226 99.652487 
L 204.561251 120.480293 
L 204.711276 114.241349 
L 204.861302 117.972846 
L 205.011327 115.031669 
L 205.161352 114.832603 
L 205.311377 104.174108 
L 205.761453 114.759308 
L 205.911478 105.769116 
L 206.061503 127.299008 
L 206.211529 112.529363 
L 206.361554 115.949408 
L 206.511579 127.649995 
L 206.661604 108.935275 
L 206.811629 127.978883 
L 207.11168 99.143473 
L 207.41173 109.416067 
L 207.561755 111.40892 
L 207.711781 94.738383 
L 207.861806 108.799931 
L 208.011831 112.445187 
L 208.161856 100.674288 
L 208.311881 102.172601 
L 208.461907 118.804608 
L 208.611932 118.97278 
L 209.062007 101.138289 
L 209.212033 103.598502 
L 209.362058 103.983417 
L 209.662108 116.086367 
L 209.812133 102.769571 
L 209.962159 115.115384 
L 210.112184 103.844144 
L 210.262209 107.537641 
L 210.412234 114.312505 
L 210.712285 103.898014 
L 210.86231 108.899653 
L 211.012335 118.078553 
L 211.16236 102.420761 
L 211.312386 104.183356 
L 211.612436 116.314314 
L 211.762461 114.401872 
L 211.912486 108.486972 
L 212.062512 109.808741 
L 212.362562 101.484064 
L 212.512587 111.731355 
L 212.662612 130.383408 
L 212.962663 107.229553 
L 213.112688 108.392416 
L 213.262713 106.206326 
L 213.562764 115.362171 
L 213.712789 105.312021 
L 213.862814 111.541227 
L 214.012839 112.599213 
L 214.31289 106.253576 
L 214.462915 105.488969 
L 214.61294 116.882669 
L 214.762965 108.726762 
L 214.91299 110.450051 
L 215.063016 126.393818 
L 215.213041 106.936552 
L 215.363066 130.892047 
L 215.513091 107.351454 
L 215.663116 107.129097 
L 215.813142 108.574051 
L 215.963167 124.081788 
L 216.263217 110.03988 
L 216.413243 112.436353 
L 216.563268 108.729576 
L 216.713293 116.337373 
L 216.863318 105.772042 
L 217.013343 114.00708 
L 217.313394 110.38492 
L 217.463419 110.113293 
L 217.613444 120.341699 
L 217.763469 110.233141 
L 217.913495 107.866578 
L 218.06352 101.44467 
L 218.213545 102.172383 
L 218.36357 109.459695 
L 218.513595 106.414186 
L 218.663621 120.209935 
L 218.813646 108.681895 
L 218.963671 113.245791 
L 219.113696 114.326762 
L 219.263721 103.830739 
L 219.563772 116.663908 
L 219.713797 107.352542 
L 219.863822 115.321141 
L 220.013847 101.539155 
L 220.163873 103.939854 
L 220.313898 116.035417 
L 220.463923 95.747865 
L 220.613948 107.548667 
L 220.763973 110.544176 
L 220.913999 104.910881 
L 221.214049 120.143602 
L 221.364074 117.680857 
L 221.5141 101.112313 
L 221.964175 118.429678 
L 222.1142 107.399607 
L 222.264226 109.837624 
L 222.414251 101.739604 
L 222.564276 125.660588 
L 222.864326 98.102368 
L 223.014352 92.768567 
L 223.164377 108.860931 
L 223.314402 108.033885 
L 223.464427 115.45938 
L 223.614452 103.375013 
L 223.764478 100.285945 
L 223.914503 112.452353 
L 224.064528 88.963123 
L 224.214553 112.112218 
L 224.364578 104.425929 
L 224.514604 125.330244 
L 224.664629 120.407918 
L 224.814654 123.014286 
L 224.964679 109.322643 
L 225.114704 110.939326 
L 225.26473 108.419388 
L 225.414755 115.657976 
L 225.56478 104.91397 
L 225.714805 111.863578 
L 225.86483 93.471769 
L 226.014856 106.880183 
L 226.164881 106.662956 
L 226.314906 114.134149 
L 226.464931 112.600375 
L 226.764982 103.407487 
L 226.915007 112.457292 
L 227.065032 107.273157 
L 227.215057 118.006847 
L 227.365083 113.008534 
L 227.515108 116.547445 
L 227.815158 100.093554 
L 227.965183 113.851462 
L 228.115209 114.290156 
L 228.415259 107.341332 
L 228.565284 120.57818 
L 228.715309 100.55381 
L 228.865335 116.944917 
L 229.01536 112.89883 
L 229.165385 112.313202 
L 229.31541 114.496132 
L 229.465435 104.150776 
L 229.615461 110.958598 
L 229.765486 109.480208 
L 229.915511 121.139843 
L 230.215561 104.342838 
L 230.365587 119.45874 
L 230.515612 110.470994 
L 230.665637 112.292807 
L 230.815662 105.637694 
L 230.965687 111.868212 
L 231.115713 111.344806 
L 231.415763 103.940375 
L 231.565788 119.617162 
L 231.715814 100.399166 
L 232.015864 108.98697 
L 232.315914 103.857344 
L 232.46594 107.73973 
L 232.615965 115.028351 
L 232.76599 110.590895 
L 232.916015 119.520134 
L 233.06604 109.683941 
L 233.216066 107.342675 
L 233.516116 112.883394 
L 233.816166 98.178623 
L 233.966192 111.468175 
L 234.266242 109.970575 
L 234.416267 111.653595 
L 234.566292 118.541703 
L 234.716318 106.405178 
L 234.866343 119.956216 
L 235.016368 113.849259 
L 235.166393 88.828525 
L 235.316418 93.444318 
L 235.616469 114.526365 
L 235.766494 108.210198 
L 235.916519 107.195457 
L 236.066544 101.573598 
L 236.21657 106.171299 
L 236.51662 101.369826 
L 236.816671 107.137851 
L 236.966696 94.401014 
L 237.416771 114.613479 
L 238.016872 102.286222 
L 238.166897 102.371809 
L 238.466948 118.259148 
L 238.766998 98.072898 
L 238.917023 104.492303 
L 239.067049 119.774984 
L 239.217074 104.360856 
L 239.367099 112.677956 
L 239.517124 103.687508 
L 239.9672 113.685995 
L 240.117225 109.534397 
L 240.26725 116.506852 
L 240.417275 108.901948 
L 240.567301 121.386457 
L 240.717326 113.717102 
L 240.867351 120.5961 
L 241.167401 111.786334 
L 241.317427 106.511008 
L 241.467452 107.836011 
L 241.617477 111.982785 
L 241.767502 112.027324 
L 241.917528 116.431563 
L 242.067553 116.358588 
L 242.217578 103.237052 
L 242.367603 123.239135 
L 242.517628 104.535448 
L 242.667654 110.64533 
L 242.817679 123.909896 
L 242.967704 98.840354 
L 243.267754 119.018407 
L 243.41778 114.603536 
L 243.567805 99.275498 
L 243.71783 116.822821 
L 244.01788 106.768656 
L 244.167906 118.687072 
L 244.317931 113.497861 
L 244.467956 99.56799 
L 244.617981 119.915773 
L 244.768006 120.196792 
L 244.918032 122.37746 
L 245.218082 114.231303 
L 245.368107 113.819637 
L 245.518132 107.905089 
L 245.668158 112.04828 
L 245.818183 108.99859 
L 246.118233 116.40011 
L 246.268258 105.568948 
L 246.418284 114.462088 
L 246.568309 115.799795 
L 246.718334 109.689384 
L 246.868359 119.232738 
L 247.16841 96.65793 
L 247.318435 114.117569 
L 247.46846 98.974778 
L 247.768511 117.766309 
L 248.068561 109.098643 
L 248.218586 113.392677 
L 248.368611 109.96384 
L 248.518637 114.068879 
L 248.668662 103.629468 
L 248.818687 111.168657 
L 248.968712 112.913324 
L 249.268763 103.144858 
L 249.568813 124.89427 
L 249.868863 101.898493 
L 250.018889 117.14997 
L 250.168914 106.330912 
L 250.318939 115.915169 
L 250.468964 104.130291 
L 250.618989 109.798576 
L 250.769015 106.742088 
L 250.91904 108.053352 
L 251.069065 113.076609 
L 251.21909 112.968135 
L 251.369115 109.712672 
L 251.669166 115.794744 
L 251.819191 99.673794 
L 251.969216 123.900994 
L 252.119242 108.243897 
L 252.269267 107.1195 
L 252.419292 105.019161 
L 252.569317 100.303185 
L 252.719342 116.723937 
L 252.869368 109.576251 
L 253.169418 107.578941 
L 253.469468 99.585576 
L 253.619494 107.078901 
L 253.769519 120.806978 
L 253.919544 116.480878 
L 254.069569 117.430004 
L 254.219594 119.686745 
L 254.36962 111.425808 
L 254.519645 111.164122 
L 254.66967 123.936988 
L 254.96972 106.890067 
L 255.269771 99.418111 
L 255.719846 124.562567 
L 255.869872 108.551412 
L 256.019897 110.214544 
L 256.169922 102.923269 
L 256.319947 112.010855 
L 256.469972 113.612299 
L 256.619998 99.920687 
L 257.070073 115.243264 
L 257.220099 98.517078 
L 257.370124 118.046549 
L 257.670174 95.232106 
L 257.820199 113.717432 
L 257.970225 109.691446 
L 258.12025 111.891181 
L 258.4203 106.290433 
L 258.570325 107.18463 
L 258.720351 106.836716 
L 258.870376 115.107328 
L 259.020401 104.449371 
L 259.320451 111.433584 
L 259.470477 106.761483 
L 259.770527 120.85916 
L 259.920552 105.326089 
L 260.070577 104.664962 
L 260.220603 112.581312 
L 260.370628 102.315055 
L 260.520653 100.806709 
L 260.670678 101.811566 
L 260.820703 70.804456 
L 260.970729 78.189246 
L 261.120754 69.894573 
L 261.420804 108.613632 
L 261.570829 86.493326 
L 261.720855 90.537135 
L 261.87088 85.486893 
L 262.020905 72.774708 
L 262.17093 97.307539 
L 262.320956 74.25334 
L 262.470981 109.845254 
L 262.621006 93.438148 
L 262.771031 107.938952 
L 263.071082 75.197069 
L 263.221107 93.767255 
L 263.371132 72.386111 
L 263.521157 72.300395 
L 263.671182 112.235056 
L 263.821208 87.081925 
L 263.971233 103.270994 
L 264.271283 85.323749 
L 264.421308 89.786598 
L 264.571334 102.37453 
L 264.721359 88.726499 
L 264.871384 95.003818 
L 265.021409 107.383766 
L 265.32146 99.898069 
L 265.471485 84.996472 
L 265.62151 95.489479 
L 265.771535 115.670576 
L 265.92156 91.994546 
L 266.071586 106.635622 
L 266.221611 104.581725 
L 266.371636 80.38857 
L 266.671686 101.388496 
L 266.821712 95.967471 
L 266.971737 73.170116 
L 267.271787 93.29364 
L 267.421813 90.564213 
L 267.571838 90.709429 
L 267.721863 72.883004 
L 267.871888 107.899175 
L 268.021913 85.722234 
L 268.171939 89.112724 
L 268.321964 108.731234 
L 268.471989 84.676597 
L 268.622014 81.392686 
L 268.922065 95.278081 
L 269.222115 80.92445 
L 269.37214 107.165492 
L 269.822216 85.465263 
L 269.972241 90.218397 
L 270.122266 88.232757 
L 270.422317 96.760238 
L 270.572342 74.400174 
L 270.722367 101.4311 
L 270.872392 82.412197 
L 271.022417 96.625401 
L 271.172443 93.617991 
L 271.322468 99.97731 
L 271.472493 78.706133 
L 271.622518 86.982751 
L 271.772543 102.404344 
L 271.922569 101.375974 
L 272.072594 86.11787 
L 272.222619 88.252702 
L 272.372644 94.275247 
L 272.52267 109.116295 
L 272.672695 83.457288 
L 272.82272 85.803625 
L 272.972745 65.394129 
L 273.12277 86.325874 
L 273.272796 72.075896 
L 273.422821 106.165672 
L 273.722871 76.50445 
L 273.872896 96.219996 
L 274.022922 87.484676 
L 274.172947 91.890104 
L 274.322972 85.156011 
L 274.472997 115.520003 
L 274.923073 79.46578 
L 275.073098 81.346914 
L 275.223123 95.107108 
L 275.373148 79.25642 
L 275.523174 103.950843 
L 275.673199 103.269108 
L 275.823224 61.006351 
L 276.123274 117.645091 
L 276.2733 74.974386 
L 276.423325 95.763235 
L 276.57335 96.879408 
L 276.723375 82.732567 
L 276.8734 89.436906 
L 277.173451 82.339209 
L 277.323476 88.407051 
L 277.473501 79.167331 
L 277.623527 77.705424 
L 277.773552 75.068158 
L 277.923577 63.031946 
L 278.223627 94.232333 
L 278.373653 86.048651 
L 278.523678 91.687469 
L 278.673703 105.762824 
L 278.823728 95.806135 
L 278.973753 115.297884 
L 279.273804 85.306317 
L 279.423829 103.40356 
L 279.573854 91.760487 
L 279.723879 89.203637 
L 279.873905 90.153909 
L 280.02393 76.669562 
L 280.173955 82.630059 
L 280.32398 93.030185 
L 280.624031 72.024969 
L 280.774056 108.704285 
L 280.924081 82.152198 
L 281.074106 95.740667 
L 281.224131 92.649459 
L 281.374157 105.949203 
L 281.524182 93.167079 
L 281.824232 102.116233 
L 281.974257 88.569327 
L 282.124283 89.173621 
L 282.274308 94.04279 
L 282.424333 81.314356 
L 282.574358 101.702854 
L 282.724384 101.500037 
L 282.874409 102.182177 
L 283.174459 87.212603 
L 283.324484 72.177847 
L 283.47451 83.534006 
L 283.624535 63.800782 
L 283.77456 85.137211 
L 283.924585 84.8806 
L 284.224636 79.738942 
L 284.374661 90.197946 
L 284.524686 86.839296 
L 284.674711 79.445594 
L 284.824736 96.987816 
L 285.124787 72.988493 
L 285.424837 97.357743 
L 285.574862 73.812094 
L 285.724888 100.473938 
L 286.174963 80.648271 
L 286.324988 101.45773 
L 286.475014 104.034179 
L 286.625039 95.254506 
L 286.775064 103.189802 
L 286.925089 104.325735 
L 287.075114 102.26533 
L 287.22514 95.04151 
L 287.375165 81.57978 
L 287.52519 100.063162 
L 287.675215 99.111809 
L 287.975266 74.956199 
L 288.125291 71.894424 
L 288.275316 106.951549 
L 288.425341 83.131622 
L 288.575367 103.331347 
L 288.725392 78.561395 
L 288.875417 106.762343 
L 289.025442 72.267433 
L 289.175467 89.887036 
L 289.325493 80.889884 
L 289.475518 95.608569 
L 289.625543 81.403434 
L 289.775568 90.43956 
L 289.925593 86.103809 
L 290.075619 102.68757 
L 290.225644 91.838913 
L 290.375669 94.85026 
L 290.525694 83.215414 
L 290.675719 81.97077 
L 290.825745 97.841033 
L 290.97577 92.800704 
L 291.125795 72.386118 
L 291.27582 97.65099 
L 291.425845 92.444616 
L 291.575871 78.044168 
L 291.725896 88.460635 
L 291.875921 90.547584 
L 292.025946 86.803982 
L 292.175971 97.403786 
L 292.325997 96.520825 
L 292.476022 73.558747 
L 292.626047 72.264549 
L 292.776072 91.346257 
L 292.926098 94.81768 
L 293.076123 79.213723 
L 293.376173 107.42879 
L 293.526198 84.924747 
L 293.676224 97.463565 
L 293.826249 91.74054 
L 293.976274 95.650133 
L 294.126299 102.905434 
L 294.42635 85.503647 
L 294.576375 96.98124 
L 294.7264 89.047756 
L 294.876425 97.049836 
L 295.02645 63.168224 
L 295.176476 106.375822 
L 295.326501 92.221056 
L 295.476526 102.659457 
L 295.626551 92.45281 
L 295.776576 92.571 
L 295.926602 79.396368 
L 296.076627 81.330992 
L 296.376677 91.433018 
L 296.676728 81.502552 
L 296.976778 87.84545 
L 297.126803 64.163317 
L 297.276828 88.906604 
L 297.426854 85.151644 
L 297.576879 99.271742 
L 297.726904 88.804396 
L 297.876929 90.188539 
L 298.026955 101.473151 
L 298.17698 84.411142 
L 298.327005 101.25478 
L 298.47703 82.354253 
L 298.777081 91.32565 
L 298.927106 66.915138 
L 299.077131 114.184822 
L 299.377181 81.605646 
L 299.677232 96.92157 
L 299.827257 68.26895 
L 299.977282 70.872911 
L 300.127307 78.651095 
L 300.277333 79.647795 
L 300.427358 90.749785 
L 300.577383 82.668019 
L 300.877433 99.847391 
L 301.027459 106.697245 
L 301.177484 99.879723 
L 301.327509 67.11781 
L 301.477534 94.703842 
L 301.627559 82.001509 
L 301.777585 83.22985 
L 301.92761 96.283188 
L 302.077635 87.326789 
L 302.22766 87.574893 
L 302.377685 94.514597 
L 302.527711 84.504984 
L 302.677736 90.939023 
L 302.827761 79.486968 
L 302.977786 91.694982 
L 303.127812 87.833428 
L 303.277837 99.940975 
L 303.427862 101.363474 
L 303.577887 72.97825 
L 303.727912 86.607632 
L 303.877938 113.256852 
L 304.177988 79.290273 
L 304.328013 107.719522 
L 304.628064 64.220726 
L 304.778089 83.027681 
L 304.928114 87.623556 
L 305.228164 82.546947 
L 305.37819 108.442892 
L 305.528215 76.588213 
L 305.67824 80.005452 
L 305.97829 93.506261 
L 306.128316 94.659672 
L 306.278341 109.405769 
L 306.578391 90.711146 
L 306.728416 71.553273 
L 306.878442 100.495559 
L 307.178492 69.355734 
L 307.328517 96.806493 
L 307.478542 96.641275 
L 307.628568 88.88299 
L 307.778593 74.559077 
L 307.928618 110.148284 
L 308.078643 76.684073 
L 308.228669 76.372467 
L 308.378694 96.719963 
L 308.528719 78.396375 
L 308.678744 104.225729 
L 308.828769 84.648818 
L 309.12882 101.693882 
L 309.278845 77.763586 
L 309.42887 86.415883 
L 309.578895 88.095442 
L 309.728921 94.261921 
L 309.878946 115.167121 
L 310.028971 90.355698 
L 310.178996 88.848599 
L 310.329021 95.762561 
L 310.479047 94.645084 
L 310.629072 77.377723 
L 310.779097 98.561794 
L 310.929122 82.996554 
L 311.079147 84.288896 
L 311.229173 77.613484 
L 311.379198 54.639703 
L 311.529223 95.970948 
L 311.679248 74.882091 
L 311.979299 103.325601 
L 312.129324 100.681656 
L 312.279349 91.454853 
L 312.429374 94.32949 
L 312.87945 78.847484 
L 313.029475 97.280126 
L 313.1795 83.071877 
L 313.329525 82.310867 
L 313.479551 84.333604 
L 313.779601 113.301213 
L 314.079652 86.769185 
L 314.229677 99.260321 
L 314.379702 82.079153 
L 314.529727 94.314701 
L 314.679752 75.81058 
L 314.829778 90.144766 
L 314.979803 76.430031 
L 315.129828 81.142811 
L 315.429878 104.774473 
L 315.579904 103.191109 
L 315.729929 98.141412 
L 315.879954 102.755944 
L 316.029979 81.386473 
L 316.33003 103.490896 
L 316.480055 82.976633 
L 316.63008 107.563647 
L 316.780105 98.935035 
L 316.93013 77.716631 
L 317.080156 100.215265 
L 317.230181 74.361733 
L 317.380206 95.633551 
L 317.530231 79.421044 
L 317.830282 117.449417 
L 317.980307 66.896106 
L 318.130332 104.419259 
L 318.280357 81.751297 
L 318.430382 98.319494 
L 318.580408 89.966359 
L 318.730433 101.914704 
L 318.880458 88.614109 
L 319.030483 95.383399 
L 319.180509 110.667274 
L 319.480559 78.522903 
L 319.630584 100.746302 
L 319.930635 85.314857 
L 320.08066 81.578322 
L 320.38071 96.998073 
L 320.530735 86.322395 
L 320.680761 86.76833 
L 320.830786 78.288362 
L 321.130836 112.436503 
L 321.430887 73.262726 
L 321.580912 101.602263 
L 321.730937 99.769009 
L 322.030987 104.108006 
L 322.181013 89.415453 
L 322.331038 91.858967 
L 322.481063 98.866498 
L 322.631088 88.714327 
L 322.781113 99.273218 
L 322.931139 88.973477 
L 323.081164 91.946943 
L 323.231189 97.247992 
L 323.381214 88.796339 
L 323.531239 97.33952 
L 323.681265 90.7359 
L 323.83129 106.024469 
L 323.981315 78.455606 
L 324.13134 91.972426 
L 324.281366 90.264011 
L 324.431391 58.852441 
L 324.581416 99.474196 
L 324.731441 82.933858 
L 324.881466 85.750077 
L 325.181517 78.508014 
L 325.331542 90.747888 
L 325.481567 81.655032 
L 325.631592 110.421198 
L 325.931643 83.033608 
L 326.231693 106.750274 
L 326.381718 77.831181 
L 326.531744 95.283807 
L 326.681769 97.898068 
L 326.831794 83.398426 
L 326.981819 90.945908 
L 327.131844 88.835663 
L 327.28187 102.92023 
L 327.431895 85.433648 
L 327.58192 99.64041 
L 327.731945 90.930199 
L 327.88197 101.456418 
L 328.031996 74.579956 
L 328.182021 81.636874 
L 328.332046 102.375593 
L 328.482071 99.439066 
L 328.632096 100.682904 
L 328.782122 85.948209 
L 328.932147 98.792732 
L 329.082172 80.267697 
L 329.232197 99.757132 
L 329.382223 94.032991 
L 329.532248 96.024861 
L 329.682273 69.422597 
L 329.982323 107.562444 
L 330.132349 95.282087 
L 330.282374 94.376998 
L 330.432399 103.942715 
L 330.582424 62.767953 
L 330.732449 101.897136 
L 330.882475 85.750732 
L 331.0325 96.338918 
L 331.182525 67.946666 
L 331.482575 89.877648 
L 331.632601 76.95269 
L 331.932651 96.363573 
L 332.082676 72.014529 
L 332.232701 94.098102 
L 332.382727 72.454355 
L 332.682777 80.17655 
L 332.832802 97.54434 
L 332.982827 74.169399 
L 333.132853 86.294058 
L 333.282878 88.890456 
L 333.432903 81.546608 
L 333.582928 90.212058 
L 333.732953 87.905489 
L 334.183029 101.17995 
L 334.333054 79.615934 
L 334.48308 75.856655 
L 334.78313 100.728195 
L 334.933155 100.847669 
L 335.08318 97.730192 
L 335.233206 109.779019 
L 335.383231 74.430329 
L 335.683281 91.58537 
L 335.833306 76.244706 
L 335.983332 91.525657 
L 336.133357 90.450313 
L 336.283382 100.83601 
L 336.433407 81.154238 
L 336.583432 83.430588 
L 336.883483 103.932985 
L 337.033508 87.875279 
L 337.183533 95.01156 
L 337.333558 73.129213 
L 337.483584 84.69779 
L 337.633609 82.83137 
L 337.783634 107.458233 
L 337.933659 91.620914 
L 338.083684 89.116355 
L 338.23371 102.897619 
L 338.383735 78.90595 
L 338.53376 73.766141 
L 338.683785 63.581801 
L 338.983836 104.011536 
L 339.283886 86.076371 
L 339.433911 86.326449 
L 339.583937 86.684162 
L 339.733962 89.273762 
L 340.034012 73.695234 
L 340.184037 96.304561 
L 340.484088 68.713356 
L 340.634113 110.907254 
L 340.784138 76.19499 
L 341.084189 100.993263 
L 341.234214 103.604656 
L 341.384239 103.759618 
L 341.534264 77.002397 
L 341.684289 117.97428 
L 341.834315 94.643157 
L 341.98434 102.43283 
L 342.28439 76.681076 
L 342.434415 109.453956 
L 342.584441 84.55565 
L 342.884491 100.885623 
L 343.034516 71.524174 
L 343.334567 103.291718 
L 343.484592 74.554534 
L 343.784642 88.644989 
L 343.934667 110.889947 
L 344.234718 85.999422 
L 344.384743 73.712025 
L 344.534768 77.390972 
L 344.684794 107.288698 
L 344.834819 81.842675 
L 344.984844 96.151448 
L 345.134869 94.875466 
L 345.284894 79.895222 
L 345.43492 76.14174 
L 345.584945 96.295689 
L 345.884995 79.547455 
L 346.03502 72.374132 
L 346.185046 100.923561 
L 346.335071 89.538251 
L 346.485096 88.684325 
L 346.635121 93.432955 
L 346.785146 86.381739 
L 346.935172 88.591301 
L 347.085197 83.802091 
L 347.235222 102.713045 
L 347.385247 105.810902 
L 347.535272 80.582153 
L 347.685298 100.344501 
L 347.985348 81.130116 
L 348.135373 70.353651 
L 348.285398 103.941104 
L 348.435424 87.747821 
L 348.735474 95.072542 
L 348.885499 93.713385 
L 349.035524 84.481818 
L 349.18555 82.290526 
L 349.335575 76.812441 
L 349.4856 87.280083 
L 349.635625 85.182453 
L 349.785651 66.610162 
L 349.935676 70.952728 
L 350.085701 88.647069 
L 350.235726 90.500217 
L 350.385751 109.525525 
L 350.685802 106.972808 
L 350.835827 68.049965 
L 350.985852 81.790098 
L 351.135877 78.728616 
L 351.435928 85.854345 
L 351.585953 101.77962 
L 351.735978 72.640873 
L 352.036029 102.031605 
L 352.186054 99.901602 
L 352.336079 99.769324 
L 352.486104 108.341077 
L 352.636129 89.955434 
L 352.786155 104.337306 
L 352.93618 90.367333 
L 353.086205 92.570349 
L 353.386255 79.607744 
L 353.536281 84.703658 
L 353.686306 117.652464 
L 353.836331 109.718561 
L 353.986356 93.847237 
L 354.136381 99.442373 
L 354.286407 83.541537 
L 354.436432 91.867026 
L 354.586457 106.651714 
L 354.736482 102.293172 
L 354.886508 103.859977 
L 355.036533 78.220411 
L 355.186558 98.521437 
L 355.486608 72.130113 
L 355.636634 76.220756 
L 355.786659 83.880025 
L 355.936684 103.963607 
L 356.086709 94.652909 
L 356.236734 93.118616 
L 356.38676 80.650807 
L 356.536785 79.039034 
L 356.68681 84.514879 
L 356.836835 95.554167 
L 356.98686 71.893555 
L 357.136886 93.550041 
L 357.286911 82.461771 
L 357.436936 96.104116 
L 357.586961 92.584149 
L 357.736986 95.637801 
L 357.887012 113.08956 
L 358.337087 94.470678 
L 358.487112 99.219517 
L 358.637138 86.774139 
L 358.787163 91.634895 
L 358.937188 104.315529 
L 359.237238 86.613165 
L 359.387264 96.510041 
L 359.687314 89.70295 
L 359.987365 100.460887 
L 360.287415 131.944069 
L 360.43744 138.367316 
L 360.587465 115.413182 
L 360.887516 126.538606 
L 361.037541 143.595725 
L 361.187566 124.596997 
L 361.337591 133.540108 
L 361.487617 132.798881 
L 361.637642 127.728814 
L 361.787667 148.840201 
L 361.937692 139.269605 
L 362.087717 118.534372 
L 362.237743 132.446853 
L 362.387768 135.419384 
L 362.537793 134.40526 
L 362.687818 117.738648 
L 362.837843 148.814142 
L 362.987869 151.851771 
L 363.137894 147.213885 
L 363.437944 123.768538 
L 363.737995 132.18265 
L 363.88802 130.937509 
L 364.038045 131.895219 
L 364.18807 134.468635 
L 364.338095 130.430767 
L 364.488121 133.970111 
L 364.638146 124.791861 
L 364.788171 138.181462 
L 364.938196 110.928393 
L 365.388272 149.974242 
L 365.538297 133.180737 
L 365.688322 129.862966 
L 365.988373 153.005693 
L 366.138398 138.86273 
L 366.288423 111.156401 
L 366.438448 112.363689 
L 366.588474 136.708154 
L 366.738499 130.059251 
L 366.888524 142.967019 
L 367.188574 131.42268 
L 367.488625 142.277604 
L 367.63865 120.296376 
L 367.788675 141.422947 
L 367.9387 140.619205 
L 368.088726 134.494861 
L 368.238751 119.737139 
L 368.388776 147.022349 
L 368.538801 117.72332 
L 368.688826 131.912905 
L 368.838852 123.531998 
L 368.988877 129.712019 
L 369.138902 112.927116 
L 369.288927 150.486832 
L 369.438952 125.729671 
L 369.588978 140.57812 
L 369.739003 135.262546 
L 369.889028 123.484255 
L 370.039053 136.09669 
L 370.189079 124.254186 
L 370.339104 123.51292 
L 370.489129 144.296781 
L 370.639154 117.386274 
L 370.789179 118.958108 
L 370.939205 133.46963 
L 371.08923 123.521399 
L 371.239255 122.852523 
L 371.38928 135.041875 
L 371.539305 117.493511 
L 371.689331 137.411699 
L 371.839356 126.610542 
L 372.139406 129.287476 
L 372.289431 112.892774 
L 372.439457 124.297774 
L 372.589482 152.948903 
L 372.739507 133.164458 
L 372.889532 140.05346 
L 373.039557 134.393167 
L 373.189583 132.957049 
L 373.339608 133.038913 
L 373.489633 115.231466 
L 373.639658 144.190471 
L 373.789683 127.08189 
L 373.939709 130.201857 
L 374.089734 118.308455 
L 374.239759 146.406969 
L 374.389784 142.763933 
L 374.539809 128.046247 
L 374.689835 134.454165 
L 374.83986 154.40322 
L 375.13991 136.42196 
L 375.289936 129.99206 
L 375.439961 131.586861 
L 375.589986 123.121823 
L 375.740011 122.808516 
L 375.890036 141.914665 
L 376.190087 110.184156 
L 376.340112 139.383024 
L 376.490137 124.426375 
L 376.640162 149.193258 
L 376.790188 127.102204 
L 376.940213 128.576318 
L 377.090238 138.59529 
L 377.240263 99.491982 
L 377.540314 155.053748 
L 377.840364 118.884557 
L 377.990389 125.613207 
L 378.140414 139.005905 
L 378.29044 141.544025 
L 378.440465 132.056764 
L 378.59049 132.663236 
L 378.740515 138.110724 
L 378.89054 137.029308 
L 379.190591 119.139649 
L 379.340616 132.635543 
L 379.490641 131.914868 
L 379.640666 115.732436 
L 379.790692 137.576936 
L 379.940717 129.172921 
L 380.090742 131.933955 
L 380.240767 124.844049 
L 380.390793 125.227862 
L 380.540818 146.403209 
L 380.690843 126.008962 
L 380.840868 160.686447 
L 381.140919 124.355808 
L 381.290944 140.270161 
L 381.590994 130.835593 
L 381.741019 126.295234 
L 381.891045 134.785646 
L 382.04107 121.194582 
L 382.34112 146.029224 
L 382.491145 122.692473 
L 382.641171 118.846656 
L 382.791196 123.466162 
L 382.941221 144.3874 
L 383.241271 110.625713 
L 383.541322 122.400725 
L 383.691347 119.695323 
L 383.841372 124.935424 
L 383.991397 143.368554 
L 384.141423 141.045439 
L 384.291448 125.396183 
L 384.741523 135.550088 
L 385.041574 110.986849 
L 385.191599 116.946588 
L 385.341624 136.258394 
L 385.49165 121.102605 
L 385.641675 144.982161 
L 385.7917 137.166156 
L 385.941725 137.6565 
L 386.09175 132.177574 
L 386.241776 135.959961 
L 386.391801 127.035118 
L 386.541826 145.99491 
L 386.841876 126.443167 
L 386.991902 138.810001 
L 387.291952 118.863734 
L 387.441977 137.177335 
L 387.592002 135.215613 
L 387.742028 137.115043 
L 387.892053 146.846742 
L 388.042078 141.370449 
L 388.192103 140.989878 
L 388.342128 153.254329 
L 388.492154 133.836845 
L 388.642179 135.887526 
L 388.792204 110.525915 
L 388.942229 142.328799 
L 389.092254 137.418617 
L 389.24228 145.593472 
L 389.54233 119.144677 
L 389.692355 129.52203 
L 389.84238 130.162476 
L 389.992406 129.355324 
L 390.142431 135.08754 
L 390.292456 130.782063 
L 390.442481 147.564657 
L 390.592507 126.348794 
L 390.742532 130.518635 
L 390.892557 117.833257 
L 391.042582 134.494788 
L 391.192607 138.322105 
L 391.342633 153.271891 
L 391.492658 121.009447 
L 391.642683 113.187967 
L 391.792708 120.601626 
L 391.942733 112.515476 
L 392.092759 133.936851 
L 392.242784 125.813241 
L 392.392809 137.562352 
L 392.542834 123.700444 
L 392.692859 125.704083 
L 392.842885 116.994897 
L 392.99291 122.742593 
L 393.142935 139.488032 
L 393.29296 121.033357 
L 393.442985 130.085213 
L 393.593011 124.827203 
L 393.743036 137.422483 
L 393.893061 118.550138 
L 394.043086 122.571899 
L 394.343137 138.441591 
L 394.493162 129.340041 
L 394.643187 131.273715 
L 394.793212 114.694316 
L 394.943237 139.76948 
L 395.243288 115.027303 
L 395.393313 118.329873 
L 395.543338 140.9553 
L 395.693364 128.387546 
L 395.843389 137.360449 
L 395.993414 124.206861 
L 396.293464 129.765959 
L 396.44349 124.093283 
L 396.593515 127.881229 
L 396.74354 121.739494 
L 396.893565 135.49936 
L 397.04359 125.191734 
L 397.193616 133.240062 
L 397.343641 124.748723 
L 397.493666 129.79787 
L 397.643691 139.962444 
L 397.793716 139.440201 
L 397.943742 125.745295 
L 398.093767 131.548737 
L 398.243792 142.655965 
L 398.393817 126.174852 
L 398.543842 133.381952 
L 398.693868 124.049079 
L 398.843893 131.84708 
L 398.993918 131.697611 
L 399.143943 115.798624 
L 399.293968 139.461586 
L 399.443994 130.807169 
L 399.594019 135.930364 
L 399.744044 127.446147 
L 399.894069 137.223845 
L 400.044094 121.140097 
L 400.19412 149.788434 
L 400.344145 135.682965 
L 400.644195 137.301159 
L 400.794221 130.006486 
L 400.944246 130.86253 
L 401.094271 120.050399 
L 401.244296 134.926078 
L 401.394321 133.615284 
L 401.544347 147.974446 
L 401.994422 126.60487 
L 402.144447 138.039579 
L 402.294473 125.015966 
L 402.444498 129.656766 
L 402.594523 162.867273 
L 402.894573 125.457325 
L 403.044599 144.530672 
L 403.194624 127.714738 
L 403.344649 129.106399 
L 403.494674 148.114798 
L 403.644699 113.767054 
L 403.794725 120.794278 
L 403.94475 118.438031 
L 404.094775 119.460007 
L 404.2448 97.835644 
L 404.544851 150.295939 
L 404.694876 152.406871 
L 404.844901 136.75036 
L 404.994926 132.838887 
L 405.144951 132.038694 
L 405.294977 135.914097 
L 405.445002 118.943108 
L 405.595027 124.190883 
L 405.745052 115.853984 
L 405.895078 153.139522 
L 406.195128 141.289749 
L 406.345153 142.511295 
L 406.495178 121.910014 
L 406.645204 142.313341 
L 406.795229 138.004633 
L 406.945254 121.962909 
L 407.095279 124.085912 
L 407.245304 135.687872 
L 407.39533 120.034653 
L 407.545355 117.861996 
L 407.69538 136.640867 
L 407.99543 117.747624 
L 408.295481 129.168862 
L 408.445506 107.795436 
L 408.595531 148.157122 
L 408.745556 137.846056 
L 408.895582 112.469359 
L 409.045607 124.914933 
L 409.195632 124.867741 
L 409.345657 128.43065 
L 409.495682 129.145548 
L 409.645708 136.326024 
L 409.795733 133.931025 
L 409.945758 116.886146 
L 410.095783 141.809821 
L 410.245808 142.807171 
L 410.395834 153.223564 
L 410.695884 130.439817 
L 410.845909 126.398732 
L 410.995935 131.071531 
L 411.14596 149.149233 
L 411.295985 108.126956 
L 411.44601 129.855614 
L 411.746061 137.554959 
L 411.896086 137.533532 
L 412.196136 111.022742 
L 412.346161 130.953191 
L 412.496187 127.002478 
L 412.946262 139.903207 
L 413.096287 137.16677 
L 413.246313 130.092299 
L 413.396338 131.164254 
L 413.546363 138.638812 
L 413.696388 159.551165 
L 413.996439 127.916985 
L 414.296489 134.891365 
L 414.446514 143.182839 
L 414.596539 136.175988 
L 414.746565 123.439172 
L 415.046615 136.137878 
L 415.19664 133.559805 
L 415.346665 114.254749 
L 415.496691 120.632619 
L 415.796741 151.487304 
L 416.096792 133.539585 
L 416.246817 132.850152 
L 416.396842 129.354144 
L 416.546867 139.830938 
L 416.846918 118.343132 
L 416.996943 119.310474 
L 417.146968 145.118296 
L 417.296993 122.796445 
L 417.747069 147.620375 
L 418.047119 126.388955 
L 418.197144 128.125269 
L 418.497195 144.842568 
L 418.64722 120.130048 
L 418.797245 137.510769 
L 418.94727 126.703852 
L 419.097296 126.636318 
L 419.247321 124.006292 
L 419.397346 140.404296 
L 419.697396 136.078118 
L 419.847422 116.787342 
L 419.997447 143.022531 
L 420.147472 126.810198 
L 420.297497 135.04402 
L 420.447522 124.173288 
L 420.597548 131.151456 
L 420.747573 119.226597 
L 420.897598 134.181073 
L 421.047623 123.781139 
L 421.197649 124.176348 
L 421.347674 121.879091 
L 421.497699 113.988252 
L 421.647724 149.477785 
L 421.797749 124.580251 
L 422.0978 131.054801 
L 422.247825 145.970132 
L 422.39785 121.470216 
L 422.697901 133.742367 
L 422.847926 120.609187 
L 423.448027 144.239021 
L 423.598052 138.502688 
L 423.748077 111.231105 
L 423.898102 141.508703 
L 424.048127 138.763492 
L 424.198153 133.096582 
L 424.498203 138.24602 
L 424.648228 152.380926 
L 424.798253 129.588343 
L 424.948279 127.289843 
L 425.098304 136.055147 
L 425.248329 133.045082 
L 425.398354 119.072383 
L 425.548379 149.133494 
L 425.698405 117.72437 
L 425.84843 119.799775 
L 425.998455 145.41386 
L 426.14848 136.303669 
L 426.298506 143.265448 
L 426.448531 129.937549 
L 426.598556 139.56979 
L 426.748581 125.860941 
L 426.898606 124.821247 
L 427.048632 119.182387 
L 427.198657 121.535187 
L 427.348682 121.192207 
L 427.498707 122.055869 
L 427.798758 141.005098 
L 427.948783 121.87734 
L 428.098808 130.145262 
L 428.248833 111.746847 
L 428.398858 134.037519 
L 428.548884 132.917987 
L 428.698909 144.530071 
L 428.848934 137.923528 
L 428.998959 141.576918 
L 429.29901 134.102286 
L 429.449035 117.450822 
L 429.59906 131.460984 
L 429.749085 129.365479 
L 429.89911 112.062792 
L 430.049136 131.649172 
L 430.199161 128.023594 
L 430.349186 140.636113 
L 430.499211 137.088184 
L 430.649236 127.091803 
L 430.949287 133.79584 
L 431.099312 145.046792 
L 431.399363 115.306178 
L 431.699413 133.359256 
L 431.849438 123.368335 
L 431.999463 130.729058 
L 432.149489 132.329458 
L 432.299514 111.934131 
L 432.449539 111.071405 
L 432.599564 132.228394 
L 432.749589 116.447467 
L 432.899615 138.806342 
L 433.04964 131.350513 
L 433.34969 129.935865 
L 433.499715 134.044834 
L 433.649741 130.421744 
L 433.799766 139.089706 
L 433.949791 132.374846 
L 434.099816 131.440138 
L 434.249841 114.603493 
L 434.399867 137.600479 
L 434.549892 126.077438 
L 434.699917 143.171874 
L 434.849942 137.826172 
L 434.999967 120.897816 
L 435.149993 135.0697 
L 435.300018 123.014659 
L 435.450043 128.798311 
L 435.600068 141.174225 
L 435.750093 125.228958 
L 435.900119 144.555249 
L 436.050144 143.082599 
L 436.350194 122.480344 
L 436.50022 135.918072 
L 436.650245 113.349828 
L 436.80027 129.036106 
L 436.950295 129.522664 
L 437.10032 145.114905 
L 437.250346 133.256224 
L 437.400371 136.201859 
L 437.550396 132.058138 
L 437.700421 116.80002 
L 438.000472 150.06655 
L 438.300522 134.95525 
L 438.450547 138.645565 
L 438.750598 107.843231 
L 438.900623 134.807541 
L 439.050648 134.914528 
L 439.200673 122.044726 
L 439.350698 122.912096 
L 439.500724 132.413444 
L 439.650749 125.48148 
L 439.800774 146.924797 
L 439.950799 128.440433 
L 440.100824 128.111298 
L 440.25085 119.883991 
L 440.400875 142.624243 
L 440.5509 146.669863 
L 440.700925 127.244202 
L 441.000976 131.578653 
L 441.151001 139.028744 
L 441.301026 127.913665 
L 441.451051 128.543664 
L 441.601076 133.814116 
L 441.751102 150.082919 
L 442.051152 125.161684 
L 442.501228 139.02224 
L 442.651253 133.406666 
L 442.801278 138.277726 
L 442.951303 128.354268 
L 443.101329 130.363096 
L 443.251354 109.344018 
L 443.401379 160.567993 
L 443.551404 137.323061 
L 443.701429 145.529714 
L 443.851455 141.828224 
L 444.00148 116.196444 
L 444.151505 131.181938 
L 444.30153 117.20908 
L 444.451555 118.97461 
L 444.601581 144.8587 
L 444.751606 119.940929 
L 444.901631 118.228785 
L 445.351707 132.715241 
L 445.501732 121.654754 
L 445.651757 142.613889 
L 445.801782 119.073734 
L 446.101833 147.102469 
L 446.251858 116.967677 
L 446.401883 132.131693 
L 446.701933 128.754652 
L 446.851959 134.016188 
L 447.152009 130.09945 
L 447.302034 119.311047 
L 447.45206 120.346656 
L 447.75211 138.55279 
L 447.902135 132.987445 
L 448.05216 137.28049 
L 448.202186 122.858096 
L 448.352211 134.169896 
L 448.502236 135.449198 
L 448.652261 133.610152 
L 448.952312 120.891866 
L 449.102337 122.066139 
L 449.552412 140.787249 
L 449.702438 128.708987 
L 450.002488 130.281764 
L 450.152513 111.202538 
L 450.302538 140.145851 
L 450.452564 122.782282 
L 450.752614 144.890878 
L 450.902639 144.672114 
L 451.052664 144.049385 
L 451.20269 141.587628 
L 451.50274 112.344793 
L 451.652765 119.732358 
L 451.80279 145.916673 
L 451.952816 121.274806 
L 452.102841 122.212441 
L 452.102841 122.212441 
" style="fill:none;stroke:#1f77b4;stroke-linecap:square;stroke-width:0.5;"/>
   </g>
   <g id="line2d_13">
    <path clip-path="url(#pa2899838b3)" d="M 83.340885 170.28 
L 83.340885 7.2 
" style="fill:none;stroke:#d62728;stroke-dasharray:1.5,2.475;stroke-dashoffset:0;stroke-width:1.5;"/>
   </g>
   <g id="line2d_14">
    <path clip-path="url(#pa2899838b3)" d="M 174.406185 170.28 
L 174.406185 7.2 
" style="fill:none;stroke:#d62728;stroke-dasharray:1.5,2.475;stroke-dashoffset:0;stroke-width:1.5;"/>
   </g>
   <g id="line2d_15">
    <path clip-path="url(#pa2899838b3)" d="M 260.370628 170.28 
L 260.370628 7.2 
" style="fill:none;stroke:#d62728;stroke-dasharray:1.5,2.475;stroke-dashoffset:0;stroke-width:1.5;"/>
   </g>
   <g id="line2d_16">
    <path clip-path="url(#pa2899838b3)" d="M 359.987365 170.28 
L 359.987365 7.2 
" style="fill:none;stroke:#d62728;stroke-dasharray:1.5,2.475;stroke-dashoffset:0;stroke-width:1.5;"/>
   </g>
   <g id="patch_3">
    <path d="M 25.99375 170.28 
L 25.99375 7.2 
" style="fill:none;stroke:#000000;stroke-linecap:square;stroke-linejoin:miter;stroke-width:0.8;"/>
   </g>
   <g id="patch_4">
    <path d="M 472.39375 170.28 
L 472.39375 7.2 
" style="fill:none;stroke:#000000;stroke-linecap:square;stroke-linejoin:miter;stroke-width:0.8;"/>
   </g>
   <g id="patch_5">
    <path d="M 25.99375 170.28 
L 472.39375 170.28 
" style="fill:none;stroke:#000000;stroke-linecap:square;stroke-linejoin:miter;stroke-width:0.8;"/>
   </g>
   <g id="patch_6">
    <path d="M 25.99375 7.2 
L 472.39375 7.2 
" style="fill:none;stroke:#000000;stroke-linecap:square;stroke-linejoin:miter;stroke-width:0.8;"/>
   </g>
  </g>
 </g>
 <defs>
  <clipPath id="pa2899838b3">
   <rect height="163.08" width="446.4" x="25.99375" y="7.2"/>
  </clipPath>
 </defs>
</svg>
