<?xml version="1.0" encoding="utf-8" standalone="no"?>
<!DOCTYPE svg PUBLIC "-//W3C//DTD SVG 1.1//EN"
  "http://www.w3.org/Graphics/SVG/1.1/DTD/svg11.dtd">
<svg height="192.2225pt" version="1.1" viewBox="0 0 472.89 192.2225" width="472.89pt" xmlns="http://www.w3.org/2000/svg" xmlns:xlink="http://www.w3.org/1999/xlink">
 <metadata>
  <rdf:RDF xmlns:cc="http://creativecommons.org/ns#" xmlns:dc="http://purl.org/dc/elements/1.1/" xmlns:rdf="http://www.w3.org/1999/02/22-rdf-syntax-ns#">
   <cc:Work>
    <dc:type rdf:resource="http://purl.org/dc/dcmitype/StillImage"/>
    <dc:date>2021-06-23T09:52:39.145485</dc:date>
    <dc:format>image/svg+xml</dc:format>
    <dc:creator>
     <cc:Agent>
      <dc:title>Matplotlib v3.4.2, https://matplotlib.org/</dc:title>
     </cc:Agent>
    </dc:creator>
   </cc:Work>
  </rdf:RDF>
 </metadata>
 <defs>
  <style type="text/css">*{stroke-linecap:butt;stroke-linejoin:round;}</style>
 </defs>
 <g id="figure_1">
  <g id="patch_1">
   <path d="M 0 192.2225 
L 472.89 192.2225 
L 472.89 0 
L 0 0 
z
" style="fill:none;"/>
  </g>
  <g id="axes_1">
   <g id="patch_2">
    <path d="M 19.29 170.28 
L 465.69 170.28 
L 465.69 7.2 
L 19.29 7.2 
z
" style="fill:#ffffff;"/>
   </g>
   <g id="PolyCollection_1">
    <defs>
     <path d="M 371.47682 -79.416572 
L 371.47682 -41.674431 
L 372.985438 -41.357147 
L 374.494055 -41.05499 
L 376.002673 -40.784204 
L 377.511291 -40.552394 
L 379.019909 -40.339261 
L 380.528527 -40.132847 
L 382.037144 -39.91736 
L 383.545762 -39.69281 
L 385.05438 -39.452381 
L 386.562998 -39.188978 
L 388.071615 -38.889613 
L 389.580233 -38.586809 
L 391.088851 -38.276544 
L 392.597469 -37.980839 
L 394.106087 -37.715322 
L 395.614704 -37.487305 
L 397.123322 -37.277237 
L 398.63194 -37.073609 
L 400.140558 -36.861225 
L 401.649175 -36.640099 
L 403.157793 -36.403678 
L 404.666411 -36.145145 
L 406.175029 -35.852022 
L 407.683647 -35.555588 
L 409.192264 -35.251982 
L 410.700882 -34.96237 
L 412.2095 -34.701769 
L 413.718118 -34.477193 
L 415.226735 -34.269845 
L 416.735353 -34.06866 
L 418.243971 -33.85904 
L 419.752589 -33.641002 
L 421.261206 -33.408257 
L 422.769824 -33.154266 
L 424.278442 -32.867058 
L 425.78706 -32.576673 
L 427.295678 -32.279405 
L 428.804295 -31.995572 
L 430.312913 -31.739574 
L 431.821531 -31.518131 
L 433.330149 -31.313195 
L 434.838766 -31.11415 
L 436.347384 -30.906994 
L 437.856002 -30.691747 
L 439.36462 -30.462383 
L 440.873238 -30.212642 
L 442.381855 -29.931061 
L 443.890473 -29.646439 
L 445.399091 -29.355227 
L 445.399091 -84.530592 
L 445.399091 -84.530592 
L 443.890473 -84.482658 
L 442.381855 -84.427504 
L 440.873238 -84.368676 
L 439.36462 -84.277368 
L 437.856002 -84.165041 
L 436.347384 -84.037953 
L 434.838766 -83.902124 
L 433.330149 -83.757532 
L 431.821531 -83.618174 
L 430.312913 -83.494664 
L 428.804295 -83.405043 
L 427.295678 -83.342591 
L 425.78706 -83.292901 
L 424.278442 -83.235653 
L 422.769824 -83.174548 
L 421.261206 -83.079543 
L 419.752589 -82.962604 
L 418.243971 -82.830266 
L 416.735353 -82.688814 
L 415.226735 -82.538227 
L 413.718118 -82.393099 
L 412.2095 -82.264491 
L 410.700882 -82.171194 
L 409.192264 -82.106192 
L 407.683647 -82.054462 
L 406.175029 -81.994833 
L 404.666411 -81.931165 
L 403.157793 -81.83217 
L 401.649175 -81.710325 
L 400.140558 -81.57244 
L 398.63194 -81.425064 
L 397.123322 -81.26818 
L 395.614704 -81.116977 
L 394.106087 -80.98296 
L 392.597469 -80.885675 
L 391.088851 -80.817806 
L 389.580233 -80.763718 
L 388.071615 -80.701387 
L 386.562998 -80.634829 
L 385.05438 -80.531516 
L 383.545762 -80.404432 
L 382.037144 -80.260665 
L 380.528527 -80.107026 
L 379.019909 -79.9435 
L 377.511291 -79.785875 
L 376.002673 -79.646101 
L 374.494055 -79.544473 
L 372.985438 -79.47338 
L 371.47682 -79.416572 
z
" id="m558447856d" style="stroke:#7f7f7f;stroke-opacity:0.2;"/>
    </defs>
    <g clip-path="url(#p84e70af19e)">
     <use style="fill:#7f7f7f;fill-opacity:0.2;stroke:#7f7f7f;stroke-opacity:0.2;" x="0" xlink:href="#m558447856d" y="192.2225"/>
    </g>
   </g>
   <g id="matplotlib.axis_1">
    <g id="xtick_1">
     <g id="line2d_1">
      <defs>
       <path d="M 0 0 
L 0 3.5 
" id="mdec098ea38" style="stroke:#000000;stroke-width:0.8;"/>
      </defs>
      <g>
       <use style="stroke:#000000;stroke-width:0.8;" x="39.580909" xlink:href="#mdec098ea38" y="170.28"/>
      </g>
     </g>
     <g id="text_1">
      <!-- 0 -->
      <g transform="translate(37.035909 183.35875)scale(0.08 -0.08)">
       <defs>
        <path d="M 2034 4250 
Q 1547 4250 1301 3770 
Q 1056 3291 1056 2328 
Q 1056 1369 1301 889 
Q 1547 409 2034 409 
Q 2525 409 2770 889 
Q 3016 1369 3016 2328 
Q 3016 3291 2770 3770 
Q 2525 4250 2034 4250 
z
M 2034 4750 
Q 2819 4750 3233 4129 
Q 3647 3509 3647 2328 
Q 3647 1150 3233 529 
Q 2819 -91 2034 -91 
Q 1250 -91 836 529 
Q 422 1150 422 2328 
Q 422 3509 836 4129 
Q 1250 4750 2034 4750 
z
" id="DejaVuSans-30" transform="scale(0.015625)"/>
       </defs>
       <use xlink:href="#DejaVuSans-30"/>
      </g>
     </g>
    </g>
    <g id="xtick_2">
     <g id="line2d_2">
      <g>
       <use style="stroke:#000000;stroke-width:0.8;" x="115.011798" xlink:href="#mdec098ea38" y="170.28"/>
      </g>
     </g>
     <g id="text_2">
      <!-- 50 -->
      <g transform="translate(109.921798 183.35875)scale(0.08 -0.08)">
       <defs>
        <path d="M 691 4666 
L 3169 4666 
L 3169 4134 
L 1269 4134 
L 1269 2991 
Q 1406 3038 1543 3061 
Q 1681 3084 1819 3084 
Q 2600 3084 3056 2656 
Q 3513 2228 3513 1497 
Q 3513 744 3044 326 
Q 2575 -91 1722 -91 
Q 1428 -91 1123 -41 
Q 819 9 494 109 
L 494 744 
Q 775 591 1075 516 
Q 1375 441 1709 441 
Q 2250 441 2565 725 
Q 2881 1009 2881 1497 
Q 2881 1984 2565 2268 
Q 2250 2553 1709 2553 
Q 1456 2553 1204 2497 
Q 953 2441 691 2322 
L 691 4666 
z
" id="DejaVuSans-35" transform="scale(0.015625)"/>
       </defs>
       <use xlink:href="#DejaVuSans-35"/>
       <use x="63.623047" xlink:href="#DejaVuSans-30"/>
      </g>
     </g>
    </g>
    <g id="xtick_3">
     <g id="line2d_3">
      <g>
       <use style="stroke:#000000;stroke-width:0.8;" x="190.442687" xlink:href="#mdec098ea38" y="170.28"/>
      </g>
     </g>
     <g id="text_3">
      <!-- 100 -->
      <g transform="translate(182.807687 183.35875)scale(0.08 -0.08)">
       <defs>
        <path d="M 794 531 
L 1825 531 
L 1825 4091 
L 703 3866 
L 703 4441 
L 1819 4666 
L 2450 4666 
L 2450 531 
L 3481 531 
L 3481 0 
L 794 0 
L 794 531 
z
" id="DejaVuSans-31" transform="scale(0.015625)"/>
       </defs>
       <use xlink:href="#DejaVuSans-31"/>
       <use x="63.623047" xlink:href="#DejaVuSans-30"/>
       <use x="127.246094" xlink:href="#DejaVuSans-30"/>
      </g>
     </g>
    </g>
    <g id="xtick_4">
     <g id="line2d_4">
      <g>
       <use style="stroke:#000000;stroke-width:0.8;" x="265.873576" xlink:href="#mdec098ea38" y="170.28"/>
      </g>
     </g>
     <g id="text_4">
      <!-- 150 -->
      <g transform="translate(258.238576 183.35875)scale(0.08 -0.08)">
       <use xlink:href="#DejaVuSans-31"/>
       <use x="63.623047" xlink:href="#DejaVuSans-35"/>
       <use x="127.246094" xlink:href="#DejaVuSans-30"/>
      </g>
     </g>
    </g>
    <g id="xtick_5">
     <g id="line2d_5">
      <g>
       <use style="stroke:#000000;stroke-width:0.8;" x="341.304464" xlink:href="#mdec098ea38" y="170.28"/>
      </g>
     </g>
     <g id="text_5">
      <!-- 200 -->
      <g transform="translate(333.669464 183.35875)scale(0.08 -0.08)">
       <defs>
        <path d="M 1228 531 
L 3431 531 
L 3431 0 
L 469 0 
L 469 531 
Q 828 903 1448 1529 
Q 2069 2156 2228 2338 
Q 2531 2678 2651 2914 
Q 2772 3150 2772 3378 
Q 2772 3750 2511 3984 
Q 2250 4219 1831 4219 
Q 1534 4219 1204 4116 
Q 875 4013 500 3803 
L 500 4441 
Q 881 4594 1212 4672 
Q 1544 4750 1819 4750 
Q 2544 4750 2975 4387 
Q 3406 4025 3406 3419 
Q 3406 3131 3298 2873 
Q 3191 2616 2906 2266 
Q 2828 2175 2409 1742 
Q 1991 1309 1228 531 
z
" id="DejaVuSans-32" transform="scale(0.015625)"/>
       </defs>
       <use xlink:href="#DejaVuSans-32"/>
       <use x="63.623047" xlink:href="#DejaVuSans-30"/>
       <use x="127.246094" xlink:href="#DejaVuSans-30"/>
      </g>
     </g>
    </g>
    <g id="xtick_6">
     <g id="line2d_6">
      <g>
       <use style="stroke:#000000;stroke-width:0.8;" x="416.735353" xlink:href="#mdec098ea38" y="170.28"/>
      </g>
     </g>
     <g id="text_6">
      <!-- 250 -->
      <g transform="translate(409.100353 183.35875)scale(0.08 -0.08)">
       <use xlink:href="#DejaVuSans-32"/>
       <use x="63.623047" xlink:href="#DejaVuSans-35"/>
       <use x="127.246094" xlink:href="#DejaVuSans-30"/>
      </g>
     </g>
    </g>
   </g>
   <g id="matplotlib.axis_2">
    <g id="ytick_1">
     <g id="line2d_7">
      <defs>
       <path d="M 0 0 
L -3.5 0 
" id="m0ae9daabd9" style="stroke:#000000;stroke-width:0.8;"/>
      </defs>
      <g>
       <use style="stroke:#000000;stroke-width:0.8;" x="19.29" xlink:href="#m0ae9daabd9" y="167.893419"/>
      </g>
     </g>
     <g id="text_7">
      <!-- 0 -->
      <g transform="translate(7.2 170.932794)scale(0.08 -0.08)">
       <use xlink:href="#DejaVuSans-30"/>
      </g>
     </g>
    </g>
    <g id="ytick_2">
     <g id="line2d_8">
      <g>
       <use style="stroke:#000000;stroke-width:0.8;" x="19.29" xlink:href="#m0ae9daabd9" y="142.334772"/>
      </g>
     </g>
     <g id="text_8">
      <!-- 1 -->
      <g transform="translate(7.2 145.374147)scale(0.08 -0.08)">
       <use xlink:href="#DejaVuSans-31"/>
      </g>
     </g>
    </g>
    <g id="ytick_3">
     <g id="line2d_9">
      <g>
       <use style="stroke:#000000;stroke-width:0.8;" x="19.29" xlink:href="#m0ae9daabd9" y="116.776124"/>
      </g>
     </g>
     <g id="text_9">
      <!-- 2 -->
      <g transform="translate(7.2 119.815499)scale(0.08 -0.08)">
       <use xlink:href="#DejaVuSans-32"/>
      </g>
     </g>
    </g>
    <g id="ytick_4">
     <g id="line2d_10">
      <g>
       <use style="stroke:#000000;stroke-width:0.8;" x="19.29" xlink:href="#m0ae9daabd9" y="91.217477"/>
      </g>
     </g>
     <g id="text_10">
      <!-- 3 -->
      <g transform="translate(7.2 94.256852)scale(0.08 -0.08)">
       <defs>
        <path d="M 2597 2516 
Q 3050 2419 3304 2112 
Q 3559 1806 3559 1356 
Q 3559 666 3084 287 
Q 2609 -91 1734 -91 
Q 1441 -91 1130 -33 
Q 819 25 488 141 
L 488 750 
Q 750 597 1062 519 
Q 1375 441 1716 441 
Q 2309 441 2620 675 
Q 2931 909 2931 1356 
Q 2931 1769 2642 2001 
Q 2353 2234 1838 2234 
L 1294 2234 
L 1294 2753 
L 1863 2753 
Q 2328 2753 2575 2939 
Q 2822 3125 2822 3475 
Q 2822 3834 2567 4026 
Q 2313 4219 1838 4219 
Q 1578 4219 1281 4162 
Q 984 4106 628 3988 
L 628 4550 
Q 988 4650 1302 4700 
Q 1616 4750 1894 4750 
Q 2613 4750 3031 4423 
Q 3450 4097 3450 3541 
Q 3450 3153 3228 2886 
Q 3006 2619 2597 2516 
z
" id="DejaVuSans-33" transform="scale(0.015625)"/>
       </defs>
       <use xlink:href="#DejaVuSans-33"/>
      </g>
     </g>
    </g>
    <g id="ytick_5">
     <g id="line2d_11">
      <g>
       <use style="stroke:#000000;stroke-width:0.8;" x="19.29" xlink:href="#m0ae9daabd9" y="65.65883"/>
      </g>
     </g>
     <g id="text_11">
      <!-- 4 -->
      <g transform="translate(7.2 68.698205)scale(0.08 -0.08)">
       <defs>
        <path d="M 2419 4116 
L 825 1625 
L 2419 1625 
L 2419 4116 
z
M 2253 4666 
L 3047 4666 
L 3047 1625 
L 3713 1625 
L 3713 1100 
L 3047 1100 
L 3047 0 
L 2419 0 
L 2419 1100 
L 313 1100 
L 313 1709 
L 2253 4666 
z
" id="DejaVuSans-34" transform="scale(0.015625)"/>
       </defs>
       <use xlink:href="#DejaVuSans-34"/>
      </g>
     </g>
    </g>
    <g id="ytick_6">
     <g id="line2d_12">
      <g>
       <use style="stroke:#000000;stroke-width:0.8;" x="19.29" xlink:href="#m0ae9daabd9" y="40.100183"/>
      </g>
     </g>
     <g id="text_12">
      <!-- 5 -->
      <g transform="translate(7.2 43.139558)scale(0.08 -0.08)">
       <use xlink:href="#DejaVuSans-35"/>
      </g>
     </g>
    </g>
    <g id="ytick_7">
     <g id="line2d_13">
      <g>
       <use style="stroke:#000000;stroke-width:0.8;" x="19.29" xlink:href="#m0ae9daabd9" y="14.541536"/>
      </g>
     </g>
     <g id="text_13">
      <!-- 6 -->
      <g transform="translate(7.2 17.580911)scale(0.08 -0.08)">
       <defs>
        <path d="M 2113 2584 
Q 1688 2584 1439 2293 
Q 1191 2003 1191 1497 
Q 1191 994 1439 701 
Q 1688 409 2113 409 
Q 2538 409 2786 701 
Q 3034 994 3034 1497 
Q 3034 2003 2786 2293 
Q 2538 2584 2113 2584 
z
M 3366 4563 
L 3366 3988 
Q 3128 4100 2886 4159 
Q 2644 4219 2406 4219 
Q 1781 4219 1451 3797 
Q 1122 3375 1075 2522 
Q 1259 2794 1537 2939 
Q 1816 3084 2150 3084 
Q 2853 3084 3261 2657 
Q 3669 2231 3669 1497 
Q 3669 778 3244 343 
Q 2819 -91 2113 -91 
Q 1303 -91 875 529 
Q 447 1150 447 2328 
Q 447 3434 972 4092 
Q 1497 4750 2381 4750 
Q 2619 4750 2861 4703 
Q 3103 4656 3366 4563 
z
" id="DejaVuSans-36" transform="scale(0.015625)"/>
       </defs>
       <use xlink:href="#DejaVuSans-36"/>
      </g>
     </g>
    </g>
   </g>
   <g id="line2d_14">
    <path clip-path="url(#p84e70af19e)" d="M 39.580909 140.771505 
L 41.089527 138.547407 
L 44.106762 134.954951 
L 45.61538 132.599575 
L 51.649851 121.250991 
L 54.667087 115.600047 
L 57.684322 109.767888 
L 60.701558 104.624109 
L 62.210176 102.386876 
L 63.718794 100.478717 
L 65.227411 99.098015 
L 66.736029 98.331867 
L 68.244647 98.258144 
L 69.753265 98.862965 
L 71.261882 100.005716 
L 72.7705 101.60405 
L 78.804971 108.734068 
L 86.34806 116.708544 
L 89.365296 119.829433 
L 90.873913 120.959365 
L 92.382531 121.942928 
L 93.891149 122.681732 
L 96.908385 123.627899 
L 98.417002 123.652142 
L 99.92562 123.292204 
L 101.434238 122.448842 
L 102.942856 120.981769 
L 104.451473 119.213088 
L 105.960091 117.005941 
L 108.977327 111.931606 
L 113.50318 103.452898 
L 119.537651 91.415336 
L 121.046269 87.941145 
L 122.554887 83.430616 
L 124.063505 77.496553 
L 125.572122 69.837782 
L 127.08074 60.661016 
L 131.606593 30.670295 
L 133.115211 22.847151 
L 134.623829 17.425559 
L 136.132447 14.737303 
L 137.641065 14.612727 
L 139.149682 16.722535 
L 140.6583 20.659379 
L 142.166918 26.071982 
L 143.675536 32.693298 
L 146.692771 47.860134 
L 149.710007 63.057586 
L 152.727242 76.528775 
L 155.744478 88.188949 
L 160.270331 105.264463 
L 163.287567 116.354353 
L 164.796185 121.125191 
L 166.304802 125.179161 
L 167.81342 128.655193 
L 169.322038 131.456255 
L 170.830656 133.808503 
L 172.339273 135.711643 
L 173.847891 137.144305 
L 175.356509 138.334109 
L 176.865127 138.977175 
L 178.373745 139.104989 
L 179.882362 138.700097 
L 181.39098 137.524935 
L 182.899598 135.788145 
L 184.408216 133.40023 
L 187.425451 127.314354 
L 190.442687 120.855976 
L 191.951304 118.014182 
L 193.459922 115.412049 
L 194.96854 113.205389 
L 196.477158 111.30187 
L 197.985776 109.736846 
L 199.494393 108.661647 
L 201.003011 107.962407 
L 202.511629 107.670235 
L 204.020247 107.703204 
L 205.528864 107.894174 
L 208.5461 108.501699 
L 211.563336 108.83471 
L 216.089189 108.943222 
L 217.597807 108.835031 
L 219.106424 108.568432 
L 220.615042 108.02426 
L 222.12366 107.166396 
L 223.632278 106.016245 
L 228.158131 101.821906 
L 229.666749 100.814852 
L 231.175367 100.387719 
L 232.683984 100.620111 
L 234.192602 101.572305 
L 235.70122 103.103758 
L 237.209838 104.989783 
L 240.227073 109.128525 
L 241.735691 111.003838 
L 243.244309 112.670965 
L 249.27878 118.442172 
L 255.313251 126.023961 
L 258.330487 128.993342 
L 259.839104 130.222997 
L 261.347722 131.230626 
L 262.85634 132.020918 
L 264.364958 132.501039 
L 265.873576 132.754271 
L 267.382193 132.752342 
L 268.890811 132.454819 
L 270.399429 131.93683 
L 271.908047 131.101747 
L 273.416664 130.046829 
L 274.925282 128.841884 
L 282.468371 122.144439 
L 283.976989 120.987401 
L 285.485607 119.983747 
L 286.994224 119.161885 
L 288.502842 118.563082 
L 290.01146 118.316093 
L 291.520078 118.40209 
L 293.028696 118.808557 
L 296.045931 120.184571 
L 302.080402 123.300442 
L 314.149344 130.803676 
L 318.675198 133.323275 
L 321.692433 134.824349 
L 323.201051 135.439024 
L 324.709669 135.881194 
L 326.218287 136.175827 
L 329.235522 136.397923 
L 332.252758 136.392837 
L 333.761375 136.26388 
L 335.269993 135.918606 
L 336.778611 135.340439 
L 338.287229 134.473975 
L 339.795847 133.204771 
L 341.304464 131.499112 
L 342.813082 129.285285 
L 345.830318 123.845349 
L 347.338935 121.119429 
L 348.847553 118.804534 
L 350.356171 117.103337 
L 351.864789 116.103254 
L 353.373407 115.85048 
L 354.882024 116.244824 
L 356.390642 117.177289 
L 359.407878 119.914383 
L 362.425113 122.648856 
L 366.950967 126.089847 
L 369.968202 128.285648 
L 369.968202 128.285648 
" style="fill:none;stroke:#1f77b4;stroke-linecap:square;stroke-width:1.5;"/>
   </g>
   <g id="line2d_15">
    <path clip-path="url(#p84e70af19e)" d="M 371.47682 129.374019 
L 372.985438 130.490984 
L 374.494055 131.60921 
L 376.002673 132.699212 
L 377.511291 133.738239 
L 379.019909 134.654176 
L 380.528527 135.438562 
L 382.037144 136.070355 
L 383.545762 136.550078 
L 385.05438 136.964229 
L 386.562998 137.321901 
L 388.071615 137.687043 
L 389.580233 138.069009 
L 391.088851 138.408889 
L 392.597469 138.732546 
L 394.106087 138.992578 
L 395.614704 139.203599 
L 397.123322 139.396313 
L 398.63194 139.485682 
L 400.140558 139.473136 
L 401.649175 139.325596 
L 403.157793 139.05555 
L 404.666411 138.746984 
L 406.175029 138.406139 
L 407.683647 138.076179 
L 409.192264 137.764269 
L 410.700882 137.444145 
L 412.2095 137.152103 
L 413.718118 136.886328 
L 415.226735 136.660523 
L 416.735353 136.486126 
L 418.243971 136.304298 
L 419.752589 136.102004 
L 421.261206 135.877223 
L 422.769824 135.670922 
L 424.278442 135.586544 
L 425.78706 135.705447 
L 427.295678 136.11243 
L 428.804295 136.853276 
L 430.312913 137.89305 
L 431.821531 139.160858 
L 433.330149 140.526354 
L 434.838766 141.877485 
L 436.347384 143.170902 
L 437.856002 144.380877 
L 439.36462 145.486585 
L 440.873238 146.400644 
L 442.381855 147.002593 
L 443.890473 147.260025 
L 445.399091 147.247397 
" style="fill:none;stroke:#ff7f0e;stroke-linecap:square;stroke-width:1.5;"/>
   </g>
   <g id="line2d_16">
    <path clip-path="url(#p84e70af19e)" d="M 371.47682 131.676998 
L 372.985438 131.807236 
L 374.494055 131.922768 
L 376.002673 132.007348 
L 377.511291 132.053365 
L 379.019909 132.08112 
L 380.528527 132.102564 
L 382.037144 132.133488 
L 383.545762 132.173879 
L 385.05438 132.230551 
L 386.562998 132.310597 
L 388.071615 132.427 
L 389.580233 132.547237 
L 391.088851 132.675325 
L 392.597469 132.789243 
L 394.106087 132.873359 
L 395.614704 132.920359 
L 397.123322 132.949792 
L 398.63194 132.973164 
L 400.140558 133.005667 
L 401.649175 133.047288 
L 403.157793 133.104576 
L 404.666411 133.184345 
L 406.175029 133.299072 
L 407.683647 133.417475 
L 409.192264 133.543413 
L 410.700882 133.655718 
L 412.2095 133.73937 
L 413.718118 133.787354 
L 415.226735 133.818464 
L 416.735353 133.843763 
L 418.243971 133.877847 
L 419.752589 133.920697 
L 421.261206 133.9786 
L 422.769824 134.058093 
L 424.278442 134.171145 
L 425.78706 134.287713 
L 427.295678 134.411502 
L 428.804295 134.522193 
L 430.312913 134.605381 
L 431.821531 134.654348 
L 433.330149 134.687136 
L 434.838766 134.714363 
L 436.347384 134.750026 
L 437.856002 134.794106 
L 439.36462 134.852625 
L 440.873238 134.931841 
L 442.381855 135.043217 
L 443.890473 135.157952 
L 445.399091 135.27959 
" style="fill:none;stroke:#7f7f7f;stroke-dasharray:5.55,2.4;stroke-dashoffset:0;stroke-width:1.5;"/>
   </g>
   <g id="patch_3">
    <path d="M 19.29 170.28 
L 19.29 7.2 
" style="fill:none;stroke:#000000;stroke-linecap:square;stroke-linejoin:miter;stroke-width:0.8;"/>
   </g>
   <g id="patch_4">
    <path d="M 465.69 170.28 
L 465.69 7.2 
" style="fill:none;stroke:#000000;stroke-linecap:square;stroke-linejoin:miter;stroke-width:0.8;"/>
   </g>
   <g id="patch_5">
    <path d="M 19.29 170.28 
L 465.69 170.28 
" style="fill:none;stroke:#000000;stroke-linecap:square;stroke-linejoin:miter;stroke-width:0.8;"/>
   </g>
   <g id="patch_6">
    <path d="M 19.29 7.2 
L 465.69 7.2 
" style="fill:none;stroke:#000000;stroke-linecap:square;stroke-linejoin:miter;stroke-width:0.8;"/>
   </g>
   <g id="legend_1">
    <g id="patch_7">
     <path d="M 329.19 60.57 
L 460.09 60.57 
Q 461.69 60.57 461.69 58.97 
L 461.69 12.8 
Q 461.69 11.2 460.09 11.2 
L 329.19 11.2 
Q 327.59 11.2 327.59 12.8 
L 327.59 58.97 
Q 327.59 60.57 329.19 60.57 
z
" style="fill:#ffffff;opacity:0.8;stroke:#cccccc;stroke-linejoin:miter;"/>
    </g>
    <g id="line2d_17">
     <path d="M 330.79 17.67875 
L 346.79 17.67875 
" style="fill:none;stroke:#1f77b4;stroke-linecap:square;stroke-width:1.5;"/>
    </g>
    <g id="line2d_18"/>
    <g id="text_14">
     <!-- Past values -->
     <g transform="translate(353.19 20.47875)scale(0.08 -0.08)">
      <defs>
       <path d="M 1259 4147 
L 1259 2394 
L 2053 2394 
Q 2494 2394 2734 2622 
Q 2975 2850 2975 3272 
Q 2975 3691 2734 3919 
Q 2494 4147 2053 4147 
L 1259 4147 
z
M 628 4666 
L 2053 4666 
Q 2838 4666 3239 4311 
Q 3641 3956 3641 3272 
Q 3641 2581 3239 2228 
Q 2838 1875 2053 1875 
L 1259 1875 
L 1259 0 
L 628 0 
L 628 4666 
z
" id="DejaVuSans-50" transform="scale(0.015625)"/>
       <path d="M 2194 1759 
Q 1497 1759 1228 1600 
Q 959 1441 959 1056 
Q 959 750 1161 570 
Q 1363 391 1709 391 
Q 2188 391 2477 730 
Q 2766 1069 2766 1631 
L 2766 1759 
L 2194 1759 
z
M 3341 1997 
L 3341 0 
L 2766 0 
L 2766 531 
Q 2569 213 2275 61 
Q 1981 -91 1556 -91 
Q 1019 -91 701 211 
Q 384 513 384 1019 
Q 384 1609 779 1909 
Q 1175 2209 1959 2209 
L 2766 2209 
L 2766 2266 
Q 2766 2663 2505 2880 
Q 2244 3097 1772 3097 
Q 1472 3097 1187 3025 
Q 903 2953 641 2809 
L 641 3341 
Q 956 3463 1253 3523 
Q 1550 3584 1831 3584 
Q 2591 3584 2966 3190 
Q 3341 2797 3341 1997 
z
" id="DejaVuSans-61" transform="scale(0.015625)"/>
       <path d="M 2834 3397 
L 2834 2853 
Q 2591 2978 2328 3040 
Q 2066 3103 1784 3103 
Q 1356 3103 1142 2972 
Q 928 2841 928 2578 
Q 928 2378 1081 2264 
Q 1234 2150 1697 2047 
L 1894 2003 
Q 2506 1872 2764 1633 
Q 3022 1394 3022 966 
Q 3022 478 2636 193 
Q 2250 -91 1575 -91 
Q 1294 -91 989 -36 
Q 684 19 347 128 
L 347 722 
Q 666 556 975 473 
Q 1284 391 1588 391 
Q 1994 391 2212 530 
Q 2431 669 2431 922 
Q 2431 1156 2273 1281 
Q 2116 1406 1581 1522 
L 1381 1569 
Q 847 1681 609 1914 
Q 372 2147 372 2553 
Q 372 3047 722 3315 
Q 1072 3584 1716 3584 
Q 2034 3584 2315 3537 
Q 2597 3491 2834 3397 
z
" id="DejaVuSans-73" transform="scale(0.015625)"/>
       <path d="M 1172 4494 
L 1172 3500 
L 2356 3500 
L 2356 3053 
L 1172 3053 
L 1172 1153 
Q 1172 725 1289 603 
Q 1406 481 1766 481 
L 2356 481 
L 2356 0 
L 1766 0 
Q 1100 0 847 248 
Q 594 497 594 1153 
L 594 3053 
L 172 3053 
L 172 3500 
L 594 3500 
L 594 4494 
L 1172 4494 
z
" id="DejaVuSans-74" transform="scale(0.015625)"/>
       <path id="DejaVuSans-20" transform="scale(0.015625)"/>
       <path d="M 191 3500 
L 800 3500 
L 1894 563 
L 2988 3500 
L 3597 3500 
L 2284 0 
L 1503 0 
L 191 3500 
z
" id="DejaVuSans-76" transform="scale(0.015625)"/>
       <path d="M 603 4863 
L 1178 4863 
L 1178 0 
L 603 0 
L 603 4863 
z
" id="DejaVuSans-6c" transform="scale(0.015625)"/>
       <path d="M 544 1381 
L 544 3500 
L 1119 3500 
L 1119 1403 
Q 1119 906 1312 657 
Q 1506 409 1894 409 
Q 2359 409 2629 706 
Q 2900 1003 2900 1516 
L 2900 3500 
L 3475 3500 
L 3475 0 
L 2900 0 
L 2900 538 
Q 2691 219 2414 64 
Q 2138 -91 1772 -91 
Q 1169 -91 856 284 
Q 544 659 544 1381 
z
M 1991 3584 
L 1991 3584 
z
" id="DejaVuSans-75" transform="scale(0.015625)"/>
       <path d="M 3597 1894 
L 3597 1613 
L 953 1613 
Q 991 1019 1311 708 
Q 1631 397 2203 397 
Q 2534 397 2845 478 
Q 3156 559 3463 722 
L 3463 178 
Q 3153 47 2828 -22 
Q 2503 -91 2169 -91 
Q 1331 -91 842 396 
Q 353 884 353 1716 
Q 353 2575 817 3079 
Q 1281 3584 2069 3584 
Q 2775 3584 3186 3129 
Q 3597 2675 3597 1894 
z
M 3022 2063 
Q 3016 2534 2758 2815 
Q 2500 3097 2075 3097 
Q 1594 3097 1305 2825 
Q 1016 2553 972 2059 
L 3022 2063 
z
" id="DejaVuSans-65" transform="scale(0.015625)"/>
      </defs>
      <use xlink:href="#DejaVuSans-50"/>
      <use x="55.802734" xlink:href="#DejaVuSans-61"/>
      <use x="117.082031" xlink:href="#DejaVuSans-73"/>
      <use x="169.181641" xlink:href="#DejaVuSans-74"/>
      <use x="208.390625" xlink:href="#DejaVuSans-20"/>
      <use x="240.177734" xlink:href="#DejaVuSans-76"/>
      <use x="299.357422" xlink:href="#DejaVuSans-61"/>
      <use x="360.636719" xlink:href="#DejaVuSans-6c"/>
      <use x="388.419922" xlink:href="#DejaVuSans-75"/>
      <use x="451.798828" xlink:href="#DejaVuSans-65"/>
      <use x="513.322266" xlink:href="#DejaVuSans-73"/>
     </g>
    </g>
    <g id="line2d_19">
     <path d="M 330.79 29.42125 
L 346.79 29.42125 
" style="fill:none;stroke:#ff7f0e;stroke-linecap:square;stroke-width:1.5;"/>
    </g>
    <g id="line2d_20"/>
    <g id="text_15">
     <!-- True values -->
     <g transform="translate(353.19 32.22125)scale(0.08 -0.08)">
      <defs>
       <path d="M -19 4666 
L 3928 4666 
L 3928 4134 
L 2272 4134 
L 2272 0 
L 1638 0 
L 1638 4134 
L -19 4134 
L -19 4666 
z
" id="DejaVuSans-54" transform="scale(0.015625)"/>
       <path d="M 2631 2963 
Q 2534 3019 2420 3045 
Q 2306 3072 2169 3072 
Q 1681 3072 1420 2755 
Q 1159 2438 1159 1844 
L 1159 0 
L 581 0 
L 581 3500 
L 1159 3500 
L 1159 2956 
Q 1341 3275 1631 3429 
Q 1922 3584 2338 3584 
Q 2397 3584 2469 3576 
Q 2541 3569 2628 3553 
L 2631 2963 
z
" id="DejaVuSans-72" transform="scale(0.015625)"/>
      </defs>
      <use xlink:href="#DejaVuSans-54"/>
      <use x="46.333984" xlink:href="#DejaVuSans-72"/>
      <use x="87.447266" xlink:href="#DejaVuSans-75"/>
      <use x="150.826172" xlink:href="#DejaVuSans-65"/>
      <use x="212.349609" xlink:href="#DejaVuSans-20"/>
      <use x="244.136719" xlink:href="#DejaVuSans-76"/>
      <use x="303.316406" xlink:href="#DejaVuSans-61"/>
      <use x="364.595703" xlink:href="#DejaVuSans-6c"/>
      <use x="392.378906" xlink:href="#DejaVuSans-75"/>
      <use x="455.757812" xlink:href="#DejaVuSans-65"/>
      <use x="517.28125" xlink:href="#DejaVuSans-73"/>
     </g>
    </g>
    <g id="line2d_21">
     <path d="M 330.79 41.16375 
L 346.79 41.16375 
" style="fill:none;stroke:#7f7f7f;stroke-dasharray:5.55,2.4;stroke-dashoffset:0;stroke-width:1.5;"/>
    </g>
    <g id="line2d_22"/>
    <g id="text_16">
     <!-- Forecast -->
     <g transform="translate(353.19 43.96375)scale(0.08 -0.08)">
      <defs>
       <path d="M 628 4666 
L 3309 4666 
L 3309 4134 
L 1259 4134 
L 1259 2759 
L 3109 2759 
L 3109 2228 
L 1259 2228 
L 1259 0 
L 628 0 
L 628 4666 
z
" id="DejaVuSans-46" transform="scale(0.015625)"/>
       <path d="M 1959 3097 
Q 1497 3097 1228 2736 
Q 959 2375 959 1747 
Q 959 1119 1226 758 
Q 1494 397 1959 397 
Q 2419 397 2687 759 
Q 2956 1122 2956 1747 
Q 2956 2369 2687 2733 
Q 2419 3097 1959 3097 
z
M 1959 3584 
Q 2709 3584 3137 3096 
Q 3566 2609 3566 1747 
Q 3566 888 3137 398 
Q 2709 -91 1959 -91 
Q 1206 -91 779 398 
Q 353 888 353 1747 
Q 353 2609 779 3096 
Q 1206 3584 1959 3584 
z
" id="DejaVuSans-6f" transform="scale(0.015625)"/>
       <path d="M 3122 3366 
L 3122 2828 
Q 2878 2963 2633 3030 
Q 2388 3097 2138 3097 
Q 1578 3097 1268 2742 
Q 959 2388 959 1747 
Q 959 1106 1268 751 
Q 1578 397 2138 397 
Q 2388 397 2633 464 
Q 2878 531 3122 666 
L 3122 134 
Q 2881 22 2623 -34 
Q 2366 -91 2075 -91 
Q 1284 -91 818 406 
Q 353 903 353 1747 
Q 353 2603 823 3093 
Q 1294 3584 2113 3584 
Q 2378 3584 2631 3529 
Q 2884 3475 3122 3366 
z
" id="DejaVuSans-63" transform="scale(0.015625)"/>
      </defs>
      <use xlink:href="#DejaVuSans-46"/>
      <use x="53.894531" xlink:href="#DejaVuSans-6f"/>
      <use x="115.076172" xlink:href="#DejaVuSans-72"/>
      <use x="153.939453" xlink:href="#DejaVuSans-65"/>
      <use x="215.462891" xlink:href="#DejaVuSans-63"/>
      <use x="270.443359" xlink:href="#DejaVuSans-61"/>
      <use x="331.722656" xlink:href="#DejaVuSans-73"/>
      <use x="383.822266" xlink:href="#DejaVuSans-74"/>
     </g>
    </g>
    <g id="patch_8">
     <path d="M 330.79 55.70625 
L 346.79 55.70625 
L 346.79 50.10625 
L 330.79 50.10625 
z
" style="fill:#7f7f7f;opacity:0.2;stroke:#7f7f7f;stroke-linejoin:miter;"/>
    </g>
    <g id="text_17">
     <!-- 0.95% prediction intervals -->
     <g transform="translate(353.19 55.70625)scale(0.08 -0.08)">
      <defs>
       <path d="M 684 794 
L 1344 794 
L 1344 0 
L 684 0 
L 684 794 
z
" id="DejaVuSans-2e" transform="scale(0.015625)"/>
       <path d="M 703 97 
L 703 672 
Q 941 559 1184 500 
Q 1428 441 1663 441 
Q 2288 441 2617 861 
Q 2947 1281 2994 2138 
Q 2813 1869 2534 1725 
Q 2256 1581 1919 1581 
Q 1219 1581 811 2004 
Q 403 2428 403 3163 
Q 403 3881 828 4315 
Q 1253 4750 1959 4750 
Q 2769 4750 3195 4129 
Q 3622 3509 3622 2328 
Q 3622 1225 3098 567 
Q 2575 -91 1691 -91 
Q 1453 -91 1209 -44 
Q 966 3 703 97 
z
M 1959 2075 
Q 2384 2075 2632 2365 
Q 2881 2656 2881 3163 
Q 2881 3666 2632 3958 
Q 2384 4250 1959 4250 
Q 1534 4250 1286 3958 
Q 1038 3666 1038 3163 
Q 1038 2656 1286 2365 
Q 1534 2075 1959 2075 
z
" id="DejaVuSans-39" transform="scale(0.015625)"/>
       <path d="M 4653 2053 
Q 4381 2053 4226 1822 
Q 4072 1591 4072 1178 
Q 4072 772 4226 539 
Q 4381 306 4653 306 
Q 4919 306 5073 539 
Q 5228 772 5228 1178 
Q 5228 1588 5073 1820 
Q 4919 2053 4653 2053 
z
M 4653 2450 
Q 5147 2450 5437 2106 
Q 5728 1763 5728 1178 
Q 5728 594 5436 251 
Q 5144 -91 4653 -91 
Q 4153 -91 3862 251 
Q 3572 594 3572 1178 
Q 3572 1766 3864 2108 
Q 4156 2450 4653 2450 
z
M 1428 4353 
Q 1159 4353 1004 4120 
Q 850 3888 850 3481 
Q 850 3069 1003 2837 
Q 1156 2606 1428 2606 
Q 1700 2606 1854 2837 
Q 2009 3069 2009 3481 
Q 2009 3884 1853 4118 
Q 1697 4353 1428 4353 
z
M 4250 4750 
L 4750 4750 
L 1831 -91 
L 1331 -91 
L 4250 4750 
z
M 1428 4750 
Q 1922 4750 2215 4408 
Q 2509 4066 2509 3481 
Q 2509 2891 2217 2550 
Q 1925 2209 1428 2209 
Q 931 2209 642 2551 
Q 353 2894 353 3481 
Q 353 4063 643 4406 
Q 934 4750 1428 4750 
z
" id="DejaVuSans-25" transform="scale(0.015625)"/>
       <path d="M 1159 525 
L 1159 -1331 
L 581 -1331 
L 581 3500 
L 1159 3500 
L 1159 2969 
Q 1341 3281 1617 3432 
Q 1894 3584 2278 3584 
Q 2916 3584 3314 3078 
Q 3713 2572 3713 1747 
Q 3713 922 3314 415 
Q 2916 -91 2278 -91 
Q 1894 -91 1617 61 
Q 1341 213 1159 525 
z
M 3116 1747 
Q 3116 2381 2855 2742 
Q 2594 3103 2138 3103 
Q 1681 3103 1420 2742 
Q 1159 2381 1159 1747 
Q 1159 1113 1420 752 
Q 1681 391 2138 391 
Q 2594 391 2855 752 
Q 3116 1113 3116 1747 
z
" id="DejaVuSans-70" transform="scale(0.015625)"/>
       <path d="M 2906 2969 
L 2906 4863 
L 3481 4863 
L 3481 0 
L 2906 0 
L 2906 525 
Q 2725 213 2448 61 
Q 2172 -91 1784 -91 
Q 1150 -91 751 415 
Q 353 922 353 1747 
Q 353 2572 751 3078 
Q 1150 3584 1784 3584 
Q 2172 3584 2448 3432 
Q 2725 3281 2906 2969 
z
M 947 1747 
Q 947 1113 1208 752 
Q 1469 391 1925 391 
Q 2381 391 2643 752 
Q 2906 1113 2906 1747 
Q 2906 2381 2643 2742 
Q 2381 3103 1925 3103 
Q 1469 3103 1208 2742 
Q 947 2381 947 1747 
z
" id="DejaVuSans-64" transform="scale(0.015625)"/>
       <path d="M 603 3500 
L 1178 3500 
L 1178 0 
L 603 0 
L 603 3500 
z
M 603 4863 
L 1178 4863 
L 1178 4134 
L 603 4134 
L 603 4863 
z
" id="DejaVuSans-69" transform="scale(0.015625)"/>
       <path d="M 3513 2113 
L 3513 0 
L 2938 0 
L 2938 2094 
Q 2938 2591 2744 2837 
Q 2550 3084 2163 3084 
Q 1697 3084 1428 2787 
Q 1159 2491 1159 1978 
L 1159 0 
L 581 0 
L 581 3500 
L 1159 3500 
L 1159 2956 
Q 1366 3272 1645 3428 
Q 1925 3584 2291 3584 
Q 2894 3584 3203 3211 
Q 3513 2838 3513 2113 
z
" id="DejaVuSans-6e" transform="scale(0.015625)"/>
      </defs>
      <use xlink:href="#DejaVuSans-30"/>
      <use x="63.623047" xlink:href="#DejaVuSans-2e"/>
      <use x="95.410156" xlink:href="#DejaVuSans-39"/>
      <use x="159.033203" xlink:href="#DejaVuSans-35"/>
      <use x="222.65625" xlink:href="#DejaVuSans-25"/>
      <use x="317.675781" xlink:href="#DejaVuSans-20"/>
      <use x="349.462891" xlink:href="#DejaVuSans-70"/>
      <use x="412.939453" xlink:href="#DejaVuSans-72"/>
      <use x="451.802734" xlink:href="#DejaVuSans-65"/>
      <use x="513.326172" xlink:href="#DejaVuSans-64"/>
      <use x="576.802734" xlink:href="#DejaVuSans-69"/>
      <use x="604.585938" xlink:href="#DejaVuSans-63"/>
      <use x="659.566406" xlink:href="#DejaVuSans-74"/>
      <use x="698.775391" xlink:href="#DejaVuSans-69"/>
      <use x="726.558594" xlink:href="#DejaVuSans-6f"/>
      <use x="787.740234" xlink:href="#DejaVuSans-6e"/>
      <use x="851.119141" xlink:href="#DejaVuSans-20"/>
      <use x="882.90625" xlink:href="#DejaVuSans-69"/>
      <use x="910.689453" xlink:href="#DejaVuSans-6e"/>
      <use x="974.068359" xlink:href="#DejaVuSans-74"/>
      <use x="1013.277344" xlink:href="#DejaVuSans-65"/>
      <use x="1074.800781" xlink:href="#DejaVuSans-72"/>
      <use x="1115.914062" xlink:href="#DejaVuSans-76"/>
      <use x="1175.09375" xlink:href="#DejaVuSans-61"/>
      <use x="1236.373047" xlink:href="#DejaVuSans-6c"/>
      <use x="1264.15625" xlink:href="#DejaVuSans-73"/>
     </g>
    </g>
   </g>
  </g>
 </g>
 <defs>
  <clipPath id="p84e70af19e">
   <rect height="163.08" width="446.4" x="19.29" y="7.2"/>
  </clipPath>
 </defs>
</svg>
