<?xml version="1.0" encoding="utf-8" standalone="no"?>
<!DOCTYPE svg PUBLIC "-//W3C//DTD SVG 1.1//EN"
  "http://www.w3.org/Graphics/SVG/1.1/DTD/svg11.dtd">
<svg height="205.517pt" version="1.1" viewBox="0 0 488.719557 205.517" width="488.719557pt" xmlns="http://www.w3.org/2000/svg" xmlns:xlink="http://www.w3.org/1999/xlink">
 <metadata>
  <rdf:RDF xmlns:cc="http://creativecommons.org/ns#" xmlns:dc="http://purl.org/dc/elements/1.1/" xmlns:rdf="http://www.w3.org/1999/02/22-rdf-syntax-ns#">
   <cc:Work>
    <dc:type rdf:resource="http://purl.org/dc/dcmitype/StillImage"/>
    <dc:date>2021-06-23T09:29:22.412896</dc:date>
    <dc:format>image/svg+xml</dc:format>
    <dc:creator>
     <cc:Agent>
      <dc:title>Matplotlib v3.4.2, https://matplotlib.org/</dc:title>
     </cc:Agent>
    </dc:creator>
   </cc:Work>
  </rdf:RDF>
 </metadata>
 <defs>
  <style type="text/css">*{stroke-linecap:butt;stroke-linejoin:round;}</style>
 </defs>
 <g id="figure_1">
  <g id="patch_1">
   <path d="M 0 205.517 
L 488.719557 205.517 
L 488.719557 0 
L 0 0 
z
" style="fill:none;"/>
  </g>
  <g id="axes_1">
   <g id="patch_2">
    <path d="M 33.62625 183.5745 
L 295.309009 183.5745 
L 295.309009 20.4945 
L 33.62625 20.4945 
z
" style="fill:#ffffff;"/>
   </g>
   <g id="matplotlib.axis_1">
    <g id="xtick_1">
     <g id="line2d_1">
      <defs>
       <path d="M 0 0 
L 0 3.5 
" id="mba7527ab76" style="stroke:#000000;stroke-width:0.8;"/>
      </defs>
      <g>
       <use style="stroke:#000000;stroke-width:0.8;" x="45.520921" xlink:href="#mba7527ab76" y="183.5745"/>
      </g>
     </g>
     <g id="text_1">
      <!-- 0 -->
      <g transform="translate(42.975921 196.65325)scale(0.08 -0.08)">
       <defs>
        <path d="M 2034 4250 
Q 1547 4250 1301 3770 
Q 1056 3291 1056 2328 
Q 1056 1369 1301 889 
Q 1547 409 2034 409 
Q 2525 409 2770 889 
Q 3016 1369 3016 2328 
Q 3016 3291 2770 3770 
Q 2525 4250 2034 4250 
z
M 2034 4750 
Q 2819 4750 3233 4129 
Q 3647 3509 3647 2328 
Q 3647 1150 3233 529 
Q 2819 -91 2034 -91 
Q 1250 -91 836 529 
Q 422 1150 422 2328 
Q 422 3509 836 4129 
Q 1250 4750 2034 4750 
z
" id="DejaVuSans-30" transform="scale(0.015625)"/>
       </defs>
       <use xlink:href="#DejaVuSans-30"/>
      </g>
     </g>
    </g>
    <g id="xtick_2">
     <g id="line2d_2">
      <g>
       <use style="stroke:#000000;stroke-width:0.8;" x="93.109122" xlink:href="#mba7527ab76" y="183.5745"/>
      </g>
     </g>
     <g id="text_2">
      <!-- 1000 -->
      <g transform="translate(82.929122 196.65325)scale(0.08 -0.08)">
       <defs>
        <path d="M 794 531 
L 1825 531 
L 1825 4091 
L 703 3866 
L 703 4441 
L 1819 4666 
L 2450 4666 
L 2450 531 
L 3481 531 
L 3481 0 
L 794 0 
L 794 531 
z
" id="DejaVuSans-31" transform="scale(0.015625)"/>
       </defs>
       <use xlink:href="#DejaVuSans-31"/>
       <use x="63.623047" xlink:href="#DejaVuSans-30"/>
       <use x="127.246094" xlink:href="#DejaVuSans-30"/>
       <use x="190.869141" xlink:href="#DejaVuSans-30"/>
      </g>
     </g>
    </g>
    <g id="xtick_3">
     <g id="line2d_3">
      <g>
       <use style="stroke:#000000;stroke-width:0.8;" x="140.697323" xlink:href="#mba7527ab76" y="183.5745"/>
      </g>
     </g>
     <g id="text_3">
      <!-- 2000 -->
      <g transform="translate(130.517323 196.65325)scale(0.08 -0.08)">
       <defs>
        <path d="M 1228 531 
L 3431 531 
L 3431 0 
L 469 0 
L 469 531 
Q 828 903 1448 1529 
Q 2069 2156 2228 2338 
Q 2531 2678 2651 2914 
Q 2772 3150 2772 3378 
Q 2772 3750 2511 3984 
Q 2250 4219 1831 4219 
Q 1534 4219 1204 4116 
Q 875 4013 500 3803 
L 500 4441 
Q 881 4594 1212 4672 
Q 1544 4750 1819 4750 
Q 2544 4750 2975 4387 
Q 3406 4025 3406 3419 
Q 3406 3131 3298 2873 
Q 3191 2616 2906 2266 
Q 2828 2175 2409 1742 
Q 1991 1309 1228 531 
z
" id="DejaVuSans-32" transform="scale(0.015625)"/>
       </defs>
       <use xlink:href="#DejaVuSans-32"/>
       <use x="63.623047" xlink:href="#DejaVuSans-30"/>
       <use x="127.246094" xlink:href="#DejaVuSans-30"/>
       <use x="190.869141" xlink:href="#DejaVuSans-30"/>
      </g>
     </g>
    </g>
    <g id="xtick_4">
     <g id="line2d_4">
      <g>
       <use style="stroke:#000000;stroke-width:0.8;" x="188.285524" xlink:href="#mba7527ab76" y="183.5745"/>
      </g>
     </g>
     <g id="text_4">
      <!-- 3000 -->
      <g transform="translate(178.105524 196.65325)scale(0.08 -0.08)">
       <defs>
        <path d="M 2597 2516 
Q 3050 2419 3304 2112 
Q 3559 1806 3559 1356 
Q 3559 666 3084 287 
Q 2609 -91 1734 -91 
Q 1441 -91 1130 -33 
Q 819 25 488 141 
L 488 750 
Q 750 597 1062 519 
Q 1375 441 1716 441 
Q 2309 441 2620 675 
Q 2931 909 2931 1356 
Q 2931 1769 2642 2001 
Q 2353 2234 1838 2234 
L 1294 2234 
L 1294 2753 
L 1863 2753 
Q 2328 2753 2575 2939 
Q 2822 3125 2822 3475 
Q 2822 3834 2567 4026 
Q 2313 4219 1838 4219 
Q 1578 4219 1281 4162 
Q 984 4106 628 3988 
L 628 4550 
Q 988 4650 1302 4700 
Q 1616 4750 1894 4750 
Q 2613 4750 3031 4423 
Q 3450 4097 3450 3541 
Q 3450 3153 3228 2886 
Q 3006 2619 2597 2516 
z
" id="DejaVuSans-33" transform="scale(0.015625)"/>
       </defs>
       <use xlink:href="#DejaVuSans-33"/>
       <use x="63.623047" xlink:href="#DejaVuSans-30"/>
       <use x="127.246094" xlink:href="#DejaVuSans-30"/>
       <use x="190.869141" xlink:href="#DejaVuSans-30"/>
      </g>
     </g>
    </g>
    <g id="xtick_5">
     <g id="line2d_5">
      <g>
       <use style="stroke:#000000;stroke-width:0.8;" x="235.873725" xlink:href="#mba7527ab76" y="183.5745"/>
      </g>
     </g>
     <g id="text_5">
      <!-- 4000 -->
      <g transform="translate(225.693725 196.65325)scale(0.08 -0.08)">
       <defs>
        <path d="M 2419 4116 
L 825 1625 
L 2419 1625 
L 2419 4116 
z
M 2253 4666 
L 3047 4666 
L 3047 1625 
L 3713 1625 
L 3713 1100 
L 3047 1100 
L 3047 0 
L 2419 0 
L 2419 1100 
L 313 1100 
L 313 1709 
L 2253 4666 
z
" id="DejaVuSans-34" transform="scale(0.015625)"/>
       </defs>
       <use xlink:href="#DejaVuSans-34"/>
       <use x="63.623047" xlink:href="#DejaVuSans-30"/>
       <use x="127.246094" xlink:href="#DejaVuSans-30"/>
       <use x="190.869141" xlink:href="#DejaVuSans-30"/>
      </g>
     </g>
    </g>
    <g id="xtick_6">
     <g id="line2d_6">
      <g>
       <use style="stroke:#000000;stroke-width:0.8;" x="283.461926" xlink:href="#mba7527ab76" y="183.5745"/>
      </g>
     </g>
     <g id="text_6">
      <!-- 5000 -->
      <g transform="translate(273.281926 196.65325)scale(0.08 -0.08)">
       <defs>
        <path d="M 691 4666 
L 3169 4666 
L 3169 4134 
L 1269 4134 
L 1269 2991 
Q 1406 3038 1543 3061 
Q 1681 3084 1819 3084 
Q 2600 3084 3056 2656 
Q 3513 2228 3513 1497 
Q 3513 744 3044 326 
Q 2575 -91 1722 -91 
Q 1428 -91 1123 -41 
Q 819 9 494 109 
L 494 744 
Q 775 591 1075 516 
Q 1375 441 1709 441 
Q 2250 441 2565 725 
Q 2881 1009 2881 1497 
Q 2881 1984 2565 2268 
Q 2250 2553 1709 2553 
Q 1456 2553 1204 2497 
Q 953 2441 691 2322 
L 691 4666 
z
" id="DejaVuSans-35" transform="scale(0.015625)"/>
       </defs>
       <use xlink:href="#DejaVuSans-35"/>
       <use x="63.623047" xlink:href="#DejaVuSans-30"/>
       <use x="127.246094" xlink:href="#DejaVuSans-30"/>
       <use x="190.869141" xlink:href="#DejaVuSans-30"/>
      </g>
     </g>
    </g>
   </g>
   <g id="matplotlib.axis_2">
    <g id="ytick_1">
     <g id="line2d_7">
      <defs>
       <path d="M 0 0 
L -3.5 0 
" id="m5a8b95512d" style="stroke:#000000;stroke-width:0.8;"/>
      </defs>
      <g>
       <use style="stroke:#000000;stroke-width:0.8;" x="33.62625" xlink:href="#m5a8b95512d" y="164.656596"/>
      </g>
     </g>
     <g id="text_7">
      <!-- −2.0 -->
      <g transform="translate(7.2 167.695971)scale(0.08 -0.08)">
       <defs>
        <path d="M 678 2272 
L 4684 2272 
L 4684 1741 
L 678 1741 
L 678 2272 
z
" id="DejaVuSans-2212" transform="scale(0.015625)"/>
        <path d="M 684 794 
L 1344 794 
L 1344 0 
L 684 0 
L 684 794 
z
" id="DejaVuSans-2e" transform="scale(0.015625)"/>
       </defs>
       <use xlink:href="#DejaVuSans-2212"/>
       <use x="83.789062" xlink:href="#DejaVuSans-32"/>
       <use x="147.412109" xlink:href="#DejaVuSans-2e"/>
       <use x="179.199219" xlink:href="#DejaVuSans-30"/>
      </g>
     </g>
    </g>
    <g id="ytick_2">
     <g id="line2d_8">
      <g>
       <use style="stroke:#000000;stroke-width:0.8;" x="33.62625" xlink:href="#m5a8b95512d" y="138.50951"/>
      </g>
     </g>
     <g id="text_8">
      <!-- −1.5 -->
      <g transform="translate(7.2 141.548885)scale(0.08 -0.08)">
       <use xlink:href="#DejaVuSans-2212"/>
       <use x="83.789062" xlink:href="#DejaVuSans-31"/>
       <use x="147.412109" xlink:href="#DejaVuSans-2e"/>
       <use x="179.199219" xlink:href="#DejaVuSans-35"/>
      </g>
     </g>
    </g>
    <g id="ytick_3">
     <g id="line2d_9">
      <g>
       <use style="stroke:#000000;stroke-width:0.8;" x="33.62625" xlink:href="#m5a8b95512d" y="112.362423"/>
      </g>
     </g>
     <g id="text_9">
      <!-- −1.0 -->
      <g transform="translate(7.2 115.401798)scale(0.08 -0.08)">
       <use xlink:href="#DejaVuSans-2212"/>
       <use x="83.789062" xlink:href="#DejaVuSans-31"/>
       <use x="147.412109" xlink:href="#DejaVuSans-2e"/>
       <use x="179.199219" xlink:href="#DejaVuSans-30"/>
      </g>
     </g>
    </g>
    <g id="ytick_4">
     <g id="line2d_10">
      <g>
       <use style="stroke:#000000;stroke-width:0.8;" x="33.62625" xlink:href="#m5a8b95512d" y="86.215337"/>
      </g>
     </g>
     <g id="text_10">
      <!-- −0.5 -->
      <g transform="translate(7.2 89.254712)scale(0.08 -0.08)">
       <use xlink:href="#DejaVuSans-2212"/>
       <use x="83.789062" xlink:href="#DejaVuSans-30"/>
       <use x="147.412109" xlink:href="#DejaVuSans-2e"/>
       <use x="179.199219" xlink:href="#DejaVuSans-35"/>
      </g>
     </g>
    </g>
    <g id="ytick_5">
     <g id="line2d_11">
      <g>
       <use style="stroke:#000000;stroke-width:0.8;" x="33.62625" xlink:href="#m5a8b95512d" y="60.068251"/>
      </g>
     </g>
     <g id="text_11">
      <!-- 0.0 -->
      <g transform="translate(13.90375 63.107626)scale(0.08 -0.08)">
       <use xlink:href="#DejaVuSans-30"/>
       <use x="63.623047" xlink:href="#DejaVuSans-2e"/>
       <use x="95.410156" xlink:href="#DejaVuSans-30"/>
      </g>
     </g>
    </g>
    <g id="ytick_6">
     <g id="line2d_12">
      <g>
       <use style="stroke:#000000;stroke-width:0.8;" x="33.62625" xlink:href="#m5a8b95512d" y="33.921165"/>
      </g>
     </g>
     <g id="text_12">
      <!-- 0.5 -->
      <g transform="translate(13.90375 36.96054)scale(0.08 -0.08)">
       <use xlink:href="#DejaVuSans-30"/>
       <use x="63.623047" xlink:href="#DejaVuSans-2e"/>
       <use x="95.410156" xlink:href="#DejaVuSans-35"/>
      </g>
     </g>
    </g>
   </g>
   <g id="line2d_13">
    <path clip-path="url(#p8c25a3dbbd)" d="M 45.520921 99.550204 
L 45.758862 101.641488 
L 45.80645 101.119384 
L 45.854038 101.90254 
L 45.901626 101.380436 
L 46.044391 100.858332 
L 46.139567 101.90254 
L 46.187156 101.380436 
L 46.234744 101.90254 
L 46.282332 101.90254 
L 46.32992 103.210668 
L 46.377508 102.427512 
L 46.425097 102.427512 
L 46.663038 101.641488 
L 46.900979 103.732772 
L 47.186508 101.380436 
L 47.472037 102.688564 
L 47.567213 101.90254 
L 47.709978 100.858332 
L 47.805154 100.858332 
L 47.900331 101.119384 
L 47.947919 102.688564 
L 48.043096 102.427512 
L 48.090684 102.688564 
L 48.328625 99.550204 
L 48.518978 101.119384 
L 48.614154 102.427512 
L 48.70933 102.16646 
L 48.947271 98.503127 
L 49.185212 101.119384 
L 49.851447 97.197868 
L 50.089388 93.798455 
L 50.136976 93.798455 
L 50.184565 94.059507 
L 50.470094 88.307759 
L 50.517682 88.307759 
L 50.56527 88.56881 
L 50.755623 93.798455 
L 50.850799 94.320559 
L 51.08874 88.307759 
L 51.183917 91.446119 
L 51.612211 100.858332 
L 52.040504 105.301952 
L 52.088093 105.0409 
L 52.135681 105.301952 
L 52.326034 102.688564 
L 52.373622 103.996693 
L 52.42121 103.210668 
L 52.468798 102.949616 
L 52.659151 106.61008 
L 52.94468 103.210668 
L 52.992268 103.732772 
L 53.039857 103.732772 
L 53.230209 106.087977 
L 53.325386 103.996693 
L 53.46815 85.691502 
L 53.658503 58.499071 
L 53.706091 59.546147 
L 53.801268 63.206612 
L 53.848856 61.898483 
L 54.086797 30.520615 
L 54.134385 37.580492 
L 54.562679 168.579792 
L 54.753032 173.545516 
L 54.80062 173.023412 
L 54.895796 173.809437 
L 55.181326 159.689683 
L 55.752384 108.701365 
L 55.799972 109.223468 
L 55.942737 107.132184 
L 55.990325 107.918209 
L 56.037913 107.132184 
L 56.085501 107.393236 
L 56.323442 105.563004 
L 56.561383 107.918209 
L 56.608972 108.440313 
L 56.65656 108.179261 
L 56.704148 108.179261 
L 56.799324 108.701365 
L 56.846913 108.440313 
L 56.894501 108.440313 
L 57.322795 114.192061 
L 57.370383 114.192061 
L 57.655912 117.852526 
L 57.798677 119.160654 
L 57.846265 119.94381 
L 57.893853 119.421706 
L 58.084206 118.899602 
L 58.179382 120.729834 
L 58.322147 122.299014 
L 58.560088 119.421706 
L 58.607676 119.682758 
L 58.845617 115.50019 
L 58.988382 113.147854 
L 59.226323 103.732772 
L 59.416676 96.672895 
L 59.464264 96.936816 
L 59.55944 95.889739 
L 59.607028 96.150791 
L 59.702205 94.059507 
L 59.940146 87.521734 
L 59.987734 87.782786 
L 60.08291 90.660095 
L 60.36844 101.119384 
L 60.558792 102.427512 
L 60.606381 102.16646 
L 60.749145 100.333359 
L 60.844322 101.119384 
L 60.89191 100.59728 
L 61.177439 107.132184 
L 61.510556 105.301952 
L 61.558145 105.563004 
L 61.653321 105.826925 
L 61.796086 107.393236 
L 61.891262 106.61008 
L 61.93885 106.871132 
L 62.034027 106.871132 
L 62.081615 107.132184 
L 62.129203 106.61008 
L 62.224379 107.918209 
L 62.271968 107.393236 
L 62.367144 106.61008 
L 62.414732 106.871132 
L 62.46232 106.871132 
L 62.652673 105.826925 
L 62.700261 106.087977 
L 62.890614 107.393236 
L 63.176143 104.779848 
L 63.366496 106.871132 
L 63.604437 105.301952 
L 63.889966 104.257744 
L 64.032731 105.301952 
L 64.080319 104.779848 
L 64.175496 103.732772 
L 64.31826 102.16646 
L 64.413437 103.210668 
L 64.508613 103.732772 
L 64.603789 99.811256 
L 64.889319 60.329303 
L 64.936907 61.376379 
L 65.032083 63.728715 
L 65.12726 51.178142 
L 65.270024 27.907227 
L 65.365201 49.086858 
L 65.698318 164.655407 
L 65.983847 170.671076 
L 66.316965 160.472839 
L 66.459729 140.079233 
L 66.69767 108.179261 
L 66.840435 107.132184 
L 66.888023 107.393236 
L 66.935611 107.132184 
L 67.078376 104.257744 
L 67.125964 104.518796 
L 67.173552 104.257744 
L 67.221141 103.732772 
L 67.459082 107.132184 
L 67.554258 105.826925 
L 67.601846 106.087977 
L 67.649434 105.0409 
L 67.744611 105.301952 
L 68.125316 112.622881 
L 68.220493 112.361829 
L 68.268081 111.578673 
L 68.315669 112.361829 
L 68.410846 113.408905 
L 68.696375 119.160654 
L 68.743963 118.63855 
L 69.172257 121.51299 
L 69.315021 121.251938 
L 69.505374 119.94381 
L 70.266785 104.779848 
L 70.314374 105.0409 
L 70.552315 101.380436 
L 70.695079 99.811256 
L 70.742667 100.333359 
L 70.790256 100.072307 
L 70.837844 100.072307 
L 70.980608 101.119384 
L 71.123373 99.811256 
L 71.170961 99.550204 
L 71.45649 101.641488 
L 71.504079 101.90254 
L 71.74202 100.072307 
L 71.789608 100.072307 
L 71.932372 101.90254 
L 71.979961 101.641488 
L 72.122725 102.949616 
L 72.313078 99.811256 
L 72.360666 100.072307 
L 72.408254 99.811256 
L 72.551019 102.16646 
L 72.693784 101.119384 
L 72.78896 100.333359 
L 72.836548 101.380436 
L 72.884136 100.858332 
L 72.931725 99.289152 
L 73.026901 99.550204 
L 73.122077 101.641488 
L 73.169666 100.858332 
L 73.31243 100.59728 
L 73.360018 100.858332 
L 73.455195 99.811256 
L 73.597959 100.59728 
L 73.645548 100.072307 
L 73.693136 100.333359 
L 73.8359 101.641488 
L 73.978665 100.072307 
L 74.026253 100.072307 
L 74.073841 99.811256 
L 74.311782 101.641488 
L 74.597312 99.289152 
L 74.692488 99.811256 
L 74.740076 99.550204 
L 74.882841 100.858332 
L 74.930429 100.858332 
L 74.978017 101.119384 
L 75.025605 100.858332 
L 75.263546 99.289152 
L 75.549076 101.641488 
L 75.739428 99.0281 
L 75.787017 99.0281 
L 75.834605 98.767048 
L 76.120134 101.380436 
L 76.262899 100.333359 
L 76.310487 98.767048 
L 76.358075 100.333359 
L 76.453252 99.550204 
L 76.643604 101.90254 
L 76.691193 101.119384 
L 76.833957 99.550204 
L 76.881545 99.811256 
L 76.929134 99.811256 
L 76.976722 100.333359 
L 77.02431 100.072307 
L 77.071898 100.072307 
L 77.214663 100.858332 
L 77.405016 99.289152 
L 77.452604 98.767048 
L 77.690545 101.380436 
L 78.023662 100.072307 
L 78.07125 100.333359 
L 78.785073 93.012431 
L 78.88025 93.276351 
L 79.165779 89.615887 
L 79.308544 93.276351 
L 79.451308 96.672895 
L 79.641661 93.798455 
L 79.784426 89.351966 
L 79.832014 90.399043 
L 80.117543 101.641488 
L 80.165131 101.119384 
L 80.212719 101.641488 
L 80.45066 104.518796 
L 80.498249 104.518796 
L 80.545837 105.0409 
L 80.593425 104.779848 
L 80.641013 104.779848 
L 80.73619 104.257744 
L 80.783778 104.518796 
L 80.831366 104.257744 
L 80.878954 103.47172 
L 80.926542 103.996693 
L 81.116895 105.563004 
L 81.307248 106.087977 
L 81.450013 103.996693 
L 81.640365 105.301952 
L 81.78313 107.918209 
L 81.878306 104.518796 
L 82.211424 60.329303 
L 82.3066 65.036844 
L 82.354188 65.297896 
L 82.401777 63.728715 
L 82.592129 36.536284 
L 82.639718 44.379317 
L 83.020423 170.932128 
L 83.068011 170.410024 
L 83.1156 170.146104 
L 83.448717 173.545516 
L 83.543893 170.932128 
L 83.686658 160.733891 
L 84.114952 113.931009 
L 84.352893 110.531597 
L 84.543246 109.487389 
L 84.590834 110.531597 
L 84.638422 110.270545 
L 84.68601 109.748441 
L 84.733598 110.531597 
L 84.781187 109.487389 
L 84.876363 108.440313 
L 85.257069 113.147854 
L 85.304657 112.361829 
L 85.352245 112.883933 
L 85.590186 114.717034 
L 85.875715 118.899602 
L 86.066068 119.94381 
L 86.161245 120.468782 
L 86.304009 122.560066 
L 86.494362 123.868195 
L 86.54195 123.604274 
L 86.684715 124.912402 
L 86.732303 124.651351 
L 86.827479 124.390299 
L 86.922656 125.437375 
L 87.160597 121.774042 
L 87.208185 121.774042 
L 87.826832 110.270545 
L 87.969596 109.487389 
L 88.064773 110.009493 
L 88.445478 103.996693 
L 88.540655 104.779848 
L 88.588243 104.257744 
L 88.683419 105.301952 
L 88.873772 102.688564 
L 89.016537 103.47172 
L 89.064125 103.47172 
L 89.254478 105.826925 
L 89.302066 105.563004 
L 89.492419 103.996693 
L 89.635183 104.779848 
L 89.825536 106.087977 
L 89.920712 105.826925 
L 89.968301 105.826925 
L 90.301418 107.393236 
L 90.349006 106.871132 
L 90.396594 107.657157 
L 90.444183 107.393236 
L 90.634535 106.087977 
L 90.824888 108.179261 
L 90.967653 106.61008 
L 91.015241 106.61008 
L 91.158006 105.301952 
L 91.30077 105.826925 
L 91.491123 107.132184 
L 91.633888 105.0409 
L 91.681476 105.301952 
L 91.729064 104.779848 
L 91.82424 106.087977 
L 91.871829 105.301952 
L 91.919417 106.087977 
L 92.014593 107.393236 
L 92.062181 106.61008 
L 92.347711 102.688564 
L 92.538063 104.518796 
L 92.63324 105.0409 
L 92.680828 104.779848 
L 92.728416 105.301952 
L 92.966357 102.688564 
L 93.204298 104.779848 
L 93.489827 102.949616 
L 93.537416 103.210668 
L 93.727768 104.779848 
L 93.775357 104.518796 
L 94.108474 98.242075 
L 94.156062 98.503127 
L 94.20365 99.0281 
L 94.536768 94.059507 
L 94.727121 93.012431 
L 95.060238 98.503127 
L 95.203003 97.719971 
L 95.440944 94.059507 
L 95.869238 103.47172 
L 96.012002 105.826925 
L 96.05959 106.871132 
L 96.107179 106.349029 
L 96.154767 106.087977 
L 96.297531 104.779848 
L 96.487884 106.349029 
L 96.630649 108.440313 
L 96.821002 106.087977 
L 97.011354 105.0409 
L 97.249295 106.871132 
L 97.439648 105.0409 
L 97.487236 105.301952 
L 97.534825 105.563004 
L 97.630001 100.333359 
L 97.91553 58.238019 
L 97.963118 60.068251 
L 98.010707 60.590355 
L 98.058295 60.068251 
L 98.248648 38.366517 
L 98.296236 43.335109 
L 98.486589 134.063563 
L 98.676941 168.840844 
L 98.819706 170.146104 
L 99.010059 172.240256 
L 99.295588 164.394355 
L 99.390764 157.59553 
L 99.77147 112.361829 
L 99.819058 112.622881 
L 99.914235 111.317621 
L 99.961823 111.839725 
L 100.342528 106.871132 
L 100.390117 107.918209 
L 100.532881 108.962417 
L 100.580469 108.962417 
L 100.723234 110.009493 
L 100.770822 110.009493 
L 100.865999 109.223468 
L 100.913587 109.487389 
L 101.056351 111.578673 
L 101.294292 115.761241 
L 101.341881 115.239138 
L 101.389469 116.283345 
L 101.437057 115.761241 
L 101.484645 115.761241 
L 101.865351 120.990886 
L 102.008115 120.729834 
L 102.198468 122.037963 
L 102.246056 123.604274 
L 102.341233 123.08217 
L 102.388821 123.604274 
L 102.579174 121.251938 
L 102.626762 121.51299 
L 102.67435 121.51299 
L 102.817115 120.729834 
L 103.292997 110.009493 
L 103.435761 108.701365 
L 103.673702 104.779848 
L 103.768879 103.732772 
L 103.911644 102.16646 
L 104.054408 103.210668 
L 104.292349 100.333359 
L 104.339937 100.59728 
L 104.387526 100.333359 
L 104.482702 100.072307 
L 104.720643 101.641488 
L 104.768231 101.119384 
L 104.815819 100.858332 
L 104.910996 102.16646 
L 104.958584 101.119384 
L 105.006172 101.90254 
L 105.101349 101.90254 
L 105.196525 102.688564 
L 105.244113 102.427512 
L 105.386878 101.90254 
L 105.434466 101.90254 
L 105.529642 101.119384 
L 105.767583 103.210668 
L 105.815172 103.210668 
L 106.005524 101.119384 
L 106.053113 100.858332 
L 106.338642 102.949616 
L 106.38623 102.949616 
L 106.576583 100.072307 
L 106.719347 101.119384 
L 106.9097 102.688564 
L 106.957288 102.427512 
L 107.147641 100.59728 
L 107.242818 100.333359 
L 107.43317 101.641488 
L 107.480759 101.380436 
L 107.528347 101.641488 
L 107.575935 102.16646 
L 107.813876 100.072307 
L 108.099405 101.119384 
L 108.146993 100.59728 
L 108.194582 100.858332 
L 108.24217 100.858332 
L 108.289758 101.119384 
L 108.337346 100.858332 
L 108.527699 100.858332 
L 108.622875 101.380436 
L 108.860816 99.550204 
L 109.098757 101.641488 
L 109.241522 100.333359 
L 109.431875 97.719971 
L 109.622228 95.106583 
L 109.717404 94.581611 
L 109.764992 96.150791 
L 109.81258 94.581611 
L 110.145698 88.046707 
L 110.193286 88.56881 
L 110.288462 91.182198 
L 110.526403 95.628687 
L 110.764344 90.660095 
L 110.811933 90.137991 
L 111.097462 98.503127 
L 111.14505 97.981023 
L 111.192638 98.503127 
L 111.478167 103.732772 
L 111.716108 104.779848 
L 111.763697 102.427512 
L 111.858873 103.210668 
L 111.954049 105.0409 
L 112.001638 104.518796 
L 112.096814 105.301952 
L 112.334755 103.210668 
L 112.382343 102.688564 
L 112.572696 104.779848 
L 112.620284 104.518796 
L 112.667872 104.779848 
L 112.715461 104.779848 
L 112.763049 104.518796 
L 112.810637 105.0409 
L 113.048578 100.333359 
L 113.334107 58.760123 
L 113.429284 62.159535 
L 113.476872 64.250819 
L 113.52446 63.989767 
L 113.714813 34.706052 
L 113.809989 42.549085 
L 114.238283 165.441431 
L 114.476224 171.19318 
L 114.85693 154.982142 
L 115.237635 110.270545 
L 115.3804 111.053701 
L 115.618341 107.132184 
L 115.761106 106.087977 
L 115.999047 108.701365 
L 116.046635 108.179261 
L 116.474929 111.053701 
L 116.665281 113.408905 
L 116.855634 115.50019 
L 116.903222 114.717034 
L 116.950811 115.50019 
L 117.093575 117.591474 
L 117.283928 119.94381 
L 117.331516 119.421706 
L 117.379104 120.20773 
L 117.426693 119.94381 
L 117.474281 119.421706 
L 117.664634 122.037963 
L 117.807398 122.821118 
L 117.902575 122.037963 
L 118.188104 117.852526 
L 118.235692 118.63855 
L 118.28328 118.113578 
L 118.330868 117.852526 
L 118.80675 106.61008 
L 118.854339 106.61008 
L 118.901927 106.871132 
L 119.187456 102.949616 
L 119.235044 103.210668 
L 119.425397 102.688564 
L 119.472985 103.47172 
L 119.520573 103.210668 
L 119.758514 100.59728 
L 119.948867 102.688564 
L 119.996455 102.688564 
L 120.044044 103.210668 
L 120.091632 102.949616 
L 120.329573 100.59728 
L 120.66269 103.47172 
L 120.710278 103.47172 
L 120.757867 103.996693 
L 120.805455 103.732772 
L 120.948219 102.949616 
L 120.995808 102.949616 
L 121.233749 105.0409 
L 121.328925 104.518796 
L 121.376513 104.779848 
L 121.519278 102.427512 
L 121.662042 104.257744 
L 121.804807 103.47172 
L 121.852395 104.257744 
L 121.899983 103.210668 
L 121.947572 103.210668 
L 121.99516 101.90254 
L 122.042748 102.949616 
L 122.090336 102.688564 
L 122.137924 104.257744 
L 122.185513 102.688564 
L 122.375866 103.996693 
L 122.423454 103.996693 
L 122.566218 103.47172 
L 122.613807 103.732772 
L 122.661395 103.47172 
L 122.756571 102.427512 
L 122.804159 103.732772 
L 122.851748 103.47172 
L 123.089689 101.90254 
L 123.232453 101.380436 
L 123.375218 102.427512 
L 123.470394 103.210668 
L 123.517982 102.949616 
L 123.803512 100.59728 
L 123.8511 101.119384 
L 123.898688 100.072307 
L 124.089041 103.996693 
L 124.326982 100.072307 
L 124.564923 102.949616 
L 124.660099 102.427512 
L 124.850452 97.45892 
L 124.993217 96.411843 
L 125.135981 95.367635 
L 125.183569 95.628687 
L 125.469099 89.876939 
L 125.516687 90.660095 
L 125.754628 96.936816 
L 125.849804 96.150791 
L 125.992569 92.229275 
L 126.087745 90.660095 
L 126.23051 95.367635 
L 126.373274 100.59728 
L 126.420863 100.333359 
L 126.896745 106.349029 
L 126.944333 106.087977 
L 127.134686 102.949616 
L 127.467803 106.871132 
L 127.515391 106.61008 
L 127.753332 104.518796 
L 127.848509 104.779848 
L 127.896097 104.518796 
L 127.943685 104.779848 
L 128.038861 105.826925 
L 128.08645 105.563004 
L 128.134038 105.301952 
L 128.181626 105.826925 
L 128.229214 105.301952 
L 128.324391 104.257744 
L 128.467155 91.182198 
L 128.705096 56.407787 
L 128.752684 56.929891 
L 128.847861 61.115327 
L 128.943037 53.008374 
L 129.085802 37.058388 
L 129.180978 60.068251 
L 129.466507 168.054819 
L 129.704448 170.932128 
L 129.799625 172.76236 
L 129.847213 172.501308 
L 130.085154 167.793768 
L 130.227919 157.073426 
L 130.656212 111.578673 
L 130.703801 112.100777 
L 130.846565 110.792649 
L 131.132094 107.132184 
L 131.274859 107.657157 
L 131.370035 107.657157 
L 131.5128 108.440313 
L 131.893506 111.053701 
L 132.416976 117.330422 
L 132.607329 120.990886 
L 132.702505 120.468782 
L 132.750093 120.729834 
L 133.083211 122.821118 
L 133.178387 124.912402 
L 133.225975 123.868195 
L 133.273564 123.868195 
L 133.321152 124.129247 
L 133.654269 119.682758 
L 133.749446 119.682758 
L 133.844622 117.852526 
L 134.225328 109.223468 
L 134.272916 109.223468 
L 134.368092 110.009493 
L 134.70121 103.210668 
L 134.796386 103.210668 
L 134.939151 103.996693 
L 135.129503 102.688564 
L 135.177092 102.16646 
L 135.367444 103.47172 
L 135.510209 102.427512 
L 135.605385 102.427512 
L 135.74815 102.688564 
L 135.795738 102.427512 
L 136.081267 104.779848 
L 136.319208 102.949616 
L 136.509561 104.518796 
L 136.557149 105.301952 
L 136.604738 105.0409 
L 136.890267 102.688564 
L 137.128208 105.0409 
L 137.175796 105.0409 
L 137.223384 104.779848 
L 137.270972 105.301952 
L 137.508913 102.16646 
L 137.556502 101.90254 
L 137.746854 103.996693 
L 137.794443 103.732772 
L 137.937207 102.427512 
L 137.984795 102.688564 
L 138.079972 101.90254 
L 138.365501 104.518796 
L 138.603442 101.380436 
L 138.793795 102.427512 
L 138.888971 102.949616 
L 138.936559 101.90254 
L 139.031736 102.16646 
L 139.079324 102.949616 
L 139.222089 101.380436 
L 139.412441 102.949616 
L 139.697971 100.858332 
L 139.745559 100.858332 
L 139.935912 101.90254 
L 139.9835 101.641488 
L 140.316617 95.889739 
L 140.364205 96.411843 
L 140.411794 95.628687 
L 140.50697 95.889739 
L 140.554558 95.889739 
L 140.602146 96.150791 
L 140.697323 94.842663 
L 140.887676 90.660095 
L 141.125617 96.411843 
L 141.173205 97.719971 
L 141.220793 97.197868 
L 141.506322 91.707171 
L 141.601499 94.581611 
L 141.934616 101.90254 
L 141.982204 101.119384 
L 142.029793 101.90254 
L 142.410498 105.0409 
L 142.600851 104.257744 
L 142.743616 106.087977 
L 142.791204 105.563004 
L 142.838792 105.563004 
L 142.981557 105.301952 
L 143.076733 105.301952 
L 143.171909 104.257744 
L 143.314674 106.087977 
L 143.362262 105.563004 
L 143.552615 107.657157 
L 143.742968 102.16646 
L 144.028497 59.021175 
L 144.171262 61.115327 
L 144.314026 43.074057 
L 144.409203 37.580492 
L 144.504379 66.344972 
L 144.789908 164.655407 
L 144.932673 165.702483 
L 145.218202 169.885052 
L 145.26579 169.624 
L 145.503731 155.765298 
L 145.979613 112.100777 
L 146.027201 112.100777 
L 146.07479 112.361829 
L 146.312731 109.748441 
L 146.360319 109.748441 
L 146.407907 110.009493 
L 146.503083 108.701365 
L 146.550672 109.223468 
L 146.741024 110.792649 
L 146.931377 113.408905 
L 147.074142 112.622881 
L 147.12173 113.147854 
L 147.169318 112.361829 
L 147.216906 113.147854 
L 147.597612 119.94381 
L 147.692788 119.160654 
L 147.978318 122.560066 
L 148.121082 125.698427 
L 148.16867 125.437375 
L 148.311435 124.129247 
L 148.549376 125.698427 
L 148.596964 125.173454 
L 148.644552 125.698427 
L 148.692141 126.220531 
L 149.072846 119.682758 
L 149.120434 119.682758 
L 149.643905 110.270545 
L 149.786669 108.962417 
L 149.881846 107.393236 
L 150.02461 104.518796 
L 150.072199 105.563004 
L 150.167375 105.301952 
L 150.31014 105.0409 
L 150.357728 105.563004 
L 150.405316 105.0409 
L 150.500492 104.518796 
L 150.595669 102.688564 
L 150.643257 102.949616 
L 150.881198 105.563004 
L 150.928786 105.301952 
L 151.166727 103.47172 
L 151.214315 104.257744 
L 151.595021 107.657157 
L 151.737786 104.779848 
L 151.785374 105.0409 
L 151.832962 105.0409 
L 152.070903 107.132184 
L 152.213668 106.61008 
L 152.308844 105.563004 
L 152.356432 105.826925 
L 152.546785 107.657157 
L 152.641961 106.871132 
L 152.68955 107.132184 
L 152.737138 107.393236 
L 152.927491 105.0409 
L 152.975079 106.61008 
L 153.070255 106.087977 
L 153.21302 107.657157 
L 153.403373 105.301952 
L 153.498549 103.732772 
L 153.593725 105.301952 
L 153.641314 105.0409 
L 153.831666 106.349029 
L 154.022019 103.47172 
L 154.25996 106.087977 
L 154.402725 105.0409 
L 154.450313 105.301952 
L 154.640666 103.996693 
L 154.688254 104.257744 
L 154.735842 103.732772 
L 154.926195 106.087977 
L 155.211724 103.210668 
L 155.449665 105.301952 
L 155.59243 102.949616 
L 155.735194 99.289152 
L 155.830371 100.072307 
L 155.877959 99.550204 
L 155.925547 99.811256 
L 155.973135 100.858332 
L 156.020724 100.072307 
L 156.068312 100.072307 
L 156.353841 92.751379 
L 156.401429 93.012431 
L 156.496606 94.320559 
L 156.734547 100.333359 
L 156.782135 100.072307 
L 157.067664 94.320559 
L 157.258017 104.518796 
L 157.305605 104.257744 
L 157.543546 105.826925 
L 157.591134 106.087977 
L 157.781487 109.223468 
L 157.829075 109.487389 
L 157.924252 107.918209 
L 158.019428 108.440313 
L 158.162193 109.223468 
L 158.304957 108.701365 
L 158.352545 109.487389 
L 158.400134 108.701365 
L 158.447722 108.701365 
L 158.542898 109.487389 
L 158.590486 109.223468 
L 158.685663 107.657157 
L 158.733251 108.440313 
L 158.923604 110.009493 
L 158.971192 109.748441 
L 159.01878 110.792649 
L 159.161545 108.962417 
L 159.304309 110.792649 
L 159.399486 103.996693 
L 159.685015 66.344972 
L 159.732603 68.175204 
L 159.780192 69.219412 
L 159.82778 68.436256 
L 160.018133 40.196749 
L 160.065721 42.026981 
L 160.208485 105.301952 
L 160.398838 171.715284 
L 160.494015 174.592592 
L 160.541603 173.809437 
L 160.636779 173.284464 
L 160.684367 173.545516 
L 160.731956 173.809437 
L 160.922308 170.146104 
L 161.112661 157.859451 
L 161.493367 115.761241 
L 161.68372 113.931009 
L 162.064425 110.270545 
L 162.112013 111.578673 
L 162.159602 110.792649 
L 162.20719 110.531597 
L 162.349954 112.361829 
L 162.445131 113.147854 
L 162.492719 111.839725 
L 162.540307 112.622881 
L 162.587895 112.361829 
L 162.683072 113.931009 
L 162.968601 119.160654 
L 163.063777 118.63855 
L 163.25413 120.729834 
L 163.301718 120.468782 
L 163.539659 125.173454 
L 163.730012 123.604274 
L 163.967953 127.789711 
L 164.110718 127.789711 
L 164.301071 124.390299 
L 164.348659 124.651351 
L 164.491423 122.821118 
L 164.824541 118.377498 
L 165.014894 113.147854 
L 165.062482 113.408905 
L 165.205246 111.053701 
L 165.252835 111.317621 
L 165.681128 107.132184 
L 165.776305 108.179261 
L 165.823893 107.918209 
L 166.061834 105.826925 
L 166.109422 106.349029 
L 166.15701 105.826925 
L 166.204599 106.087977 
L 166.394951 107.918209 
L 166.632892 105.301952 
L 166.680481 105.563004 
L 167.013598 108.701365 
L 167.156363 106.871132 
L 167.48948 109.487389 
L 167.775009 107.657157 
L 167.822597 106.871132 
L 167.870186 107.393236 
L 168.108127 109.748441 
L 168.298479 107.393236 
L 168.346068 107.657157 
L 168.441244 105.563004 
L 168.584009 107.918209 
L 168.631597 108.179261 
L 168.679185 109.223468 
L 168.726773 108.440313 
L 168.917126 106.349029 
L 168.964714 106.349029 
L 169.012303 105.563004 
L 169.155067 107.132184 
L 169.202655 107.657157 
L 169.250244 107.132184 
L 169.440596 104.779848 
L 169.583361 106.087977 
L 169.821302 108.179261 
L 170.106831 105.0409 
L 170.344772 107.393236 
L 170.582713 104.518796 
L 170.868242 105.826925 
L 170.963419 104.257744 
L 171.153772 100.072307 
L 171.248948 100.333359 
L 171.296536 99.0281 
L 171.344124 99.811256 
L 171.486889 98.503127 
L 171.772418 94.059507 
L 171.820006 94.842663 
L 172.057947 100.858332 
L 172.105536 99.811256 
L 172.295888 94.581611 
L 172.343477 94.842663 
L 172.391065 94.059507 
L 172.77177 104.779848 
L 172.819359 104.518796 
L 172.866947 104.779848 
L 173.247652 109.748441 
L 173.438005 107.132184 
L 173.485593 107.132184 
L 173.771123 111.053701 
L 173.961475 108.440313 
L 174.056652 106.871132 
L 174.10424 108.701365 
L 174.199416 108.440313 
L 174.342181 110.270545 
L 174.389769 110.009493 
L 174.580122 107.393236 
L 174.722887 93.012431 
L 174.960828 60.851407 
L 175.008416 62.159535 
L 175.103592 65.036844 
L 175.198769 57.976967 
L 175.341533 39.410724 
L 175.389121 43.857213 
L 175.531886 109.748441 
L 175.722239 171.454232 
L 176.102944 175.900721 
L 176.150533 175.375748 
L 176.436062 167.271664 
L 176.626415 143.739697 
L 176.911944 115.239138 
L 177.054708 116.547266 
L 177.292649 114.978086 
L 177.483002 111.317621 
L 177.53059 111.317621 
L 177.673355 112.361829 
L 177.81612 114.453113 
L 177.863708 114.192061 
L 177.911296 114.192061 
L 177.958884 114.717034 
L 178.006473 114.453113 
L 178.101649 114.192061 
L 178.482355 120.468782 
L 178.577531 118.63855 
L 178.625119 119.160654 
L 178.910648 124.912402 
L 178.958237 124.129247 
L 179.148589 125.959479 
L 179.196178 125.698427 
L 179.243766 125.959479 
L 179.291354 126.220531 
L 179.38653 128.050763 
L 179.434119 127.528659 
L 179.529295 127.003687 
L 179.767236 123.868195 
L 179.814824 123.604274 
L 179.862412 123.868195 
L 180.005177 124.651351 
L 180.338294 114.453113 
L 180.385883 114.453113 
L 180.956941 106.349029 
L 181.004529 106.349029 
L 181.099706 106.087977 
L 181.24247 106.871132 
L 181.432823 104.257744 
L 181.575588 104.518796 
L 181.623176 104.257744 
L 181.813529 106.61008 
L 181.861117 106.61008 
L 182.003881 104.518796 
L 182.194234 106.61008 
L 182.241822 106.087977 
L 182.289411 106.871132 
L 182.336999 105.826925 
L 182.479763 106.61008 
L 182.527352 106.61008 
L 182.622528 105.826925 
L 182.812881 107.657157 
L 183.003234 106.087977 
L 183.050822 106.349029 
L 183.193586 105.563004 
L 183.336351 107.132184 
L 183.383939 106.871132 
L 183.479116 107.393236 
L 183.717057 104.257744 
L 183.812233 104.518796 
L 183.907409 106.087977 
L 183.954998 107.918209 
L 184.050174 107.657157 
L 184.240527 104.779848 
L 184.288115 105.0409 
L 184.335703 103.732772 
L 184.383291 103.996693 
L 184.526056 105.301952 
L 184.621232 106.349029 
L 184.668821 105.826925 
L 184.716409 106.087977 
L 184.906762 103.47172 
L 185.049526 104.779848 
L 185.097114 105.301952 
L 185.144703 104.779848 
L 185.192291 104.779848 
L 185.239879 105.301952 
L 185.430232 103.47172 
L 185.525408 104.257744 
L 185.572996 103.996693 
L 185.620585 103.210668 
L 185.763349 105.826925 
L 185.810937 105.0409 
L 185.906114 105.301952 
L 186.381996 99.811256 
L 186.429584 100.858332 
L 186.667525 96.672895 
L 186.953054 94.059507 
L 187.000642 94.320559 
L 187.238584 100.072307 
L 187.476525 96.411843 
L 187.571701 94.320559 
L 187.619289 95.367635 
L 188.142759 107.918209 
L 188.237936 107.393236 
L 188.3807 106.087977 
L 188.66623 110.270545 
L 188.856582 107.132184 
L 188.904171 107.393236 
L 188.951759 107.132184 
L 189.142112 108.440313 
L 189.237288 108.179261 
L 189.332464 108.440313 
L 189.475229 106.871132 
L 189.522817 107.393236 
L 189.617994 108.962417 
L 189.665582 108.440313 
L 189.760758 102.949616 
L 190.046287 57.454863 
L 190.093876 58.760123 
L 190.189052 61.376379 
L 190.284228 51.178142 
L 190.379405 38.88862 
L 190.426993 40.979905 
L 190.569758 101.380436 
L 190.76011 164.655407 
L 191.093228 169.885052 
L 191.140816 169.624 
L 191.331169 168.579792 
L 191.426345 164.133303 
L 191.56911 147.400161 
L 191.854639 113.408905 
L 191.997404 114.453113 
L 192.044992 114.453113 
L 192.187756 112.361829 
L 192.330521 110.009493 
L 192.61605 113.408905 
L 192.711227 113.147854 
L 192.758815 113.147854 
L 192.901579 112.100777 
L 192.949168 112.622881 
L 193.187109 116.547266 
L 193.234697 116.283345 
L 193.377461 117.06937 
L 193.42505 117.06937 
L 193.472638 117.330422 
L 193.662991 120.20773 
L 193.710579 120.468782 
L 193.996108 124.390299 
L 194.043696 124.390299 
L 194.329225 127.528659 
L 194.47199 126.742635 
L 194.519578 127.267607 
L 194.567166 125.959479 
L 194.614755 126.481583 
L 194.662343 126.742635 
L 194.805107 125.437375 
L 194.852696 125.959479 
L 194.900284 125.698427 
L 195.280989 117.852526 
L 195.51893 114.192061 
L 195.852048 108.440313 
L 195.994812 109.223468 
L 196.137577 106.61008 
L 196.32793 104.257744 
L 196.375518 104.257744 
L 196.423106 103.996693 
L 196.470695 104.518796 
L 196.518283 104.257744 
L 196.565871 104.257744 
L 196.661047 104.779848 
L 196.708636 104.518796 
L 196.898988 102.688564 
L 197.136929 104.518796 
L 197.232106 104.257744 
L 197.279694 104.518796 
L 197.422459 103.996693 
L 197.470047 103.996693 
L 197.612811 105.0409 
L 197.707988 105.0409 
L 197.803164 105.826925 
L 198.041105 104.257744 
L 198.231458 106.087977 
L 198.421811 107.393236 
L 198.564575 105.0409 
L 198.612164 104.518796 
L 198.659752 104.779848 
L 198.70734 105.0409 
L 198.754928 106.349029 
L 198.802516 106.087977 
L 198.850105 105.826925 
L 198.945281 107.393236 
L 198.992869 106.871132 
L 199.135634 104.257744 
L 199.183222 104.257744 
L 199.325987 105.301952 
L 199.373575 104.779848 
L 199.421163 105.301952 
L 199.468751 105.826925 
L 199.516339 105.301952 
L 199.563928 105.0409 
L 199.611516 105.563004 
L 199.659104 105.301952 
L 199.75428 103.210668 
L 199.849457 103.996693 
L 199.897045 103.47172 
L 200.087398 105.563004 
L 200.230162 103.732772 
L 200.277751 103.732772 
L 200.658456 105.301952 
L 200.848809 102.949616 
L 200.943985 102.949616 
L 201.08675 103.996693 
L 201.562632 98.503127 
L 201.657808 98.767048 
L 201.705397 99.811256 
L 201.752985 98.503127 
L 201.990926 91.446119 
L 202.038514 92.490327 
L 202.324043 99.550204 
L 202.561984 92.490327 
L 202.657161 94.059507 
L 202.94269 105.301952 
L 203.037866 104.779848 
L 203.085454 104.518796 
L 203.46616 108.179261 
L 203.561336 107.132184 
L 203.608925 107.657157 
L 203.799277 107.132184 
L 204.037218 109.223468 
L 204.179983 108.440313 
L 204.227571 108.440313 
L 204.370336 106.349029 
L 204.417924 106.349029 
L 204.655865 108.962417 
L 204.703453 108.701365 
L 204.751041 107.132184 
L 204.79863 107.393236 
L 204.941394 108.440313 
L 204.988982 108.701365 
L 205.084159 102.949616 
L 205.417276 63.467664 
L 205.464864 65.558948 
L 205.512453 63.728715 
L 205.702805 37.844413 
L 205.750394 45.165342 
L 206.131099 171.19318 
L 206.178688 169.885052 
L 206.36904 171.715284 
L 206.559393 170.146104 
L 206.749746 159.950735 
L 207.17804 113.669957 
L 207.225628 113.931009 
L 207.273216 113.931009 
L 207.320804 113.669957 
L 207.558745 110.531597 
L 207.606334 110.792649 
L 207.749098 109.223468 
L 207.987039 112.100777 
L 208.034627 112.100777 
L 208.177392 112.361829 
L 208.272568 111.578673 
L 208.320157 112.100777 
L 208.415333 112.883933 
L 208.796039 118.377498 
L 208.843627 117.852526 
L 209.367097 124.912402 
L 209.509862 124.390299 
L 209.747803 125.959479 
L 209.795391 126.220531 
L 210.414037 118.63855 
L 210.747155 111.839725 
L 211.080272 107.132184 
L 211.318213 104.518796 
L 211.508566 105.826925 
L 211.698919 103.47172 
L 211.841683 102.688564 
L 211.889272 102.688564 
L 212.127213 104.257744 
L 212.174801 104.257744 
L 212.317565 102.949616 
L 212.507918 104.518796 
L 212.555506 104.779848 
L 212.603095 105.826925 
L 212.650683 105.301952 
L 212.698271 105.301952 
L 212.745859 105.563004 
L 212.793447 105.301952 
L 212.841036 104.257744 
L 212.888624 104.518796 
L 213.126565 106.349029 
L 213.269329 106.871132 
L 213.459682 105.0409 
L 213.50727 105.0409 
L 213.554859 104.779848 
L 213.7928 106.61008 
L 213.840388 106.349029 
L 213.983152 103.996693 
L 214.030741 104.257744 
L 214.173505 105.563004 
L 214.268682 104.518796 
L 214.31627 105.301952 
L 214.363858 104.779848 
L 214.601799 102.427512 
L 214.649387 102.688564 
L 214.83974 104.518796 
L 214.887328 104.257744 
L 214.934916 104.257744 
L 215.172858 101.641488 
L 215.220446 102.16646 
L 215.268034 102.427512 
L 215.410799 103.996693 
L 215.458387 103.732772 
L 215.505975 104.779848 
L 215.64874 102.16646 
L 215.696328 102.949616 
L 215.743916 101.90254 
L 215.839092 101.380436 
L 215.886681 102.688564 
L 215.934269 101.90254 
L 215.981857 101.641488 
L 216.029445 102.16646 
L 216.077033 101.641488 
L 216.410151 96.411843 
L 216.600504 95.106583 
L 216.790856 90.399043 
L 216.886033 90.660095 
L 217.171562 96.672895 
L 217.409503 90.137991 
L 217.457091 90.399043 
L 217.837797 103.47172 
L 217.885385 102.949616 
L 218.075738 103.996693 
L 218.123326 103.732772 
L 218.313679 107.393236 
L 218.408855 108.440313 
L 218.456443 107.657157 
L 218.599208 105.301952 
L 218.694384 106.087977 
L 218.789561 105.826925 
L 218.979914 108.701365 
L 219.217855 106.349029 
L 219.265443 106.349029 
L 219.313031 105.826925 
L 219.503384 107.657157 
L 219.550972 107.132184 
L 219.646148 108.440313 
L 219.693737 107.657157 
L 219.788913 105.301952 
L 219.979266 79.678701 
L 220.12203 64.775792 
L 220.169619 65.036844 
L 220.264795 67.650232 
L 220.40756 49.608962 
L 220.502736 33.397924 
L 220.550324 33.920028 
L 220.645501 61.637431 
L 220.93103 166.74956 
L 221.168971 172.501308 
L 221.264147 173.284464 
L 221.597265 165.18038 
L 221.930382 123.868195 
L 222.120735 112.883933 
L 222.168323 112.361829 
L 222.215911 112.622881 
L 222.263499 112.622881 
L 222.644205 108.179261 
L 222.78697 108.962417 
L 222.834558 108.701365 
L 222.977322 111.053701 
L 223.167675 108.701365 
L 223.691145 115.761241 
L 223.738734 115.50019 
L 224.071851 121.251938 
L 224.119439 120.468782 
L 224.167027 120.729834 
L 224.214616 120.990886 
L 224.262204 120.729834 
L 224.309792 120.729834 
L 224.452557 123.343222 
L 224.500145 123.08217 
L 224.690498 124.390299 
L 224.738086 124.390299 
L 224.976027 121.774042 
L 225.023615 122.560066 
L 225.071203 121.774042 
L 225.16638 122.299014 
L 225.261556 120.990886 
L 225.642262 112.100777 
L 225.68985 112.361829 
L 226.070556 105.826925 
L 226.118144 106.349029 
L 226.165732 105.826925 
L 226.21332 105.563004 
L 226.260908 106.087977 
L 226.403673 104.257744 
L 226.451261 104.518796 
L 226.641614 102.949616 
L 226.927143 103.996693 
L 227.165084 102.16646 
L 227.403025 105.826925 
L 227.450613 105.826925 
L 227.498202 106.087977 
L 227.736143 103.996693 
L 227.926495 105.563004 
L 227.974084 106.61008 
L 228.021672 106.087977 
L 228.06926 106.087977 
L 228.164436 105.0409 
L 228.212025 104.257744 
L 228.307201 104.518796 
L 228.687907 106.349029 
L 228.878259 102.949616 
L 228.925848 103.210668 
L 229.068612 104.257744 
L 229.211377 105.301952 
L 229.354141 104.779848 
L 229.449318 102.949616 
L 229.496906 103.210668 
L 229.687259 104.518796 
L 229.734847 103.996693 
L 229.782435 104.257744 
L 229.830023 104.257744 
L 230.020376 102.688564 
L 230.258317 103.996693 
L 230.305905 102.949616 
L 230.401082 103.210668 
L 230.496258 102.427512 
L 230.639023 101.380436 
L 230.686611 101.380436 
L 230.829376 103.210668 
L 230.876964 102.16646 
L 230.924552 103.732772 
L 230.97214 103.210668 
L 231.352846 98.503127 
L 231.400434 99.0281 
L 231.590787 95.367635 
L 231.78114 89.876939 
L 232.019081 97.719971 
L 232.066669 97.197868 
L 232.114257 97.197868 
L 232.209433 94.320559 
L 232.352198 89.876939 
L 232.399786 90.660095 
L 232.732904 102.427512 
L 232.780492 101.641488 
L 232.82808 101.380436 
L 233.018433 105.563004 
L 233.208786 107.657157 
L 233.399138 105.301952 
L 233.541903 104.257744 
L 233.732256 106.61008 
L 233.875021 107.393236 
L 234.112962 104.518796 
L 234.398491 107.393236 
L 234.446079 107.918209 
L 234.493667 107.132184 
L 234.636432 92.751379 
L 234.874373 53.79153 
L 234.921961 55.624631 
L 235.017137 59.285095 
L 235.112314 50.656038 
L 235.255078 34.183948 
L 235.302667 39.149672 
L 235.73096 170.932128 
L 235.778549 170.671076 
L 235.873725 171.454232 
L 236.01649 172.76236 
L 236.206842 169.101896 
L 236.397195 154.982142 
L 236.777901 111.839725 
L 236.825489 112.883933 
L 236.968254 110.531597 
L 237.015842 111.317621 
L 237.06343 111.053701 
L 237.158606 110.531597 
L 237.206195 111.053701 
L 237.348959 109.487389 
L 237.539312 108.962417 
L 237.777253 112.622881 
L 237.824841 113.408905 
L 237.872429 113.147854 
L 237.920018 112.361829 
L 238.015194 112.622881 
L 238.205547 115.239138 
L 238.443488 119.160654 
L 238.776605 123.08217 
L 238.824193 122.821118 
L 239.014546 124.651351 
L 239.157311 124.390299 
L 239.395252 126.481583 
L 239.633193 123.343222 
L 239.96631 118.899602 
L 240.394604 110.009493 
L 240.442192 110.009493 
L 240.632545 107.918209 
L 240.680133 108.179261 
L 240.965662 103.210668 
L 241.013251 103.732772 
L 241.156015 104.779848 
L 241.441544 102.16646 
L 241.584309 103.47172 
L 241.631897 103.210668 
L 241.774662 104.257744 
L 241.82225 104.257744 
L 241.869838 102.949616 
L 241.917426 103.732772 
L 242.012603 102.688564 
L 242.060191 102.16646 
L 242.107779 102.688564 
L 242.155367 102.427512 
L 242.202956 102.688564 
L 242.34572 105.563004 
L 242.393308 105.301952 
L 242.440897 106.349029 
L 242.631249 103.47172 
L 242.774014 104.779848 
L 242.869191 104.518796 
L 243.011955 105.0409 
L 243.059543 103.732772 
L 243.107132 104.518796 
L 243.15472 104.518796 
L 243.297484 104.257744 
L 243.345073 104.779848 
L 243.392661 104.518796 
L 243.440249 104.257744 
L 243.583014 104.779848 
L 243.820955 102.688564 
L 243.963719 104.518796 
L 244.011307 104.518796 
L 244.106484 104.257744 
L 244.154072 104.518796 
L 244.344425 101.90254 
L 244.582366 104.779848 
L 244.772719 102.949616 
L 244.820307 103.47172 
L 244.867895 102.16646 
L 244.915483 102.427512 
L 245.153424 104.257744 
L 245.201012 103.210668 
L 245.296189 103.47172 
L 245.343777 103.732772 
L 245.53413 101.90254 
L 245.581718 101.90254 
L 245.676894 102.688564 
L 245.724483 102.427512 
L 245.819659 102.949616 
L 246.105188 99.550204 
L 246.152776 99.550204 
L 246.58107 94.059507 
L 246.723835 91.182198 
L 247.009364 97.719971 
L 247.10454 96.672895 
L 247.342481 90.921146 
L 247.39007 91.707171 
L 247.675599 101.380436 
L 247.723187 100.858332 
L 247.770775 100.858332 
L 247.91354 103.210668 
L 248.056304 107.132184 
L 248.151481 106.349029 
L 248.199069 106.61008 
L 248.389422 103.996693 
L 248.43701 104.518796 
L 248.579775 106.349029 
L 248.770127 107.132184 
L 248.912892 106.349029 
L 249.055657 107.393236 
L 249.103245 107.393236 
L 249.150833 107.657157 
L 249.341186 106.087977 
L 249.388774 106.349029 
L 249.436362 106.087977 
L 249.48395 106.087977 
L 249.674303 109.487389 
L 249.721891 108.962417 
L 249.817068 101.641488 
L 250.102597 57.190942 
L 250.150185 58.499071 
L 250.245362 62.681639 
L 250.29295 61.637431 
L 250.483303 34.706052 
L 250.530891 36.536284 
L 250.673655 101.119384 
L 250.864008 168.054819 
L 250.959185 171.454232 
L 251.006773 171.19318 
L 251.054361 171.454232 
L 251.197126 169.624 
L 251.33989 171.19318 
L 251.482655 167.793768 
L 251.625419 150.799574 
L 251.910949 116.808318 
L 251.958537 115.761241 
L 252.053713 116.022293 
L 252.14889 114.453113 
L 252.386831 110.531597 
L 252.624772 112.883933 
L 252.719948 112.361829 
L 252.767536 112.883933 
L 252.815125 112.100777 
L 252.862713 113.147854 
L 252.910301 112.361829 
L 253.148242 116.022293 
L 253.7193 123.08217 
L 253.862065 124.390299 
L 253.909653 124.390299 
L 254.052418 125.173454 
L 254.337947 129.097839 
L 255.004182 121.251938 
L 255.432476 105.0409 
L 255.480064 105.301952 
L 255.57524 104.518796 
L 255.860769 92.490327 
L 255.908358 92.751379 
L 256.003534 96.150791 
L 256.336651 108.179261 
L 256.38424 107.132184 
L 256.574592 105.563004 
L 256.622181 105.563004 
L 256.717357 105.826925 
L 256.764945 105.301952 
L 257.002886 108.179261 
L 257.240827 111.053701 
L 257.43118 107.918209 
L 257.478768 108.701365 
L 257.716709 111.839725 
L 257.764297 111.839725 
L 257.811886 112.100777 
L 257.859474 111.839725 
L 258.002238 110.270545 
L 258.192591 111.578673 
L 258.240179 111.578673 
L 258.335356 111.839725 
L 258.573297 109.487389 
L 258.668473 109.748441 
L 258.716061 109.487389 
L 258.954002 111.578673 
L 259.144355 108.962417 
L 259.191943 109.223468 
L 259.334708 108.440313 
L 259.572649 110.009493 
L 259.763002 107.918209 
L 259.81059 108.440313 
L 259.858178 107.918209 
L 260.048531 109.487389 
L 260.096119 109.223468 
L 260.238884 107.393236 
L 260.429237 109.223468 
L 260.476825 108.701365 
L 260.572001 102.427512 
L 260.85753 66.867076 
L 260.905119 68.436256 
L 260.952707 67.650232 
L 261.047883 56.407787 
L 261.190648 27.907227 
L 261.238236 29.476408 
L 261.381001 91.446119 
L 261.618942 161.519915 
L 261.856883 173.284464 
L 261.904471 171.979204 
L 262.047236 170.146104 
L 262.094824 170.410024 
L 262.285177 165.702483 
L 262.427941 147.139109 
L 262.71347 112.361829 
L 262.761059 111.578673 
L 262.808647 112.361829 
L 262.856235 112.361829 
L 262.951411 111.578673 
L 263.236941 107.657157 
L 263.332117 109.223468 
L 263.379705 108.962417 
L 263.427293 108.179261 
L 263.52247 110.009493 
L 263.570058 109.223468 
L 264.236293 115.50019 
L 264.283881 115.50019 
L 264.426646 117.852526 
L 264.616998 122.037963 
L 264.712175 123.08217 
L 264.759763 122.821118 
L 264.807351 122.821118 
L 264.854939 122.560066 
L 265.235645 127.267607 
L 265.521174 123.343222 
L 265.711527 122.037963 
L 265.759115 122.037963 
L 266.568115 106.087977 
L 266.615703 106.087977 
L 267.186761 102.427512 
L 267.281938 102.949616 
L 267.47229 105.0409 
L 267.710231 102.949616 
L 267.805408 102.949616 
L 267.852996 103.210668 
L 268.043349 106.349029 
L 268.138525 105.0409 
L 268.186113 106.087977 
L 268.233702 104.779848 
L 268.376466 103.47172 
L 268.566819 105.301952 
L 268.852348 103.47172 
L 268.947525 102.688564 
L 269.185466 105.826925 
L 269.375818 104.257744 
L 269.423407 104.779848 
L 269.566171 102.427512 
L 269.613759 102.427512 
L 269.804112 104.257744 
L 269.8517 104.257744 
L 270.089641 102.427512 
L 270.184818 103.47172 
L 270.232406 102.949616 
L 270.327582 103.47172 
L 270.375171 102.949616 
L 270.422759 103.47172 
L 270.565523 102.949616 
L 270.613112 103.732772 
L 270.6607 103.47172 
L 270.708288 102.949616 
L 270.755876 103.47172 
L 270.898641 104.779848 
L 270.993817 103.210668 
L 271.041406 103.47172 
L 271.136582 103.47172 
L 271.326935 101.380436 
L 271.517288 103.732772 
L 271.564876 102.949616 
L 271.612464 102.688564 
L 271.660052 101.641488 
L 271.755229 101.90254 
L 271.850405 101.641488 
L 272.040758 103.732772 
L 272.231111 102.427512 
L 272.326287 101.119384 
L 272.373875 101.380436 
L 272.421463 101.119384 
L 272.611816 104.257744 
L 272.944934 101.119384 
L 273.230463 103.210668 
L 273.325639 103.210668 
L 273.373227 101.641488 
L 273.468404 101.90254 
L 273.611168 102.949616 
L 273.658757 101.90254 
L 273.753933 102.16646 
L 273.801521 102.16646 
L 273.849109 101.641488 
L 273.896698 101.90254 
L 273.944286 101.90254 
L 274.039462 101.380436 
L 274.08705 101.641488 
L 274.277403 102.688564 
L 274.324991 102.949616 
L 274.467756 102.16646 
L 274.562932 101.119384 
L 274.753285 97.45892 
L 274.800873 97.719971 
L 275.038814 94.320559 
L 275.229167 91.446119 
L 275.324344 91.182198 
L 275.371932 91.446119 
L 275.657461 97.719971 
L 275.800226 96.936816 
L 275.94299 93.276351 
L 275.990578 93.537403 
L 276.276108 101.380436 
L 276.323696 100.59728 
L 276.561637 106.871132 
L 276.656813 107.393236 
L 276.704401 107.132184 
L 276.894754 103.996693 
L 277.180283 106.871132 
L 277.465813 104.779848 
L 277.608577 106.871132 
L 277.703754 106.349029 
L 277.751342 107.132184 
L 277.79893 106.087977 
L 277.846518 106.61008 
L 277.989283 105.563004 
L 278.036871 105.826925 
L 278.084459 105.301952 
L 278.179636 99.289152 
L 278.465165 58.499071 
L 278.560341 60.851407 
L 278.607929 60.590355 
L 278.798282 34.183948 
L 278.84587 34.445 
L 278.941047 67.38918 
L 279.178988 166.224587 
L 279.369341 171.715284 
L 279.512105 176.161773 
L 279.607282 175.375748 
L 279.845223 169.885052 
L 279.987987 162.042019 
L 280.368693 113.147854 
L 280.654222 111.317621 
L 280.844575 108.962417 
L 280.892163 108.701365 
L 280.939751 107.657157 
L 280.98734 107.918209 
L 281.225281 109.748441 
L 281.272869 110.531597 
L 281.320457 109.487389 
L 281.368045 109.748441 
L 281.463222 108.962417 
L 281.843927 115.50019 
L 281.891515 114.717034 
L 281.939104 115.239138 
L 282.03428 115.761241 
L 282.414986 122.299014 
L 282.510162 121.51299 
L 282.55775 121.774042 
L 282.605338 121.51299 
L 282.652927 121.774042 
L 282.795691 125.173454 
L 282.843279 124.651351 
L 283.223985 122.299014 
L 283.36675 120.990886 
L 283.414338 122.037963 
L 283.414338 122.037963 
" style="fill:none;stroke:#1f77b4;stroke-linecap:square;stroke-width:1.5;"/>
   </g>
   <g id="patch_3">
    <path d="M 33.62625 183.5745 
L 33.62625 20.4945 
" style="fill:none;stroke:#000000;stroke-linecap:square;stroke-linejoin:miter;stroke-width:0.8;"/>
   </g>
   <g id="patch_4">
    <path d="M 295.309009 183.5745 
L 295.309009 20.4945 
" style="fill:none;stroke:#000000;stroke-linecap:square;stroke-linejoin:miter;stroke-width:0.8;"/>
   </g>
   <g id="patch_5">
    <path d="M 33.62625 183.5745 
L 295.309009 183.5745 
" style="fill:none;stroke:#000000;stroke-linecap:square;stroke-linejoin:miter;stroke-width:0.8;"/>
   </g>
   <g id="patch_6">
    <path d="M 33.62625 20.4945 
L 295.309009 20.4945 
" style="fill:none;stroke:#000000;stroke-linecap:square;stroke-linejoin:miter;stroke-width:0.8;"/>
   </g>
   <g id="text_13">
    <!-- Signal -->
    <g transform="translate(149.722629 14.4945)scale(0.096 -0.096)">
     <defs>
      <path d="M 3425 4513 
L 3425 3897 
Q 3066 4069 2747 4153 
Q 2428 4238 2131 4238 
Q 1616 4238 1336 4038 
Q 1056 3838 1056 3469 
Q 1056 3159 1242 3001 
Q 1428 2844 1947 2747 
L 2328 2669 
Q 3034 2534 3370 2195 
Q 3706 1856 3706 1288 
Q 3706 609 3251 259 
Q 2797 -91 1919 -91 
Q 1588 -91 1214 -16 
Q 841 59 441 206 
L 441 856 
Q 825 641 1194 531 
Q 1563 422 1919 422 
Q 2459 422 2753 634 
Q 3047 847 3047 1241 
Q 3047 1584 2836 1778 
Q 2625 1972 2144 2069 
L 1759 2144 
Q 1053 2284 737 2584 
Q 422 2884 422 3419 
Q 422 4038 858 4394 
Q 1294 4750 2059 4750 
Q 2388 4750 2728 4690 
Q 3069 4631 3425 4513 
z
" id="DejaVuSans-53" transform="scale(0.015625)"/>
      <path d="M 603 3500 
L 1178 3500 
L 1178 0 
L 603 0 
L 603 3500 
z
M 603 4863 
L 1178 4863 
L 1178 4134 
L 603 4134 
L 603 4863 
z
" id="DejaVuSans-69" transform="scale(0.015625)"/>
      <path d="M 2906 1791 
Q 2906 2416 2648 2759 
Q 2391 3103 1925 3103 
Q 1463 3103 1205 2759 
Q 947 2416 947 1791 
Q 947 1169 1205 825 
Q 1463 481 1925 481 
Q 2391 481 2648 825 
Q 2906 1169 2906 1791 
z
M 3481 434 
Q 3481 -459 3084 -895 
Q 2688 -1331 1869 -1331 
Q 1566 -1331 1297 -1286 
Q 1028 -1241 775 -1147 
L 775 -588 
Q 1028 -725 1275 -790 
Q 1522 -856 1778 -856 
Q 2344 -856 2625 -561 
Q 2906 -266 2906 331 
L 2906 616 
Q 2728 306 2450 153 
Q 2172 0 1784 0 
Q 1141 0 747 490 
Q 353 981 353 1791 
Q 353 2603 747 3093 
Q 1141 3584 1784 3584 
Q 2172 3584 2450 3431 
Q 2728 3278 2906 2969 
L 2906 3500 
L 3481 3500 
L 3481 434 
z
" id="DejaVuSans-67" transform="scale(0.015625)"/>
      <path d="M 3513 2113 
L 3513 0 
L 2938 0 
L 2938 2094 
Q 2938 2591 2744 2837 
Q 2550 3084 2163 3084 
Q 1697 3084 1428 2787 
Q 1159 2491 1159 1978 
L 1159 0 
L 581 0 
L 581 3500 
L 1159 3500 
L 1159 2956 
Q 1366 3272 1645 3428 
Q 1925 3584 2291 3584 
Q 2894 3584 3203 3211 
Q 3513 2838 3513 2113 
z
" id="DejaVuSans-6e" transform="scale(0.015625)"/>
      <path d="M 2194 1759 
Q 1497 1759 1228 1600 
Q 959 1441 959 1056 
Q 959 750 1161 570 
Q 1363 391 1709 391 
Q 2188 391 2477 730 
Q 2766 1069 2766 1631 
L 2766 1759 
L 2194 1759 
z
M 3341 1997 
L 3341 0 
L 2766 0 
L 2766 531 
Q 2569 213 2275 61 
Q 1981 -91 1556 -91 
Q 1019 -91 701 211 
Q 384 513 384 1019 
Q 384 1609 779 1909 
Q 1175 2209 1959 2209 
L 2766 2209 
L 2766 2266 
Q 2766 2663 2505 2880 
Q 2244 3097 1772 3097 
Q 1472 3097 1187 3025 
Q 903 2953 641 2809 
L 641 3341 
Q 956 3463 1253 3523 
Q 1550 3584 1831 3584 
Q 2591 3584 2966 3190 
Q 3341 2797 3341 1997 
z
" id="DejaVuSans-61" transform="scale(0.015625)"/>
      <path d="M 603 4863 
L 1178 4863 
L 1178 0 
L 603 0 
L 603 4863 
z
" id="DejaVuSans-6c" transform="scale(0.015625)"/>
     </defs>
     <use xlink:href="#DejaVuSans-53"/>
     <use x="63.476562" xlink:href="#DejaVuSans-69"/>
     <use x="91.259766" xlink:href="#DejaVuSans-67"/>
     <use x="154.736328" xlink:href="#DejaVuSans-6e"/>
     <use x="218.115234" xlink:href="#DejaVuSans-61"/>
     <use x="279.394531" xlink:href="#DejaVuSans-6c"/>
    </g>
   </g>
  </g>
  <g id="axes_2">
   <g id="patch_7">
    <path d="M 310.702112 183.5745 
L 480.02625 183.5745 
L 480.02625 20.4945 
L 310.702112 20.4945 
z
" style="fill:#ffffff;"/>
   </g>
   <g id="matplotlib.axis_3">
    <g id="xtick_7">
     <g id="line2d_14">
      <g>
       <use style="stroke:#000000;stroke-width:0.8;" x="318.398664" xlink:href="#mba7527ab76" y="183.5745"/>
      </g>
     </g>
     <g id="text_14">
      <!-- 0 -->
      <g transform="translate(315.853664 196.65325)scale(0.08 -0.08)">
       <use xlink:href="#DejaVuSans-30"/>
      </g>
     </g>
    </g>
    <g id="xtick_8">
     <g id="line2d_15">
      <g>
       <use style="stroke:#000000;stroke-width:0.8;" x="349.495842" xlink:href="#mba7527ab76" y="183.5745"/>
      </g>
     </g>
     <g id="text_15">
      <!-- 20 -->
      <g transform="translate(344.405842 196.65325)scale(0.08 -0.08)">
       <use xlink:href="#DejaVuSans-32"/>
       <use x="63.623047" xlink:href="#DejaVuSans-30"/>
      </g>
     </g>
    </g>
    <g id="xtick_9">
     <g id="line2d_16">
      <g>
       <use style="stroke:#000000;stroke-width:0.8;" x="380.593021" xlink:href="#mba7527ab76" y="183.5745"/>
      </g>
     </g>
     <g id="text_16">
      <!-- 40 -->
      <g transform="translate(375.503021 196.65325)scale(0.08 -0.08)">
       <use xlink:href="#DejaVuSans-34"/>
       <use x="63.623047" xlink:href="#DejaVuSans-30"/>
      </g>
     </g>
    </g>
    <g id="xtick_10">
     <g id="line2d_17">
      <g>
       <use style="stroke:#000000;stroke-width:0.8;" x="411.6902" xlink:href="#mba7527ab76" y="183.5745"/>
      </g>
     </g>
     <g id="text_17">
      <!-- 60 -->
      <g transform="translate(406.6002 196.65325)scale(0.08 -0.08)">
       <defs>
        <path d="M 2113 2584 
Q 1688 2584 1439 2293 
Q 1191 2003 1191 1497 
Q 1191 994 1439 701 
Q 1688 409 2113 409 
Q 2538 409 2786 701 
Q 3034 994 3034 1497 
Q 3034 2003 2786 2293 
Q 2538 2584 2113 2584 
z
M 3366 4563 
L 3366 3988 
Q 3128 4100 2886 4159 
Q 2644 4219 2406 4219 
Q 1781 4219 1451 3797 
Q 1122 3375 1075 2522 
Q 1259 2794 1537 2939 
Q 1816 3084 2150 3084 
Q 2853 3084 3261 2657 
Q 3669 2231 3669 1497 
Q 3669 778 3244 343 
Q 2819 -91 2113 -91 
Q 1303 -91 875 529 
Q 447 1150 447 2328 
Q 447 3434 972 4092 
Q 1497 4750 2381 4750 
Q 2619 4750 2861 4703 
Q 3103 4656 3366 4563 
z
" id="DejaVuSans-36" transform="scale(0.015625)"/>
       </defs>
       <use xlink:href="#DejaVuSans-36"/>
       <use x="63.623047" xlink:href="#DejaVuSans-30"/>
      </g>
     </g>
    </g>
    <g id="xtick_11">
     <g id="line2d_18">
      <g>
       <use style="stroke:#000000;stroke-width:0.8;" x="442.787379" xlink:href="#mba7527ab76" y="183.5745"/>
      </g>
     </g>
     <g id="text_18">
      <!-- 80 -->
      <g transform="translate(437.697379 196.65325)scale(0.08 -0.08)">
       <defs>
        <path d="M 2034 2216 
Q 1584 2216 1326 1975 
Q 1069 1734 1069 1313 
Q 1069 891 1326 650 
Q 1584 409 2034 409 
Q 2484 409 2743 651 
Q 3003 894 3003 1313 
Q 3003 1734 2745 1975 
Q 2488 2216 2034 2216 
z
M 1403 2484 
Q 997 2584 770 2862 
Q 544 3141 544 3541 
Q 544 4100 942 4425 
Q 1341 4750 2034 4750 
Q 2731 4750 3128 4425 
Q 3525 4100 3525 3541 
Q 3525 3141 3298 2862 
Q 3072 2584 2669 2484 
Q 3125 2378 3379 2068 
Q 3634 1759 3634 1313 
Q 3634 634 3220 271 
Q 2806 -91 2034 -91 
Q 1263 -91 848 271 
Q 434 634 434 1313 
Q 434 1759 690 2068 
Q 947 2378 1403 2484 
z
M 1172 3481 
Q 1172 3119 1398 2916 
Q 1625 2713 2034 2713 
Q 2441 2713 2670 2916 
Q 2900 3119 2900 3481 
Q 2900 3844 2670 4047 
Q 2441 4250 2034 4250 
Q 1625 4250 1398 4047 
Q 1172 3844 1172 3481 
z
" id="DejaVuSans-38" transform="scale(0.015625)"/>
       </defs>
       <use xlink:href="#DejaVuSans-38"/>
       <use x="63.623047" xlink:href="#DejaVuSans-30"/>
      </g>
     </g>
    </g>
    <g id="xtick_12">
     <g id="line2d_19">
      <g>
       <use style="stroke:#000000;stroke-width:0.8;" x="473.884557" xlink:href="#mba7527ab76" y="183.5745"/>
      </g>
     </g>
     <g id="text_19">
      <!-- 100 -->
      <g transform="translate(466.249557 196.65325)scale(0.08 -0.08)">
       <use xlink:href="#DejaVuSans-31"/>
       <use x="63.623047" xlink:href="#DejaVuSans-30"/>
       <use x="127.246094" xlink:href="#DejaVuSans-30"/>
      </g>
     </g>
    </g>
   </g>
   <g id="matplotlib.axis_4"/>
   <g id="line2d_20">
    <path clip-path="url(#pda291f4eb7)" d="M 318.398664 104.653935 
L 319.953523 105.699984 
L 321.508382 106.225883 
L 323.063241 106.487395 
L 324.6181 106.225883 
L 326.172958 104.653935 
L 327.727817 104.653935 
L 329.282676 103.605011 
L 330.837535 103.081987 
L 332.392394 103.605011 
L 333.947253 104.13091 
L 335.502112 103.866524 
L 337.056971 104.653935 
L 338.61183 106.748908 
L 340.166689 107.01042 
L 341.721548 107.01042 
L 343.276407 106.748908 
L 344.831266 105.964371 
L 346.386125 105.699984 
L 347.940984 105.17696 
L 349.495842 104.915447 
L 351.050701 104.653935 
L 352.60556 104.915447 
L 354.160419 104.915447 
L 355.715278 104.653935 
L 357.270137 104.915447 
L 358.824996 105.438472 
L 360.379855 105.964371 
L 361.934714 105.699984 
L 363.489573 105.438472 
L 365.044432 105.964371 
L 366.599291 105.438472 
L 368.15415 104.915447 
L 369.709009 104.392422 
L 371.263868 101.248526 
L 372.818726 97.581605 
L 374.373585 91.293812 
L 375.928444 82.388021 
L 377.483303 73.220718 
L 379.038162 65.625363 
L 380.593021 58.814545 
L 382.14788 56.45806 
L 383.702739 56.981085 
L 385.257598 60.124981 
L 386.812457 61.173905 
L 388.367316 58.814545 
L 389.922175 53.052651 
L 391.477034 45.457296 
L 393.031893 38.907991 
L 394.586752 37.07453 
L 396.141611 42.836425 
L 397.696469 60.124981 
L 399.251328 85.008893 
L 400.806187 112.772314 
L 402.361046 137.656226 
L 403.915905 155.206295 
L 405.470764 165.422521 
L 407.025623 168.302032 
L 408.580482 168.82793 
L 410.135341 168.563544 
L 411.6902 169.089443 
L 413.245059 170.135492 
L 414.799918 171.184416 
L 416.354777 172.756364 
L 417.909636 173.017876 
L 419.464495 172.756364 
L 421.019353 171.968953 
L 422.574212 171.968953 
L 424.129071 169.87398 
L 425.68393 168.302032 
L 427.238789 168.040519 
L 428.793648 165.422521 
L 430.348507 161.494088 
L 431.903366 157.301268 
L 433.458225 151.277861 
L 435.013084 143.41812 
L 436.567943 135.822765 
L 438.122802 128.488923 
L 439.677661 123.511566 
L 441.23252 118.011184 
L 442.787379 115.131674 
L 444.342237 112.772314 
L 445.897096 111.726265 
L 447.451955 112.24929 
L 449.006814 110.938854 
L 450.561673 111.200366 
L 452.116532 110.938854 
L 453.671391 110.154317 
L 455.22625 109.366906 
L 456.781109 109.105393 
L 458.335968 108.320856 
L 459.890827 107.797831 
L 461.445686 107.271933 
L 463.000545 107.797831 
L 464.555404 107.271933 
L 466.110263 107.797831 
L 467.665121 107.797831 
L 469.21998 107.797831 
L 470.774839 108.582368 
L 472.329698 108.582368 
" style="fill:none;stroke:#2ca02c;stroke-linecap:square;stroke-opacity:0.25;stroke-width:1.5;"/>
   </g>
   <g id="line2d_21">
    <path clip-path="url(#pda291f4eb7)" d="M 318.398664 106.225883 
L 319.953523 107.01042 
L 321.508382 107.533445 
L 323.063241 107.797831 
L 324.6181 108.582368 
L 326.172958 107.797831 
L 327.727817 107.271933 
L 329.282676 107.01042 
L 330.837535 105.438472 
L 332.392394 106.487395 
L 333.947253 106.225883 
L 335.502112 105.964371 
L 337.056971 105.964371 
L 338.61183 107.01042 
L 340.166689 107.533445 
L 341.721548 108.059344 
L 343.276407 108.843881 
L 344.831266 108.059344 
L 346.386125 107.533445 
L 347.940984 106.487395 
L 349.495842 106.748908 
L 351.050701 106.487395 
L 352.60556 106.487395 
L 354.160419 105.964371 
L 355.715278 106.748908 
L 357.270137 106.748908 
L 358.824996 107.01042 
L 360.379855 107.797831 
L 361.934714 107.271933 
L 363.489573 108.059344 
L 365.044432 108.582368 
L 366.599291 107.797831 
L 368.15415 107.01042 
L 369.709009 105.438472 
L 371.263868 101.248526 
L 372.818726 95.486632 
L 374.373585 87.626891 
L 375.928444 79.770023 
L 377.483303 72.174668 
L 379.038162 66.674286 
L 380.593021 64.840826 
L 382.14788 65.102338 
L 383.702739 66.412774 
L 385.257598 67.720336 
L 386.812457 64.053415 
L 388.367316 58.030008 
L 389.922175 49.647242 
L 391.477034 39.956914 
L 393.031893 33.407609 
L 394.586752 33.930634 
L 396.141611 42.574912 
L 397.696469 61.696929 
L 399.251328 87.626891 
L 400.806187 115.393186 
L 402.361046 138.443637 
L 403.915905 154.944782 
L 405.470764 163.589061 
L 407.025623 166.99447 
L 408.580482 168.82793 
L 410.135341 169.350955 
L 411.6902 170.661391 
L 413.245059 172.233339 
L 414.799918 172.756364 
L 416.354777 173.540901 
L 417.909636 173.540901 
L 419.464495 172.494851 
L 421.019353 172.494851 
L 422.574212 171.184416 
L 424.129071 169.612467 
L 425.68393 168.82793 
L 427.238789 167.517494 
L 428.793648 165.422521 
L 430.348507 160.968189 
L 431.903366 157.824293 
L 433.458225 151.800886 
L 435.013084 144.467044 
L 436.567943 137.133201 
L 438.122802 129.799359 
L 439.677661 124.037464 
L 441.23252 118.537082 
L 442.787379 115.393186 
L 444.342237 113.821238 
L 445.897096 113.033827 
L 447.451955 112.510802 
L 449.006814 112.772314 
L 450.561673 112.772314 
L 452.116532 111.987777 
L 453.671391 111.464752 
L 455.22625 110.938854 
L 456.781109 110.415829 
L 458.335968 109.366906 
L 459.890827 109.366906 
L 461.445686 108.843881 
L 463.000545 108.320856 
L 464.555404 108.843881 
L 466.110263 108.843881 
L 467.665121 109.105393 
L 469.21998 108.843881 
L 470.774839 109.892804 
L 472.329698 110.154317 
" style="fill:none;stroke:#2ca02c;stroke-linecap:square;stroke-opacity:0.25;stroke-width:1.5;"/>
   </g>
   <g id="line2d_22">
    <path clip-path="url(#pda291f4eb7)" d="M 318.398664 104.13091 
L 319.953523 104.915447 
L 321.508382 105.964371 
L 323.063241 107.01042 
L 324.6181 106.487395 
L 326.172958 106.225883 
L 327.727817 105.17696 
L 329.282676 105.17696 
L 330.837535 104.915447 
L 332.392394 105.17696 
L 333.947253 105.438472 
L 335.502112 105.438472 
L 337.056971 106.487395 
L 338.61183 107.797831 
L 340.166689 108.582368 
L 341.721548 108.582368 
L 343.276407 107.271933 
L 344.831266 107.797831 
L 346.386125 107.01042 
L 347.940984 106.225883 
L 349.495842 105.699984 
L 351.050701 105.438472 
L 352.60556 105.438472 
L 354.160419 105.17696 
L 355.715278 105.699984 
L 357.270137 105.438472 
L 358.824996 105.964371 
L 360.379855 106.487395 
L 361.934714 107.01042 
L 363.489573 106.487395 
L 365.044432 105.964371 
L 366.599291 105.964371 
L 368.15415 105.17696 
L 369.709009 105.438472 
L 371.263868 105.699984 
L 372.818726 104.13091 
L 374.373585 100.461115 
L 375.928444 92.081223 
L 377.483303 82.91392 
L 379.038162 74.531154 
L 380.593021 65.625363 
L 382.14788 60.386494 
L 383.702739 58.291521 
L 385.257598 60.124981 
L 386.812457 60.648006 
L 388.367316 60.124981 
L 389.922175 54.624599 
L 391.477034 48.075294 
L 393.031893 41.264476 
L 394.586752 38.384966 
L 396.141611 43.362323 
L 397.696469 58.030008 
L 399.251328 81.603484 
L 400.806187 109.366906 
L 402.361046 134.250817 
L 403.915905 152.323911 
L 405.470764 162.540137 
L 407.025623 168.040519 
L 408.580482 169.089443 
L 410.135341 170.397005 
L 411.6902 170.397005 
L 413.245059 170.397005 
L 414.799918 171.184416 
L 416.354777 172.233339 
L 417.909636 172.494851 
L 419.464495 172.494851 
L 421.019353 171.445928 
L 422.574212 170.135492 
L 424.129071 169.87398 
L 425.68393 168.302032 
L 427.238789 167.255982 
L 428.793648 164.63511 
L 430.348507 162.540137 
L 431.903366 157.824293 
L 433.458225 151.539374 
L 435.013084 144.990068 
L 436.567943 137.394714 
L 438.122802 129.537846 
L 439.677661 121.678105 
L 441.23252 116.965134 
L 442.787379 113.559725 
L 444.342237 112.510802 
L 445.897096 112.772314 
L 447.451955 111.726265 
L 449.006814 111.464752 
L 450.561673 111.987777 
L 452.116532 111.464752 
L 453.671391 110.938854 
L 455.22625 110.677341 
L 456.781109 109.631292 
L 458.335968 108.582368 
L 459.890827 108.059344 
L 461.445686 107.271933 
L 463.000545 107.01042 
L 464.555404 108.059344 
L 466.110263 108.843881 
L 467.665121 108.582368 
L 469.21998 109.105393 
L 470.774839 109.105393 
L 472.329698 109.892804 
" style="fill:none;stroke:#2ca02c;stroke-linecap:square;stroke-opacity:0.25;stroke-width:1.5;"/>
   </g>
   <g id="line2d_23">
    <path clip-path="url(#pda291f4eb7)" d="M 318.398664 108.582368 
L 319.953523 108.843881 
L 321.508382 109.892804 
L 323.063241 109.631292 
L 324.6181 109.892804 
L 326.172958 109.892804 
L 327.727817 108.843881 
L 329.282676 108.320856 
L 330.837535 107.271933 
L 332.392394 107.271933 
L 333.947253 107.271933 
L 335.502112 108.320856 
L 337.056971 108.843881 
L 338.61183 109.892804 
L 340.166689 110.154317 
L 341.721548 110.415829 
L 343.276407 111.200366 
L 344.831266 109.892804 
L 346.386125 109.892804 
L 347.940984 108.843881 
L 349.495842 108.582368 
L 351.050701 107.797831 
L 352.60556 107.01042 
L 354.160419 108.843881 
L 355.715278 108.320856 
L 357.270137 108.582368 
L 358.824996 109.105393 
L 360.379855 109.631292 
L 361.934714 110.415829 
L 363.489573 110.154317 
L 365.044432 109.631292 
L 366.599291 110.154317 
L 368.15415 108.843881 
L 369.709009 107.533445 
L 371.263868 104.392422 
L 372.818726 101.248526 
L 374.373585 93.127272 
L 375.928444 84.74738 
L 377.483303 75.315691 
L 379.038162 67.720336 
L 380.593021 62.742979 
L 382.14788 60.909518 
L 383.702739 62.219954 
L 385.257598 64.053415 
L 386.812457 65.102338 
L 388.367316 63.268878 
L 389.922175 58.030008 
L 391.477034 50.170267 
L 393.031893 43.362323 
L 394.586752 39.431016 
L 396.141611 43.885348 
L 397.696469 57.506983 
L 399.251328 81.341971 
L 400.806187 109.892804 
L 402.361046 136.610176 
L 403.915905 155.467807 
L 405.470764 166.730083 
L 407.025623 171.70744 
L 408.580482 172.233339 
L 410.135341 171.968953 
L 411.6902 172.233339 
L 413.245059 172.756364 
L 414.799918 174.0668 
L 416.354777 174.851337 
L 417.909636 176.161773 
L 419.464495 176.161773 
L 421.019353 175.635874 
L 422.574212 174.589825 
L 424.129071 173.802414 
L 425.68393 172.494851 
L 427.238789 171.445928 
L 428.793648 169.612467 
L 430.348507 167.517494 
L 431.903366 163.589061 
L 433.458225 159.396241 
L 435.013084 152.062398 
L 436.567943 143.944019 
L 438.122802 136.871689 
L 439.677661 128.750435 
L 441.23252 123.773078 
L 442.787379 120.106157 
L 444.342237 116.965134 
L 445.897096 115.393186 
L 447.451955 116.177723 
L 449.006814 116.439236 
L 450.561673 116.703622 
L 452.116532 116.439236 
L 453.671391 115.654698 
L 455.22625 115.916211 
L 456.781109 115.393186 
L 458.335968 115.131674 
L 459.890827 113.298213 
L 461.445686 112.510802 
L 463.000545 111.464752 
L 464.555404 111.464752 
L 466.110263 111.464752 
L 467.665121 111.726265 
L 469.21998 111.987777 
L 470.774839 112.510802 
L 472.329698 113.559725 
" style="fill:none;stroke:#2ca02c;stroke-linecap:square;stroke-opacity:0.25;stroke-width:1.5;"/>
   </g>
   <g id="line2d_24">
    <path clip-path="url(#pda291f4eb7)" d="M 318.398664 103.866524 
L 319.953523 104.915447 
L 321.508382 105.699984 
L 323.063241 106.748908 
L 324.6181 107.01042 
L 326.172958 107.271933 
L 327.727817 107.797831 
L 329.282676 106.487395 
L 330.837535 106.225883 
L 332.392394 105.964371 
L 333.947253 105.438472 
L 335.502112 104.915447 
L 337.056971 104.653935 
L 338.61183 104.392422 
L 340.166689 105.699984 
L 341.721548 106.225883 
L 343.276407 106.487395 
L 344.831266 106.748908 
L 346.386125 107.271933 
L 347.940984 107.271933 
L 349.495842 107.533445 
L 351.050701 106.487395 
L 352.60556 106.225883 
L 354.160419 104.915447 
L 355.715278 105.699984 
L 357.270137 104.653935 
L 358.824996 105.438472 
L 360.379855 105.699984 
L 361.934714 105.964371 
L 363.489573 106.225883 
L 365.044432 107.533445 
L 366.599291 107.533445 
L 368.15415 108.059344 
L 369.709009 107.271933 
L 371.263868 104.392422 
L 372.818726 99.93809 
L 374.373585 92.86576 
L 375.928444 83.175432 
L 377.483303 72.697693 
L 379.038162 63.791902 
L 380.593021 56.981085 
L 382.14788 53.837188 
L 383.702739 55.673523 
L 385.257598 58.291521 
L 386.812457 59.340444 
L 388.367316 56.719572 
L 389.922175 50.696166 
L 391.477034 43.362323 
L 393.031893 36.028481 
L 394.586752 34.19502 
L 396.141611 39.169503 
L 397.696469 55.935035 
L 399.251328 80.293048 
L 400.806187 108.843881 
L 402.361046 135.038228 
L 403.915905 153.895859 
L 405.470764 165.161009 
L 407.025623 169.87398 
L 408.580482 170.397005 
L 410.135341 171.184416 
L 411.6902 170.922903 
L 413.245059 171.184416 
L 414.799918 171.70744 
L 416.354777 172.494851 
L 417.909636 173.017876 
L 419.464495 173.017876 
L 421.019353 172.233339 
L 422.574212 171.968953 
L 424.129071 171.445928 
L 425.68393 169.350955 
L 427.238789 166.99447 
L 428.793648 164.373598 
L 430.348507 160.183652 
L 431.903366 155.206295 
L 433.458225 148.133965 
L 435.013084 140.800122 
L 436.567943 132.417356 
L 438.122802 125.345026 
L 439.677661 119.583132 
L 441.23252 115.916211 
L 442.787379 113.298213 
L 444.342237 111.987777 
L 445.897096 113.033827 
L 447.451955 111.464752 
L 449.006814 111.464752 
L 450.561673 110.677341 
L 452.116532 111.464752 
L 453.671391 111.200366 
L 455.22625 110.677341 
L 456.781109 110.677341 
L 458.335968 111.200366 
L 459.890827 109.892804 
L 461.445686 110.154317 
L 463.000545 109.631292 
L 464.555404 109.366906 
L 466.110263 109.366906 
L 467.665121 109.366906 
L 469.21998 109.105393 
L 470.774839 110.415829 
L 472.329698 110.677341 
" style="fill:none;stroke:#2ca02c;stroke-linecap:square;stroke-opacity:0.25;stroke-width:1.5;"/>
   </g>
   <g id="line2d_25">
    <path clip-path="url(#pda291f4eb7)" d="M 318.398664 102.558962 
L 319.953523 103.081987 
L 321.508382 104.392422 
L 323.063241 104.13091 
L 324.6181 104.653935 
L 326.172958 104.653935 
L 327.727817 105.17696 
L 329.282676 104.915447 
L 330.837535 104.915447 
L 332.392394 104.392422 
L 333.947253 104.392422 
L 335.502112 104.653935 
L 337.056971 104.392422 
L 338.61183 103.605011 
L 340.166689 104.13091 
L 341.721548 104.915447 
L 343.276407 104.915447 
L 344.831266 105.438472 
L 346.386125 105.699984 
L 347.940984 105.964371 
L 349.495842 105.699984 
L 351.050701 106.225883 
L 352.60556 106.225883 
L 354.160419 104.653935 
L 355.715278 104.13091 
L 357.270137 104.13091 
L 358.824996 104.392422 
L 360.379855 104.915447 
L 361.934714 105.438472 
L 363.489573 105.438472 
L 365.044432 107.01042 
L 366.599291 108.059344 
L 368.15415 108.059344 
L 369.709009 107.01042 
L 371.263868 104.653935 
L 372.818726 99.415065 
L 374.373585 93.391659 
L 375.928444 84.221482 
L 377.483303 75.84159 
L 379.038162 67.197311 
L 380.593021 62.219954 
L 382.14788 60.386494 
L 383.702739 62.219954 
L 385.257598 65.102338 
L 386.812457 65.363851 
L 388.367316 63.791902 
L 389.922175 57.506983 
L 391.477034 47.290757 
L 393.031893 39.431016 
L 394.586752 36.551506 
L 396.141611 44.408373 
L 397.696469 62.219954 
L 399.251328 86.580841 
L 400.806187 114.344263 
L 402.361046 138.966662 
L 403.915905 156.516731 
L 405.470764 165.161009 
L 407.025623 169.87398 
L 408.580482 171.184416 
L 410.135341 170.661391 
L 411.6902 170.397005 
L 413.245059 170.922903 
L 414.799918 172.233339 
L 416.354777 172.494851 
L 417.909636 172.756364 
L 419.464495 173.279389 
L 421.019353 173.279389 
L 422.574212 173.802414 
L 424.129071 173.017876 
L 425.68393 171.184416 
L 427.238789 168.563544 
L 428.793648 166.207059 
L 430.348507 160.968189 
L 431.903366 154.157372 
L 433.458225 145.777479 
L 435.013084 138.182124 
L 436.567943 130.322383 
L 438.122802 123.250053 
L 439.677661 119.32162 
L 441.23252 116.703622 
L 442.787379 114.344263 
L 444.342237 114.08275 
L 445.897096 113.033827 
L 447.451955 112.24929 
L 449.006814 112.24929 
L 450.561673 110.938854 
L 452.116532 110.677341 
L 453.671391 110.415829 
L 455.22625 109.892804 
L 456.781109 109.631292 
L 458.335968 109.631292 
L 459.890827 110.677341 
L 461.445686 110.415829 
L 463.000545 109.892804 
L 464.555404 110.677341 
L 466.110263 109.631292 
L 467.665121 108.843881 
L 469.21998 108.582368 
L 470.774839 109.366906 
L 472.329698 110.938854 
" style="fill:none;stroke:#2ca02c;stroke-linecap:square;stroke-opacity:0.25;stroke-width:1.5;"/>
   </g>
   <g id="line2d_26">
    <path clip-path="url(#pda291f4eb7)" d="M 318.398664 102.558962 
L 319.953523 103.605011 
L 321.508382 103.866524 
L 323.063241 104.13091 
L 324.6181 104.915447 
L 326.172958 104.653935 
L 327.727817 105.17696 
L 329.282676 105.17696 
L 330.837535 104.915447 
L 332.392394 104.392422 
L 333.947253 104.653935 
L 335.502112 104.392422 
L 337.056971 105.17696 
L 338.61183 105.964371 
L 340.166689 106.225883 
L 341.721548 105.699984 
L 343.276407 105.699984 
L 344.831266 105.438472 
L 346.386125 105.699984 
L 347.940984 105.438472 
L 349.495842 105.438472 
L 351.050701 105.438472 
L 352.60556 104.915447 
L 354.160419 104.392422 
L 355.715278 105.438472 
L 357.270137 105.438472 
L 358.824996 106.225883 
L 360.379855 105.699984 
L 361.934714 106.748908 
L 363.489573 107.271933 
L 365.044432 107.533445 
L 366.599291 107.797831 
L 368.15415 106.748908 
L 369.709009 106.748908 
L 371.263868 105.438472 
L 372.818726 102.297449 
L 374.373585 96.271169 
L 375.928444 89.198839 
L 377.483303 78.7211 
L 379.038162 69.815309 
L 380.593021 62.481467 
L 382.14788 59.076058 
L 383.702739 59.340444 
L 385.257598 61.435417 
L 386.812457 61.173905 
L 388.367316 57.768496 
L 389.922175 50.434653 
L 391.477034 43.100811 
L 393.031893 37.861941 
L 394.586752 37.597555 
L 396.141611 47.552269 
L 397.696469 66.412774 
L 399.251328 92.604248 
L 400.806187 118.537082 
L 402.361046 141.061635 
L 403.915905 153.895859 
L 405.470764 161.494088 
L 407.025623 164.896623 
L 408.580482 165.161009 
L 410.135341 165.161009 
L 411.6902 165.945546 
L 413.245059 166.730083 
L 414.799918 168.302032 
L 416.354777 169.87398 
L 417.909636 169.87398 
L 419.464495 170.135492 
L 421.019353 170.135492 
L 422.574212 169.87398 
L 424.129071 167.779007 
L 425.68393 166.207059 
L 427.238789 163.589061 
L 428.793648 159.92214 
L 430.348507 155.990832 
L 431.903366 150.754836 
L 433.458225 143.41812 
L 435.013084 135.561253 
L 436.567943 129.276334 
L 438.122802 123.773078 
L 439.677661 119.060107 
L 441.23252 115.916211 
L 442.787379 114.344263 
L 444.342237 113.033827 
L 445.897096 112.24929 
L 447.451955 112.24929 
L 449.006814 112.510802 
L 450.561673 111.726265 
L 452.116532 111.464752 
L 453.671391 110.677341 
L 455.22625 110.677341 
L 456.781109 109.892804 
L 458.335968 109.892804 
L 459.890827 110.154317 
L 461.445686 109.631292 
L 463.000545 108.843881 
L 464.555404 109.366906 
L 466.110263 109.631292 
L 467.665121 109.631292 
L 469.21998 110.415829 
L 470.774839 110.938854 
L 472.329698 111.987777 
" style="fill:none;stroke:#2ca02c;stroke-linecap:square;stroke-opacity:0.25;stroke-width:1.5;"/>
   </g>
   <g id="line2d_27">
    <path clip-path="url(#pda291f4eb7)" d="M 318.398664 111.726265 
L 319.953523 111.726265 
L 321.508382 110.677341 
L 323.063241 110.415829 
L 324.6181 109.892804 
L 326.172958 109.105393 
L 327.727817 109.366906 
L 329.282676 108.843881 
L 330.837535 108.843881 
L 332.392394 108.582368 
L 333.947253 108.843881 
L 335.502112 108.843881 
L 337.056971 109.366906 
L 338.61183 109.892804 
L 340.166689 110.154317 
L 341.721548 109.105393 
L 343.276407 109.105393 
L 344.831266 108.320856 
L 346.386125 108.059344 
L 347.940984 108.582368 
L 349.495842 108.059344 
L 351.050701 108.320856 
L 352.60556 108.059344 
L 354.160419 108.843881 
L 355.715278 109.631292 
L 357.270137 109.366906 
L 358.824996 108.843881 
L 360.379855 107.797831 
L 361.934714 107.533445 
L 363.489573 108.582368 
L 365.044432 108.059344 
L 366.599291 108.320856 
L 368.15415 109.366906 
L 369.709009 108.843881 
L 371.263868 107.01042 
L 372.818726 102.558962 
L 374.373585 95.486632 
L 375.928444 87.103866 
L 377.483303 78.7211 
L 379.038162 71.125745 
L 380.593021 67.458824 
L 382.14788 66.935799 
L 383.702739 68.507747 
L 385.257598 67.720336 
L 386.812457 64.57644 
L 388.367316 56.45806 
L 389.922175 45.195784 
L 391.477034 33.930634 
L 393.031893 27.907227 
L 394.586752 29.479175 
L 396.141611 42.3134 
L 397.696469 64.314927 
L 399.251328 91.558198 
L 400.806187 117.488159 
L 402.361046 137.917738 
L 403.915905 151.800886 
L 405.470764 159.134729 
L 407.025623 161.7556 
L 408.580482 164.112086 
L 410.135341 166.468571 
L 411.6902 169.612467 
L 413.245059 172.233339 
L 414.799918 173.540901 
L 416.354777 172.233339 
L 417.909636 171.184416 
L 419.464495 170.661391 
L 421.019353 170.397005 
L 422.574212 170.661391 
L 424.129071 169.612467 
L 425.68393 168.563544 
L 427.238789 167.517494 
L 428.793648 165.945546 
L 430.348507 161.7556 
L 431.903366 155.72932 
L 433.458225 147.349428 
L 435.013084 138.705149 
L 436.567943 131.371307 
L 438.122802 123.773078 
L 439.677661 119.060107 
L 441.23252 114.344263 
L 442.787379 112.510802 
L 444.342237 111.726265 
L 445.897096 112.510802 
L 447.451955 112.510802 
L 449.006814 112.24929 
L 450.561673 111.726265 
L 452.116532 110.938854 
L 453.671391 110.415829 
L 455.22625 110.154317 
L 456.781109 109.631292 
L 458.335968 108.059344 
L 459.890827 107.797831 
L 461.445686 108.582368 
L 463.000545 109.366906 
L 464.555404 109.105393 
L 466.110263 108.320856 
L 467.665121 109.892804 
L 469.21998 110.154317 
L 470.774839 109.366906 
L 472.329698 109.892804 
" style="fill:none;stroke:#2ca02c;stroke-linecap:square;stroke-opacity:0.25;stroke-width:1.5;"/>
   </g>
   <g id="line2d_28">
    <path clip-path="url(#pda291f4eb7)" d="M 318.398664 103.605011 
L 319.953523 103.866524 
L 321.508382 104.13091 
L 323.063241 104.13091 
L 324.6181 104.392422 
L 326.172958 104.392422 
L 327.727817 104.915447 
L 329.282676 102.558962 
L 330.837535 103.343499 
L 332.392394 103.343499 
L 333.947253 104.915447 
L 335.502112 105.17696 
L 337.056971 104.653935 
L 338.61183 104.915447 
L 340.166689 105.438472 
L 341.721548 104.653935 
L 343.276407 104.13091 
L 344.831266 103.866524 
L 346.386125 103.866524 
L 347.940984 103.343499 
L 349.495842 102.820474 
L 351.050701 103.866524 
L 352.60556 103.866524 
L 354.160419 104.392422 
L 355.715278 104.915447 
L 357.270137 104.653935 
L 358.824996 104.915447 
L 360.379855 104.915447 
L 361.934714 104.653935 
L 363.489573 105.17696 
L 365.044432 104.392422 
L 366.599291 104.653935 
L 368.15415 104.653935 
L 369.709009 103.081987 
L 371.263868 100.461115 
L 372.818726 94.699221 
L 374.373585 87.103866 
L 375.928444 78.459587 
L 377.483303 69.292284 
L 379.038162 62.742979 
L 380.593021 58.814545 
L 382.14788 59.601956 
L 383.702739 62.219954 
L 385.257598 64.314927 
L 386.812457 64.053415 
L 388.367316 59.076058 
L 389.922175 51.219191 
L 391.477034 41.002964 
L 393.031893 34.718045 
L 394.586752 35.502582 
L 396.141611 42.574912 
L 397.696469 60.909518 
L 399.251328 87.103866 
L 400.806187 114.605775 
L 402.361046 136.871689 
L 403.915905 152.588297 
L 405.470764 161.229702 
L 407.025623 163.589061 
L 408.580482 164.896623 
L 410.135341 165.684034 
L 411.6902 166.99447 
L 413.245059 168.302032 
L 414.799918 169.87398 
L 416.354777 170.135492 
L 417.909636 171.445928 
L 419.464495 169.612467 
L 421.019353 169.350955 
L 422.574212 168.563544 
L 424.129071 166.207059 
L 425.68393 164.896623 
L 427.238789 162.540137 
L 428.793648 159.657753 
L 430.348507 155.206295 
L 431.903366 147.61094 
L 433.458225 139.228174 
L 435.013084 130.845408 
L 436.567943 124.037464 
L 438.122802 117.488159 
L 439.677661 113.559725 
L 441.23252 111.464752 
L 442.787379 110.415829 
L 444.342237 110.677341 
L 445.897096 111.200366 
L 447.451955 111.200366 
L 449.006814 109.892804 
L 450.561673 109.366906 
L 452.116532 108.582368 
L 453.671391 107.533445 
L 455.22625 107.271933 
L 456.781109 106.748908 
L 458.335968 106.487395 
L 459.890827 106.225883 
L 461.445686 106.748908 
L 463.000545 107.533445 
L 464.555404 108.320856 
L 466.110263 107.797831 
L 467.665121 108.843881 
L 469.21998 108.320856 
L 470.774839 108.582368 
L 472.329698 108.843881 
" style="fill:none;stroke:#2ca02c;stroke-linecap:square;stroke-opacity:0.25;stroke-width:1.5;"/>
   </g>
   <g id="line2d_29">
    <path clip-path="url(#pda291f4eb7)" d="M 318.398664 106.748908 
L 319.953523 108.320856 
L 321.508382 108.320856 
L 323.063241 107.533445 
L 324.6181 107.271933 
L 326.172958 107.797831 
L 327.727817 107.533445 
L 329.282676 107.271933 
L 330.837535 107.271933 
L 332.392394 107.271933 
L 333.947253 107.797831 
L 335.502112 108.059344 
L 337.056971 108.582368 
L 338.61183 109.105393 
L 340.166689 109.366906 
L 341.721548 108.843881 
L 343.276407 108.582368 
L 344.831266 108.582368 
L 346.386125 108.582368 
L 347.940984 106.487395 
L 349.495842 106.748908 
L 351.050701 106.487395 
L 352.60556 106.487395 
L 354.160419 107.01042 
L 355.715278 107.533445 
L 357.270137 109.105393 
L 358.824996 108.843881 
L 360.379855 109.105393 
L 361.934714 108.843881 
L 363.489573 107.271933 
L 365.044432 107.533445 
L 366.599291 108.582368 
L 368.15415 108.320856 
L 369.709009 108.582368 
L 371.263868 108.843881 
L 372.818726 107.271933 
L 374.373585 103.081987 
L 375.928444 96.271169 
L 377.483303 88.414302 
L 379.038162 79.770023 
L 380.593021 72.174668 
L 382.14788 65.886876 
L 383.702739 63.53039 
L 385.257598 63.53039 
L 386.812457 65.625363 
L 388.367316 63.791902 
L 389.922175 58.291521 
L 391.477034 49.908755 
L 393.031893 41.528863 
L 394.586752 37.861941 
L 396.141611 45.195784 
L 397.696469 62.742979 
L 399.251328 90.509275 
L 400.806187 120.370543 
L 402.361046 143.944019 
L 403.915905 159.134729 
L 405.470764 166.730083 
L 407.025623 170.661391 
L 408.580482 171.445928 
L 410.135341 170.135492 
L 411.6902 171.184416 
L 413.245059 171.184416 
L 414.799918 171.968953 
L 416.354777 171.968953 
L 417.909636 171.70744 
L 419.464495 171.445928 
L 421.019353 170.661391 
L 422.574212 170.397005 
L 424.129071 168.563544 
L 425.68393 166.468571 
L 427.238789 163.589061 
L 428.793648 160.183652 
L 430.348507 154.421758 
L 431.903366 147.349428 
L 433.458225 140.53861 
L 435.013084 132.678869 
L 436.567943 125.609413 
L 438.122802 120.106157 
L 439.677661 116.439236 
L 441.23252 114.605775 
L 442.787379 113.821238 
L 444.342237 114.08275 
L 445.897096 114.08275 
L 447.451955 113.821238 
L 449.006814 112.772314 
L 450.561673 112.510802 
L 452.116532 112.24929 
L 453.671391 111.987777 
L 455.22625 110.677341 
L 456.781109 110.938854 
L 458.335968 110.154317 
L 459.890827 109.631292 
L 461.445686 109.366906 
L 463.000545 110.154317 
L 464.555404 109.631292 
L 466.110263 110.938854 
L 467.665121 111.987777 
L 469.21998 112.24929 
L 470.774839 112.24929 
L 472.329698 112.510802 
" style="fill:none;stroke:#2ca02c;stroke-linecap:square;stroke-opacity:0.25;stroke-width:1.5;"/>
   </g>
   <g id="patch_8">
    <path d="M 310.702112 183.5745 
L 310.702112 20.4945 
" style="fill:none;stroke:#000000;stroke-linecap:square;stroke-linejoin:miter;stroke-width:0.8;"/>
   </g>
   <g id="patch_9">
    <path d="M 480.02625 183.5745 
L 480.02625 20.4945 
" style="fill:none;stroke:#000000;stroke-linecap:square;stroke-linejoin:miter;stroke-width:0.8;"/>
   </g>
   <g id="patch_10">
    <path d="M 310.702112 183.5745 
L 480.02625 183.5745 
" style="fill:none;stroke:#000000;stroke-linecap:square;stroke-linejoin:miter;stroke-width:0.8;"/>
   </g>
   <g id="patch_11">
    <path d="M 310.702112 20.4945 
L 480.02625 20.4945 
" style="fill:none;stroke:#000000;stroke-linecap:square;stroke-linejoin:miter;stroke-width:0.8;"/>
   </g>
   <g id="text_20">
    <!-- Motifs -->
    <g transform="translate(380.880181 14.4945)scale(0.096 -0.096)">
     <defs>
      <path d="M 628 4666 
L 1569 4666 
L 2759 1491 
L 3956 4666 
L 4897 4666 
L 4897 0 
L 4281 0 
L 4281 4097 
L 3078 897 
L 2444 897 
L 1241 4097 
L 1241 0 
L 628 0 
L 628 4666 
z
" id="DejaVuSans-4d" transform="scale(0.015625)"/>
      <path d="M 1959 3097 
Q 1497 3097 1228 2736 
Q 959 2375 959 1747 
Q 959 1119 1226 758 
Q 1494 397 1959 397 
Q 2419 397 2687 759 
Q 2956 1122 2956 1747 
Q 2956 2369 2687 2733 
Q 2419 3097 1959 3097 
z
M 1959 3584 
Q 2709 3584 3137 3096 
Q 3566 2609 3566 1747 
Q 3566 888 3137 398 
Q 2709 -91 1959 -91 
Q 1206 -91 779 398 
Q 353 888 353 1747 
Q 353 2609 779 3096 
Q 1206 3584 1959 3584 
z
" id="DejaVuSans-6f" transform="scale(0.015625)"/>
      <path d="M 1172 4494 
L 1172 3500 
L 2356 3500 
L 2356 3053 
L 1172 3053 
L 1172 1153 
Q 1172 725 1289 603 
Q 1406 481 1766 481 
L 2356 481 
L 2356 0 
L 1766 0 
Q 1100 0 847 248 
Q 594 497 594 1153 
L 594 3053 
L 172 3053 
L 172 3500 
L 594 3500 
L 594 4494 
L 1172 4494 
z
" id="DejaVuSans-74" transform="scale(0.015625)"/>
      <path d="M 2375 4863 
L 2375 4384 
L 1825 4384 
Q 1516 4384 1395 4259 
Q 1275 4134 1275 3809 
L 1275 3500 
L 2222 3500 
L 2222 3053 
L 1275 3053 
L 1275 0 
L 697 0 
L 697 3053 
L 147 3053 
L 147 3500 
L 697 3500 
L 697 3744 
Q 697 4328 969 4595 
Q 1241 4863 1831 4863 
L 2375 4863 
z
" id="DejaVuSans-66" transform="scale(0.015625)"/>
      <path d="M 2834 3397 
L 2834 2853 
Q 2591 2978 2328 3040 
Q 2066 3103 1784 3103 
Q 1356 3103 1142 2972 
Q 928 2841 928 2578 
Q 928 2378 1081 2264 
Q 1234 2150 1697 2047 
L 1894 2003 
Q 2506 1872 2764 1633 
Q 3022 1394 3022 966 
Q 3022 478 2636 193 
Q 2250 -91 1575 -91 
Q 1294 -91 989 -36 
Q 684 19 347 128 
L 347 722 
Q 666 556 975 473 
Q 1284 391 1588 391 
Q 1994 391 2212 530 
Q 2431 669 2431 922 
Q 2431 1156 2273 1281 
Q 2116 1406 1581 1522 
L 1381 1569 
Q 847 1681 609 1914 
Q 372 2147 372 2553 
Q 372 3047 722 3315 
Q 1072 3584 1716 3584 
Q 2034 3584 2315 3537 
Q 2597 3491 2834 3397 
z
" id="DejaVuSans-73" transform="scale(0.015625)"/>
     </defs>
     <use xlink:href="#DejaVuSans-4d"/>
     <use x="86.279297" xlink:href="#DejaVuSans-6f"/>
     <use x="147.460938" xlink:href="#DejaVuSans-74"/>
     <use x="186.669922" xlink:href="#DejaVuSans-69"/>
     <use x="214.453125" xlink:href="#DejaVuSans-66"/>
     <use x="249.658203" xlink:href="#DejaVuSans-73"/>
    </g>
   </g>
  </g>
 </g>
 <defs>
  <clipPath id="p8c25a3dbbd">
   <rect height="163.08" width="261.682759" x="33.62625" y="20.4945"/>
  </clipPath>
  <clipPath id="pda291f4eb7">
   <rect height="163.08" width="169.324138" x="310.702112" y="20.4945"/>
  </clipPath>
 </defs>
</svg>
