<?xml version="1.0" encoding="utf-8" standalone="no"?>
<!DOCTYPE svg PUBLIC "-//W3C//DTD SVG 1.1//EN"
  "http://www.w3.org/Graphics/SVG/1.1/DTD/svg11.dtd">
<svg height="205.517pt" version="1.1" viewBox="0 0 492.641718 205.517" width="492.641718pt" xmlns="http://www.w3.org/2000/svg" xmlns:xlink="http://www.w3.org/1999/xlink">
 <metadata>
  <rdf:RDF xmlns:cc="http://creativecommons.org/ns#" xmlns:dc="http://purl.org/dc/elements/1.1/" xmlns:rdf="http://www.w3.org/1999/02/22-rdf-syntax-ns#">
   <cc:Work>
    <dc:type rdf:resource="http://purl.org/dc/dcmitype/StillImage"/>
    <dc:date>2021-06-22T13:45:58.589980</dc:date>
    <dc:format>image/svg+xml</dc:format>
    <dc:creator>
     <cc:Agent>
      <dc:title>Matplotlib v3.4.2, https://matplotlib.org/</dc:title>
     </cc:Agent>
    </dc:creator>
   </cc:Work>
  </rdf:RDF>
 </metadata>
 <defs>
  <style type="text/css">*{stroke-linecap:butt;stroke-linejoin:round;}</style>
 </defs>
 <g id="figure_1">
  <g id="patch_1">
   <path d="M 0 205.517 
L 492.641718 205.517 
L 492.641718 0 
L 0 0 
z
" style="fill:none;"/>
  </g>
  <g id="axes_1">
   <g id="patch_2">
    <path d="M 33.62625 183.5745 
L 110.591767 183.5745 
L 110.591767 20.4945 
L 33.62625 20.4945 
z
" style="fill:#ffffff;"/>
   </g>
   <g id="matplotlib.axis_1">
    <g id="xtick_1">
     <g id="line2d_1">
      <defs>
       <path d="M 0 0 
L 0 3.5 
" id="mc18a8f37a5" style="stroke:#000000;stroke-width:0.8;"/>
      </defs>
      <g>
       <use style="stroke:#000000;stroke-width:0.8;" x="37.124683" xlink:href="#mc18a8f37a5" y="183.5745"/>
      </g>
     </g>
     <g id="text_1">
      <!-- 0 -->
      <g transform="translate(34.579683 196.65325)scale(0.08 -0.08)">
       <defs>
        <path d="M 2034 4250 
Q 1547 4250 1301 3770 
Q 1056 3291 1056 2328 
Q 1056 1369 1301 889 
Q 1547 409 2034 409 
Q 2525 409 2770 889 
Q 3016 1369 3016 2328 
Q 3016 3291 2770 3770 
Q 2525 4250 2034 4250 
z
M 2034 4750 
Q 2819 4750 3233 4129 
Q 3647 3509 3647 2328 
Q 3647 1150 3233 529 
Q 2819 -91 2034 -91 
Q 1250 -91 836 529 
Q 422 1150 422 2328 
Q 422 3509 836 4129 
Q 1250 4750 2034 4750 
z
" id="DejaVuSans-30" transform="scale(0.015625)"/>
       </defs>
       <use xlink:href="#DejaVuSans-30"/>
      </g>
     </g>
    </g>
    <g id="xtick_2">
     <g id="line2d_2">
      <g>
       <use style="stroke:#000000;stroke-width:0.8;" x="84.400799" xlink:href="#mc18a8f37a5" y="183.5745"/>
      </g>
     </g>
     <g id="text_2">
      <!-- 50 -->
      <g transform="translate(79.310799 196.65325)scale(0.08 -0.08)">
       <defs>
        <path d="M 691 4666 
L 3169 4666 
L 3169 4134 
L 1269 4134 
L 1269 2991 
Q 1406 3038 1543 3061 
Q 1681 3084 1819 3084 
Q 2600 3084 3056 2656 
Q 3513 2228 3513 1497 
Q 3513 744 3044 326 
Q 2575 -91 1722 -91 
Q 1428 -91 1123 -41 
Q 819 9 494 109 
L 494 744 
Q 775 591 1075 516 
Q 1375 441 1709 441 
Q 2250 441 2565 725 
Q 2881 1009 2881 1497 
Q 2881 1984 2565 2268 
Q 2250 2553 1709 2553 
Q 1456 2553 1204 2497 
Q 953 2441 691 2322 
L 691 4666 
z
" id="DejaVuSans-35" transform="scale(0.015625)"/>
       </defs>
       <use xlink:href="#DejaVuSans-35"/>
       <use x="63.623047" xlink:href="#DejaVuSans-30"/>
      </g>
     </g>
    </g>
   </g>
   <g id="matplotlib.axis_2">
    <g id="ytick_1">
     <g id="line2d_3">
      <defs>
       <path d="M 0 0 
L -3.5 0 
" id="m5c796685ba" style="stroke:#000000;stroke-width:0.8;"/>
      </defs>
      <g>
       <use style="stroke:#000000;stroke-width:0.8;" x="33.62625" xlink:href="#m5c796685ba" y="168.834283"/>
      </g>
     </g>
     <g id="text_3">
      <!-- −2.0 -->
      <g transform="translate(7.2 171.873658)scale(0.08 -0.08)">
       <defs>
        <path d="M 678 2272 
L 4684 2272 
L 4684 1741 
L 678 1741 
L 678 2272 
z
" id="DejaVuSans-2212" transform="scale(0.015625)"/>
        <path d="M 1228 531 
L 3431 531 
L 3431 0 
L 469 0 
L 469 531 
Q 828 903 1448 1529 
Q 2069 2156 2228 2338 
Q 2531 2678 2651 2914 
Q 2772 3150 2772 3378 
Q 2772 3750 2511 3984 
Q 2250 4219 1831 4219 
Q 1534 4219 1204 4116 
Q 875 4013 500 3803 
L 500 4441 
Q 881 4594 1212 4672 
Q 1544 4750 1819 4750 
Q 2544 4750 2975 4387 
Q 3406 4025 3406 3419 
Q 3406 3131 3298 2873 
Q 3191 2616 2906 2266 
Q 2828 2175 2409 1742 
Q 1991 1309 1228 531 
z
" id="DejaVuSans-32" transform="scale(0.015625)"/>
        <path d="M 684 794 
L 1344 794 
L 1344 0 
L 684 0 
L 684 794 
z
" id="DejaVuSans-2e" transform="scale(0.015625)"/>
       </defs>
       <use xlink:href="#DejaVuSans-2212"/>
       <use x="83.789062" xlink:href="#DejaVuSans-32"/>
       <use x="147.412109" xlink:href="#DejaVuSans-2e"/>
       <use x="179.199219" xlink:href="#DejaVuSans-30"/>
      </g>
     </g>
    </g>
    <g id="ytick_2">
     <g id="line2d_4">
      <g>
       <use style="stroke:#000000;stroke-width:0.8;" x="33.62625" xlink:href="#m5c796685ba" y="140.649117"/>
      </g>
     </g>
     <g id="text_4">
      <!-- −1.5 -->
      <g transform="translate(7.2 143.688492)scale(0.08 -0.08)">
       <defs>
        <path d="M 794 531 
L 1825 531 
L 1825 4091 
L 703 3866 
L 703 4441 
L 1819 4666 
L 2450 4666 
L 2450 531 
L 3481 531 
L 3481 0 
L 794 0 
L 794 531 
z
" id="DejaVuSans-31" transform="scale(0.015625)"/>
       </defs>
       <use xlink:href="#DejaVuSans-2212"/>
       <use x="83.789062" xlink:href="#DejaVuSans-31"/>
       <use x="147.412109" xlink:href="#DejaVuSans-2e"/>
       <use x="179.199219" xlink:href="#DejaVuSans-35"/>
      </g>
     </g>
    </g>
    <g id="ytick_3">
     <g id="line2d_5">
      <g>
       <use style="stroke:#000000;stroke-width:0.8;" x="33.62625" xlink:href="#m5c796685ba" y="112.463951"/>
      </g>
     </g>
     <g id="text_5">
      <!-- −1.0 -->
      <g transform="translate(7.2 115.503326)scale(0.08 -0.08)">
       <use xlink:href="#DejaVuSans-2212"/>
       <use x="83.789062" xlink:href="#DejaVuSans-31"/>
       <use x="147.412109" xlink:href="#DejaVuSans-2e"/>
       <use x="179.199219" xlink:href="#DejaVuSans-30"/>
      </g>
     </g>
    </g>
    <g id="ytick_4">
     <g id="line2d_6">
      <g>
       <use style="stroke:#000000;stroke-width:0.8;" x="33.62625" xlink:href="#m5c796685ba" y="84.278785"/>
      </g>
     </g>
     <g id="text_6">
      <!-- −0.5 -->
      <g transform="translate(7.2 87.31816)scale(0.08 -0.08)">
       <use xlink:href="#DejaVuSans-2212"/>
       <use x="83.789062" xlink:href="#DejaVuSans-30"/>
       <use x="147.412109" xlink:href="#DejaVuSans-2e"/>
       <use x="179.199219" xlink:href="#DejaVuSans-35"/>
      </g>
     </g>
    </g>
    <g id="ytick_5">
     <g id="line2d_7">
      <g>
       <use style="stroke:#000000;stroke-width:0.8;" x="33.62625" xlink:href="#m5c796685ba" y="56.093619"/>
      </g>
     </g>
     <g id="text_7">
      <!-- 0.0 -->
      <g transform="translate(13.90375 59.132994)scale(0.08 -0.08)">
       <use xlink:href="#DejaVuSans-30"/>
       <use x="63.623047" xlink:href="#DejaVuSans-2e"/>
       <use x="95.410156" xlink:href="#DejaVuSans-30"/>
      </g>
     </g>
    </g>
    <g id="ytick_6">
     <g id="line2d_8">
      <g>
       <use style="stroke:#000000;stroke-width:0.8;" x="33.62625" xlink:href="#m5c796685ba" y="27.908453"/>
      </g>
     </g>
     <g id="text_8">
      <!-- 0.5 -->
      <g transform="translate(13.90375 30.947828)scale(0.08 -0.08)">
       <use xlink:href="#DejaVuSans-30"/>
       <use x="63.623047" xlink:href="#DejaVuSans-2e"/>
       <use x="95.410156" xlink:href="#DejaVuSans-35"/>
      </g>
     </g>
    </g>
   </g>
   <g id="line2d_9">
    <path clip-path="url(#p9efc8dd938)" d="M 37.124683 102.880246 
L 38.070205 102.880246 
L 39.015727 102.317446 
L 39.96125 102.036046 
L 40.906772 101.754646 
L 41.852294 101.188754 
L 42.797817 102.036046 
L 43.743339 102.598846 
L 44.688861 104.571739 
L 45.634384 105.134539 
L 46.579906 104.853139 
L 47.525428 99.781753 
L 48.47095 93.297182 
L 49.416473 83.714118 
L 50.361995 73.286854 
L 51.307517 64.54799 
L 52.25304 57.503712 
L 53.198562 55.249419 
L 54.144084 56.375019 
L 55.089607 60.320805 
L 56.035129 62.012297 
L 56.980651 60.320805 
L 57.926174 53.557926 
L 58.871696 43.974862 
L 59.817218 33.544506 
L 60.762741 27.907227 
L 61.708263 28.75452 
L 62.653785 42.564769 
L 63.599308 66.520883 
L 64.54483 97.242968 
L 65.490352 126.839452 
L 66.435875 149.666874 
L 67.381397 164.605816 
L 68.326919 171.934587 
L 69.272442 174.18888 
L 70.217964 174.47028 
L 71.163486 175.317573 
L 72.109009 175.036172 
L 73.054531 175.598973 
L 74.000053 176.161773 
L 74.945576 175.598973 
L 75.891098 175.598973 
L 76.83662 175.880373 
L 77.782143 175.036172 
L 78.727665 174.75168 
L 79.673187 173.34468 
L 80.61871 170.805894 
L 81.564232 167.988801 
L 82.509754 163.761616 
L 83.455277 157.561537 
L 84.400799 148.259873 
L 85.346321 139.52101 
L 86.291843 131.910838 
L 87.237366 125.14796 
L 88.182888 119.510681 
L 89.12841 115.564896 
L 90.073933 114.154803 
L 91.019455 112.46331 
L 91.964977 112.46331 
L 92.9105 111.61911 
L 93.856022 111.61911 
L 94.801544 109.364817 
L 95.747067 107.954725 
L 96.692589 107.391924 
L 97.638111 106.263232 
L 98.583634 105.419032 
L 99.529156 105.700432 
L 100.474678 105.981832 
L 101.420201 106.544632 
L 102.365723 105.981832 
L 103.311245 107.673325 
L 104.256768 107.673325 
L 105.20229 107.673325 
L 106.147812 107.391924 
L 107.093335 107.391924 
" style="fill:none;stroke:#1f77b4;stroke-linecap:square;stroke-width:1.5;"/>
   </g>
   <g id="patch_3">
    <path d="M 33.62625 183.5745 
L 33.62625 20.4945 
" style="fill:none;stroke:#000000;stroke-linecap:square;stroke-linejoin:miter;stroke-width:0.8;"/>
   </g>
   <g id="patch_4">
    <path d="M 110.591767 183.5745 
L 110.591767 20.4945 
" style="fill:none;stroke:#000000;stroke-linecap:square;stroke-linejoin:miter;stroke-width:0.8;"/>
   </g>
   <g id="patch_5">
    <path d="M 33.62625 183.5745 
L 110.591767 183.5745 
" style="fill:none;stroke:#000000;stroke-linecap:square;stroke-linejoin:miter;stroke-width:0.8;"/>
   </g>
   <g id="patch_6">
    <path d="M 33.62625 20.4945 
L 110.591767 20.4945 
" style="fill:none;stroke:#000000;stroke-linecap:square;stroke-linejoin:miter;stroke-width:0.8;"/>
   </g>
   <g id="text_9">
    <!-- Pattern -->
    <g transform="translate(54.841009 14.4945)scale(0.096 -0.096)">
     <defs>
      <path d="M 1259 4147 
L 1259 2394 
L 2053 2394 
Q 2494 2394 2734 2622 
Q 2975 2850 2975 3272 
Q 2975 3691 2734 3919 
Q 2494 4147 2053 4147 
L 1259 4147 
z
M 628 4666 
L 2053 4666 
Q 2838 4666 3239 4311 
Q 3641 3956 3641 3272 
Q 3641 2581 3239 2228 
Q 2838 1875 2053 1875 
L 1259 1875 
L 1259 0 
L 628 0 
L 628 4666 
z
" id="DejaVuSans-50" transform="scale(0.015625)"/>
      <path d="M 2194 1759 
Q 1497 1759 1228 1600 
Q 959 1441 959 1056 
Q 959 750 1161 570 
Q 1363 391 1709 391 
Q 2188 391 2477 730 
Q 2766 1069 2766 1631 
L 2766 1759 
L 2194 1759 
z
M 3341 1997 
L 3341 0 
L 2766 0 
L 2766 531 
Q 2569 213 2275 61 
Q 1981 -91 1556 -91 
Q 1019 -91 701 211 
Q 384 513 384 1019 
Q 384 1609 779 1909 
Q 1175 2209 1959 2209 
L 2766 2209 
L 2766 2266 
Q 2766 2663 2505 2880 
Q 2244 3097 1772 3097 
Q 1472 3097 1187 3025 
Q 903 2953 641 2809 
L 641 3341 
Q 956 3463 1253 3523 
Q 1550 3584 1831 3584 
Q 2591 3584 2966 3190 
Q 3341 2797 3341 1997 
z
" id="DejaVuSans-61" transform="scale(0.015625)"/>
      <path d="M 1172 4494 
L 1172 3500 
L 2356 3500 
L 2356 3053 
L 1172 3053 
L 1172 1153 
Q 1172 725 1289 603 
Q 1406 481 1766 481 
L 2356 481 
L 2356 0 
L 1766 0 
Q 1100 0 847 248 
Q 594 497 594 1153 
L 594 3053 
L 172 3053 
L 172 3500 
L 594 3500 
L 594 4494 
L 1172 4494 
z
" id="DejaVuSans-74" transform="scale(0.015625)"/>
      <path d="M 3597 1894 
L 3597 1613 
L 953 1613 
Q 991 1019 1311 708 
Q 1631 397 2203 397 
Q 2534 397 2845 478 
Q 3156 559 3463 722 
L 3463 178 
Q 3153 47 2828 -22 
Q 2503 -91 2169 -91 
Q 1331 -91 842 396 
Q 353 884 353 1716 
Q 353 2575 817 3079 
Q 1281 3584 2069 3584 
Q 2775 3584 3186 3129 
Q 3597 2675 3597 1894 
z
M 3022 2063 
Q 3016 2534 2758 2815 
Q 2500 3097 2075 3097 
Q 1594 3097 1305 2825 
Q 1016 2553 972 2059 
L 3022 2063 
z
" id="DejaVuSans-65" transform="scale(0.015625)"/>
      <path d="M 2631 2963 
Q 2534 3019 2420 3045 
Q 2306 3072 2169 3072 
Q 1681 3072 1420 2755 
Q 1159 2438 1159 1844 
L 1159 0 
L 581 0 
L 581 3500 
L 1159 3500 
L 1159 2956 
Q 1341 3275 1631 3429 
Q 1922 3584 2338 3584 
Q 2397 3584 2469 3576 
Q 2541 3569 2628 3553 
L 2631 2963 
z
" id="DejaVuSans-72" transform="scale(0.015625)"/>
      <path d="M 3513 2113 
L 3513 0 
L 2938 0 
L 2938 2094 
Q 2938 2591 2744 2837 
Q 2550 3084 2163 3084 
Q 1697 3084 1428 2787 
Q 1159 2491 1159 1978 
L 1159 0 
L 581 0 
L 581 3500 
L 1159 3500 
L 1159 2956 
Q 1366 3272 1645 3428 
Q 1925 3584 2291 3584 
Q 2894 3584 3203 3211 
Q 3513 2838 3513 2113 
z
" id="DejaVuSans-6e" transform="scale(0.015625)"/>
     </defs>
     <use xlink:href="#DejaVuSans-50"/>
     <use x="55.802734" xlink:href="#DejaVuSans-61"/>
     <use x="117.082031" xlink:href="#DejaVuSans-74"/>
     <use x="156.291016" xlink:href="#DejaVuSans-74"/>
     <use x="195.5" xlink:href="#DejaVuSans-65"/>
     <use x="257.023438" xlink:href="#DejaVuSans-72"/>
     <use x="296.386719" xlink:href="#DejaVuSans-6e"/>
    </g>
   </g>
  </g>
  <g id="axes_2">
   <g id="patch_7">
    <path d="M 125.984871 183.5745 
L 480.02625 183.5745 
L 480.02625 20.4945 
L 125.984871 20.4945 
z
" style="fill:#ffffff;"/>
   </g>
   <g id="matplotlib.axis_3">
    <g id="xtick_3">
     <g id="line2d_10">
      <g>
       <use style="stroke:#000000;stroke-width:0.8;" x="142.077661" xlink:href="#mc18a8f37a5" y="183.5745"/>
      </g>
     </g>
     <g id="text_10">
      <!-- 0 -->
      <g transform="translate(139.532661 196.65325)scale(0.08 -0.08)">
       <use xlink:href="#DejaVuSans-30"/>
      </g>
     </g>
    </g>
    <g id="xtick_4">
     <g id="line2d_11">
      <g>
       <use style="stroke:#000000;stroke-width:0.8;" x="183.725668" xlink:href="#mc18a8f37a5" y="183.5745"/>
      </g>
     </g>
     <g id="text_11">
      <!-- 250 -->
      <g transform="translate(176.090668 196.65325)scale(0.08 -0.08)">
       <use xlink:href="#DejaVuSans-32"/>
       <use x="63.623047" xlink:href="#DejaVuSans-35"/>
       <use x="127.246094" xlink:href="#DejaVuSans-30"/>
      </g>
     </g>
    </g>
    <g id="xtick_5">
     <g id="line2d_12">
      <g>
       <use style="stroke:#000000;stroke-width:0.8;" x="225.373675" xlink:href="#mc18a8f37a5" y="183.5745"/>
      </g>
     </g>
     <g id="text_12">
      <!-- 500 -->
      <g transform="translate(217.738675 196.65325)scale(0.08 -0.08)">
       <use xlink:href="#DejaVuSans-35"/>
       <use x="63.623047" xlink:href="#DejaVuSans-30"/>
       <use x="127.246094" xlink:href="#DejaVuSans-30"/>
      </g>
     </g>
    </g>
    <g id="xtick_6">
     <g id="line2d_13">
      <g>
       <use style="stroke:#000000;stroke-width:0.8;" x="267.021682" xlink:href="#mc18a8f37a5" y="183.5745"/>
      </g>
     </g>
     <g id="text_13">
      <!-- 750 -->
      <g transform="translate(259.386682 196.65325)scale(0.08 -0.08)">
       <defs>
        <path d="M 525 4666 
L 3525 4666 
L 3525 4397 
L 1831 0 
L 1172 0 
L 2766 4134 
L 525 4134 
L 525 4666 
z
" id="DejaVuSans-37" transform="scale(0.015625)"/>
       </defs>
       <use xlink:href="#DejaVuSans-37"/>
       <use x="63.623047" xlink:href="#DejaVuSans-35"/>
       <use x="127.246094" xlink:href="#DejaVuSans-30"/>
      </g>
     </g>
    </g>
    <g id="xtick_7">
     <g id="line2d_14">
      <g>
       <use style="stroke:#000000;stroke-width:0.8;" x="308.669689" xlink:href="#mc18a8f37a5" y="183.5745"/>
      </g>
     </g>
     <g id="text_14">
      <!-- 1000 -->
      <g transform="translate(298.489689 196.65325)scale(0.08 -0.08)">
       <use xlink:href="#DejaVuSans-31"/>
       <use x="63.623047" xlink:href="#DejaVuSans-30"/>
       <use x="127.246094" xlink:href="#DejaVuSans-30"/>
       <use x="190.869141" xlink:href="#DejaVuSans-30"/>
      </g>
     </g>
    </g>
    <g id="xtick_8">
     <g id="line2d_15">
      <g>
       <use style="stroke:#000000;stroke-width:0.8;" x="350.317696" xlink:href="#mc18a8f37a5" y="183.5745"/>
      </g>
     </g>
     <g id="text_15">
      <!-- 1250 -->
      <g transform="translate(340.137696 196.65325)scale(0.08 -0.08)">
       <use xlink:href="#DejaVuSans-31"/>
       <use x="63.623047" xlink:href="#DejaVuSans-32"/>
       <use x="127.246094" xlink:href="#DejaVuSans-35"/>
       <use x="190.869141" xlink:href="#DejaVuSans-30"/>
      </g>
     </g>
    </g>
    <g id="xtick_9">
     <g id="line2d_16">
      <g>
       <use style="stroke:#000000;stroke-width:0.8;" x="391.965704" xlink:href="#mc18a8f37a5" y="183.5745"/>
      </g>
     </g>
     <g id="text_16">
      <!-- 1500 -->
      <g transform="translate(381.785704 196.65325)scale(0.08 -0.08)">
       <use xlink:href="#DejaVuSans-31"/>
       <use x="63.623047" xlink:href="#DejaVuSans-35"/>
       <use x="127.246094" xlink:href="#DejaVuSans-30"/>
       <use x="190.869141" xlink:href="#DejaVuSans-30"/>
      </g>
     </g>
    </g>
    <g id="xtick_10">
     <g id="line2d_17">
      <g>
       <use style="stroke:#000000;stroke-width:0.8;" x="433.613711" xlink:href="#mc18a8f37a5" y="183.5745"/>
      </g>
     </g>
     <g id="text_17">
      <!-- 1750 -->
      <g transform="translate(423.433711 196.65325)scale(0.08 -0.08)">
       <use xlink:href="#DejaVuSans-31"/>
       <use x="63.623047" xlink:href="#DejaVuSans-37"/>
       <use x="127.246094" xlink:href="#DejaVuSans-35"/>
       <use x="190.869141" xlink:href="#DejaVuSans-30"/>
      </g>
     </g>
    </g>
    <g id="xtick_11">
     <g id="line2d_18">
      <g>
       <use style="stroke:#000000;stroke-width:0.8;" x="475.261718" xlink:href="#mc18a8f37a5" y="183.5745"/>
      </g>
     </g>
     <g id="text_18">
      <!-- 2000 -->
      <g transform="translate(465.081718 196.65325)scale(0.08 -0.08)">
       <use xlink:href="#DejaVuSans-32"/>
       <use x="63.623047" xlink:href="#DejaVuSans-30"/>
       <use x="127.246094" xlink:href="#DejaVuSans-30"/>
       <use x="190.869141" xlink:href="#DejaVuSans-30"/>
      </g>
     </g>
    </g>
   </g>
   <g id="matplotlib.axis_4"/>
   <g id="line2d_19">
    <path clip-path="url(#p2b68668d97)" d="M 142.077661 101.13767 
L 142.410845 100.690484 
L 142.577437 100.690484 
L 142.744029 101.13767 
L 142.910621 100.690484 
L 143.410397 98.228502 
L 143.576989 98.452095 
L 143.910173 99.796111 
L 144.076765 99.346468 
L 144.409949 99.346468 
L 144.576541 98.675689 
L 144.909725 98.675689 
L 145.076317 99.122875 
L 145.409501 98.228502 
L 145.576093 98.452095 
L 145.742685 97.778859 
L 145.909277 98.002452 
L 146.075869 97.778859 
L 146.242461 99.122875 
L 146.409053 98.899282 
L 146.575645 99.796111 
L 146.742237 99.122875 
L 147.075422 100.466891 
L 147.408606 99.122875 
L 147.575198 98.452095 
L 147.74179 98.675689 
L 147.908382 98.452095 
L 148.074974 98.452095 
L 148.408158 99.346468 
L 148.57475 99.570061 
L 148.741342 99.346468 
L 148.907934 99.346468 
L 149.074526 100.243298 
L 149.241118 100.019705 
L 149.40771 100.019705 
L 149.574302 99.122875 
L 149.740894 99.346468 
L 149.907486 98.452095 
L 150.074078 98.675689 
L 150.573854 99.796111 
L 150.740446 99.796111 
L 150.907038 100.690484 
L 151.07363 100.690484 
L 151.240222 101.13767 
L 151.406814 101.13767 
L 151.739998 99.796111 
L 152.073182 97.108079 
L 152.239774 97.108079 
L 152.406366 98.002452 
L 152.73955 100.466891 
L 153.072735 102.705279 
L 153.239327 102.258093 
L 153.405919 101.363721 
L 153.572511 101.810907 
L 153.905695 100.019705 
L 154.072287 99.796111 
L 154.405471 98.002452 
L 154.572063 98.002452 
L 154.738655 99.570061 
L 154.905247 98.899282 
L 155.238431 100.019705 
L 155.405023 100.243298 
L 155.571615 100.690484 
L 155.738207 100.466891 
L 156.237983 98.228502 
L 156.404575 97.778859 
L 156.571167 98.002452 
L 156.737759 99.570061 
L 156.904351 99.570061 
L 157.070943 100.243298 
L 157.404127 99.570061 
L 157.570719 99.796111 
L 157.737311 99.122875 
L 157.903903 99.122875 
L 158.237087 98.452095 
L 158.403679 98.675689 
L 158.570271 98.675689 
L 159.070048 102.0345 
L 159.736416 99.122875 
L 160.236192 95.764063 
L 160.402784 96.21125 
L 160.569376 95.316877 
L 160.90256 95.316877 
L 161.069152 94.867234 
L 161.235744 95.316877 
L 161.402336 95.316877 
L 162.068704 91.732016 
L 162.235296 91.732016 
L 162.56848 90.61405 
L 162.735072 90.837643 
L 162.901664 90.388 
L 163.234848 91.284829 
L 163.40144 93.076031 
L 163.568032 93.523218 
L 163.901216 93.523218 
L 164.067808 92.405252 
L 164.2344 92.628845 
L 164.400992 92.628845 
L 164.734177 91.732016 
L 164.900769 92.181659 
L 165.233953 93.972861 
L 165.400545 97.331673 
L 165.567137 98.002452 
L 165.733729 99.346468 
L 165.900321 99.122875 
L 166.066913 99.346468 
L 166.233505 99.346468 
L 166.566689 100.914077 
L 166.733281 102.0345 
L 166.899873 102.0345 
L 167.233057 103.378516 
L 167.566241 102.481686 
L 167.899425 103.602109 
L 168.399201 102.258093 
L 168.565793 102.258093 
L 168.732385 102.0345 
L 168.898977 103.378516 
L 169.065569 102.705279 
L 169.232161 103.154923 
L 169.398753 102.93133 
L 169.898529 101.587314 
L 170.065121 101.810907 
L 170.065121 101.810907 
" style="fill:none;stroke:#1f77b4;stroke-linecap:square;stroke-width:1.5;"/>
   </g>
   <g id="line2d_20">
    <path clip-path="url(#p2b68668d97)" d="M 170.231714 103.154923 
L 170.398306 103.825702 
L 170.564898 104.498939 
L 170.73149 103.602109 
L 170.898082 103.154923 
L 171.064674 103.378516 
L 171.231266 103.825702 
L 171.397858 103.825702 
L 171.56445 104.272889 
L 171.731042 104.272889 
L 171.897634 103.378516 
L 172.064226 102.481686 
L 172.230818 99.346468 
L 172.39741 94.420047 
L 172.564002 87.926018 
L 172.730594 80.535158 
L 172.897186 72.920706 
L 173.063778 66.426676 
L 173.23037 63.515051 
L 173.396962 62.841815 
L 173.563554 63.515051 
L 173.730146 62.841815 
L 173.896738 61.274205 
L 174.06333 55.003769 
L 174.229922 48.733332 
L 174.396514 42.686489 
L 174.563106 40.4481 
L 174.729698 43.136132 
L 174.89629 55.003769 
L 175.062882 73.591485 
L 175.229474 97.331673 
L 175.396066 118.383828 
L 175.562658 134.730699 
L 175.72925 144.80959 
L 175.895842 149.065231 
L 176.062435 150.856433 
L 176.229027 153.318415 
L 176.395619 154.438838 
L 176.562211 156.23004 
L 176.728803 158.694479 
L 176.895395 160.709275 
L 177.061987 160.932868 
L 177.228579 161.829697 
L 177.395171 160.709275 
L 177.561763 159.814902 
L 177.728355 158.0237 
L 177.894947 157.350463 
L 178.061539 155.782854 
L 178.228131 153.991652 
L 178.394723 151.976856 
L 178.561315 148.841638 
L 178.727907 143.018388 
L 178.894499 136.074715 
L 179.061091 128.683855 
L 179.227683 123.533842 
L 179.394275 118.607421 
L 179.560867 115.025016 
L 179.727459 113.231357 
L 179.894051 111.663748 
L 180.060643 111.663748 
L 180.227235 111.216562 
L 180.393827 110.992969 
L 180.560419 110.096139 
L 180.727011 109.648953 
L 180.893603 110.319732 
L 181.060195 109.648953 
L 181.226787 108.752123 
L 181.393379 107.634157 
L 181.559971 107.184514 
L 181.726563 106.960921 
L 181.893156 105.393311 
L 182.059748 105.842955 
L 182.22634 106.290141 
L 182.392932 106.290141 
" style="fill:none;stroke:#ff7f0e;stroke-linecap:square;stroke-width:1.5;"/>
   </g>
   <g id="line2d_21">
    <path clip-path="url(#p2b68668d97)" d="M 182.559524 106.960921 
L 182.726116 108.081343 
L 182.892708 108.081343 
L 183.0593 108.752123 
L 183.225892 108.52853 
L 183.392484 108.752123 
L 183.559076 108.752123 
L 183.725668 108.304937 
L 183.89226 108.752123 
L 184.225444 111.216562 
L 184.72522 112.784171 
L 184.891812 114.798966 
L 185.058404 115.025016 
L 185.391588 115.919389 
L 185.55818 116.366575 
L 185.891364 115.919389 
L 186.224548 116.366575 
L 187.057508 120.622216 
L 187.390692 121.295453 
L 187.890469 118.607421 
L 188.556837 122.413419 
L 188.723429 122.189826 
L 188.890021 122.189826 
L 189.056613 121.966232 
L 189.389797 121.069403 
L 189.556389 120.17503 
L 189.722981 119.951437 
L 189.889573 118.607421 
L 190.056165 118.383828 
L 190.222757 117.486998 
L 190.555941 114.35178 
L 190.722533 114.798966 
L 191.055717 113.45495 
L 191.388901 111.216562 
L 191.555493 110.545782 
L 191.722085 109.201766 
L 191.888677 109.201766 
L 192.055269 108.978173 
L 192.221861 108.978173 
L 192.721637 105.842955 
L 193.054821 104.946125 
L 193.221413 105.393311 
L 193.388005 106.513734 
L 193.554598 106.737327 
L 193.72119 106.737327 
L 193.887782 105.616905 
L 194.220966 102.0345 
L 194.387558 101.587314 
L 194.55415 101.810907 
L 194.887334 103.378516 
L 195.053926 103.825702 
L 195.220518 103.825702 
L 196.053478 100.466891 
L 196.886438 103.602109 
L 197.05303 102.258093 
L 197.219622 102.481686 
L 197.386214 102.481686 
L 197.552806 103.602109 
L 197.719398 102.481686 
L 197.88599 102.258093 
L 198.052582 101.363721 
L 198.219174 101.363721 
L 198.552358 104.049295 
L 199.052134 104.722532 
L 199.218726 104.049295 
L 199.385319 104.722532 
L 199.551911 104.722532 
L 200.051687 102.93133 
L 200.218279 103.154923 
L 200.551463 105.616905 
L 200.718055 105.842955 
L 200.884647 105.393311 
L 201.051239 106.290141 
L 201.551015 104.049295 
L 201.884199 104.498939 
L 202.217383 106.513734 
L 202.383975 106.513734 
L 202.550567 106.066548 
L 202.717159 105.169718 
L 202.883751 104.946125 
L 203.050343 105.169718 
L 203.216935 104.272889 
L 203.883303 105.169718 
L 204.049895 104.946125 
L 204.216487 104.946125 
L 204.383079 104.722532 
L 204.549671 106.513734 
L 204.882855 107.184514 
L 205.049447 107.184514 
L 205.715816 106.290141 
L 206.049 103.825702 
L 206.215592 103.378516 
L 206.715368 105.616905 
L 207.048552 108.978173 
L 207.215144 108.752123 
L 207.381736 107.634157 
L 207.881512 101.13767 
L 208.048104 101.13767 
L 208.714472 106.960921 
L 208.881064 106.960921 
L 209.047656 106.737327 
L 209.214248 105.842955 
L 209.38084 106.066548 
L 209.880616 102.0345 
L 210.047208 100.466891 
L 210.2138 100.243298 
L 210.380392 100.466891 
L 210.713576 102.93133 
L 210.880168 103.825702 
L 211.046761 104.049295 
L 211.213353 103.825702 
L 212.046313 95.987657 
L 212.712681 101.587314 
L 213.045865 102.705279 
L 213.212457 102.705279 
L 214.045417 96.21125 
L 214.212009 96.21125 
L 214.545193 100.914077 
L 214.878377 108.304937 
L 215.044969 110.096139 
L 215.211561 109.872546 
L 215.544745 107.85775 
L 215.711337 107.410564 
L 215.877929 108.752123 
L 216.044521 108.752123 
L 216.211113 109.201766 
L 216.544297 112.336984 
L 216.710889 111.887341 
L 216.877482 113.45495 
L 217.044074 113.904594 
L 217.210666 113.904594 
L 217.54385 113.231357 
L 217.710442 113.007764 
L 217.877034 111.887341 
L 218.043626 111.663748 
L 218.37681 111.663748 
L 218.543402 112.113391 
L 218.709994 113.231357 
L 218.876586 113.45495 
L 219.043178 113.904594 
L 219.20977 113.904594 
L 219.542954 116.592626 
L 219.709546 117.263405 
L 219.876138 116.366575 
L 219.876138 116.366575 
" style="fill:none;stroke:#1f77b4;stroke-linecap:square;stroke-width:1.5;"/>
   </g>
   <g id="line2d_22">
    <path clip-path="url(#p2b68668d97)" d="M 220.04273 115.472203 
L 220.209322 115.025016 
L 220.375914 114.575373 
L 220.542506 114.575373 
L 220.709098 115.025016 
L 220.87569 115.695796 
L 221.042282 116.366575 
L 221.208874 115.919389 
L 221.375466 115.695796 
L 221.542058 115.24861 
L 221.70865 114.798966 
L 221.875242 113.231357 
L 222.041834 109.648953 
L 222.208426 104.722532 
L 222.375018 97.555266 
L 222.541611 90.837643 
L 222.708203 84.117563 
L 222.874795 78.967549 
L 223.041387 76.279517 
L 223.207979 76.729161 
L 223.374571 78.743956 
L 223.541163 78.967549 
L 223.707755 76.952754 
L 223.874347 71.353097 
L 224.040939 62.618221 
L 224.207531 55.229819 
L 224.374123 51.644957 
L 224.540715 54.332989 
L 224.707307 65.97949 
L 224.873899 85.685172 
L 225.040491 108.52853 
L 225.207083 130.477515 
L 225.373675 147.497622 
L 225.540267 159.141665 
L 225.706859 165.861745 
L 225.873451 169.44415 
L 226.040043 172.132182 
L 226.206635 173.923384 
L 226.373227 174.820214 
L 226.539819 176.161773 
L 226.706411 175.490993 
L 226.873003 174.820214 
L 227.039595 174.820214 
L 227.206187 175.043807 
L 227.372779 174.146977 
L 227.539371 173.699791 
L 227.705963 172.132182 
L 227.872555 170.564573 
L 228.039147 166.979711 
L 228.205739 163.397306 
L 228.372332 157.797649 
L 228.538924 151.527213 
L 228.705516 146.153606 
L 228.872108 140.106763 
L 229.0387 135.627528 
L 229.205292 131.148294 
L 229.371884 127.342296 
L 229.538476 125.548637 
L 229.705068 122.863062 
L 229.87166 121.069403 
L 230.038252 121.069403 
L 230.204844 119.951437 
L 230.371436 119.2782 
L 230.538028 118.383828 
L 230.70462 118.160235 
L 230.871212 117.710591 
L 231.037804 118.383828 
L 231.204396 118.831014 
L 231.370988 118.383828 
L 231.53758 117.934185 
L 231.704172 117.934185 
L 231.870764 118.160235 
L 232.037356 118.607421 
L 232.203948 119.2782 
" style="fill:none;stroke:#ff7f0e;stroke-linecap:square;stroke-width:1.5;"/>
   </g>
   <g id="line2d_23">
    <path clip-path="url(#p2b68668d97)" d="M 232.37054 119.054607 
L 232.537132 118.607421 
L 232.703724 118.831014 
L 233.036908 119.727844 
L 233.370092 119.2782 
L 233.869868 119.951437 
L 234.03646 119.951437 
L 234.203053 121.295453 
L 234.369645 121.519046 
L 234.536237 122.413419 
L 234.702829 122.413419 
L 235.036013 123.981028 
L 235.202605 123.533842 
L 235.369197 123.981028 
L 235.702381 123.981028 
L 236.368749 126.221874 
L 236.535341 125.325044 
L 236.701933 125.774687 
L 236.868525 125.774687 
L 237.035117 126.445467 
L 237.201709 125.99828 
L 237.368301 126.445467 
L 237.534893 126.221874 
L 238.034669 129.133499 
L 238.201261 128.683855 
L 238.367853 128.683855 
L 238.534445 130.027871 
L 238.701037 129.133499 
L 238.867629 129.804278 
L 239.200813 129.133499 
L 239.367405 129.133499 
L 239.533997 129.357092 
L 240.53355 125.774687 
L 240.700142 125.99828 
L 241.033326 124.430671 
L 241.199918 124.204621 
L 241.36651 123.533842 
L 241.699694 120.17503 
L 242.032878 116.816219 
L 242.366062 115.695796 
L 242.532654 116.142982 
L 242.865838 115.025016 
L 243.03243 114.798966 
L 243.199022 114.128187 
L 243.365614 114.128187 
L 243.532206 114.35178 
L 244.198574 108.304937 
L 244.69835 110.992969 
L 244.864942 112.560578 
L 245.031534 112.784171 
L 245.198126 113.45495 
L 245.53131 109.872546 
L 245.864495 108.081343 
L 246.031087 108.52853 
L 246.364271 110.096139 
L 246.530863 110.096139 
L 246.697455 110.319732 
L 246.864047 109.872546 
L 247.030639 109.872546 
L 247.197231 109.425359 
L 247.363823 109.872546 
L 247.697007 108.978173 
L 247.863599 108.978173 
L 248.030191 108.752123 
L 248.196783 108.978173 
L 248.363375 109.648953 
L 248.529967 109.425359 
L 248.696559 109.872546 
L 248.863151 109.872546 
L 249.029743 110.096139 
L 249.196335 109.648953 
L 249.362927 110.096139 
L 249.529519 110.096139 
L 249.862703 109.648953 
L 250.029295 108.52853 
L 250.362479 108.52853 
L 250.529071 108.304937 
L 250.862255 108.304937 
L 251.028847 108.52853 
L 251.195439 108.304937 
L 251.362031 107.410564 
L 251.528623 107.184514 
L 251.695216 107.184514 
L 251.861808 107.634157 
L 252.361584 106.066548 
L 252.694768 108.304937 
L 253.027952 110.545782 
L 253.194544 110.545782 
L 253.361136 109.872546 
L 253.69432 107.634157 
L 253.860912 107.410564 
L 254.027504 107.85775 
L 254.194096 106.960921 
L 254.52728 106.960921 
L 254.693872 106.066548 
L 255.193648 107.85775 
L 255.36024 107.410564 
L 255.526832 107.410564 
L 256.026608 104.722532 
L 256.1932 104.946125 
L 256.359792 104.946125 
L 256.692976 105.842955 
L 256.859568 105.616905 
L 257.02616 106.066548 
L 257.359344 107.85775 
L 257.525937 106.960921 
L 257.692529 106.737327 
L 258.025713 104.722532 
L 258.192305 104.722532 
L 259.025265 101.587314 
L 259.191857 101.810907 
L 259.358449 101.13767 
L 259.525041 101.587314 
L 259.691633 101.13767 
L 259.858225 101.363721 
L 260.024817 100.243298 
L 260.191409 100.019705 
L 260.524593 97.331673 
L 260.691185 97.778859 
L 260.857777 96.434843 
L 261.024369 96.434843 
L 261.190961 96.21125 
L 261.857329 100.243298 
L 262.023921 100.243298 
L 262.190513 101.13767 
L 262.690289 95.987657 
L 263.023473 93.523218 
L 263.190065 94.196454 
L 264.023026 102.705279 
L 264.189618 103.602109 
L 264.35621 103.378516 
L 264.522802 103.602109 
L 264.689394 103.378516 
L 265.18917 104.498939 
L 265.355762 104.498939 
L 265.688946 105.842955 
L 266.188722 104.272889 
L 266.355314 104.498939 
L 266.688498 106.066548 
L 267.021682 108.081343 
L 267.188274 106.513734 
L 267.354866 106.513734 
L 267.68805 104.498939 
L 267.854642 104.049295 
L 268.021234 103.154923 
L 268.187826 103.825702 
L 268.354418 103.378516 
L 268.52101 104.722532 
L 268.52101 104.722532 
" style="fill:none;stroke:#1f77b4;stroke-linecap:square;stroke-width:1.5;"/>
   </g>
   <g id="line2d_24">
    <path clip-path="url(#p2b68668d97)" d="M 268.687602 104.946125 
L 268.854194 105.616905 
L 269.020786 105.169718 
L 269.187379 103.602109 
L 269.353971 104.272889 
L 269.520563 103.825702 
L 269.687155 105.393311 
L 269.853747 105.393311 
L 270.020339 106.290141 
L 270.186931 106.737327 
L 270.353523 106.513734 
L 270.520115 105.616905 
L 270.686707 102.705279 
L 270.853299 97.331673 
L 271.019891 89.940813 
L 271.186483 81.431988 
L 271.353075 72.920706 
L 271.519667 64.859067 
L 271.686259 60.827019 
L 271.852851 59.483003 
L 272.019443 60.379833 
L 272.186035 61.050612 
L 272.352627 59.932647 
L 272.519219 55.229819 
L 272.685811 50.300941 
L 272.852403 45.598114 
L 273.018995 44.030505 
L 273.185587 48.062553 
L 273.352179 60.379833 
L 273.518771 79.191142 
L 273.685363 100.690484 
L 273.851955 119.727844 
L 274.018547 134.507106 
L 274.185139 143.241981 
L 274.351731 147.721215 
L 274.518323 149.959604 
L 274.684915 151.30362 
L 274.851508 151.30362 
L 275.0181 151.750806 
L 275.184692 151.527213 
L 275.351284 151.750806 
L 275.517876 153.318415 
L 275.684468 153.991652 
L 275.85106 154.888481 
L 276.017652 154.662431 
L 276.184244 153.991652 
L 276.350836 152.200449 
L 276.517428 150.856433 
L 276.68402 149.736011 
L 276.850612 146.824385 
L 277.017204 141.897965 
L 277.183796 135.851122 
L 277.350388 129.580685 
L 277.51698 123.757435 
L 277.683572 118.383828 
L 277.850164 114.35178 
L 278.016756 111.440155 
L 278.183348 108.978173 
L 278.34994 108.752123 
L 278.516532 107.410564 
L 278.683124 107.85775 
L 278.849716 108.304937 
L 279.016308 108.978173 
L 279.1829 110.096139 
L 279.349492 109.425359 
L 279.516084 108.304937 
L 279.682676 106.737327 
L 279.849268 105.842955 
L 280.01586 104.722532 
L 280.182452 105.169718 
L 280.349044 105.393311 
L 280.515636 105.169718 
L 280.682229 106.513734 
L 280.848821 106.737327 
" style="fill:none;stroke:#ff7f0e;stroke-linecap:square;stroke-width:1.5;"/>
   </g>
   <g id="line2d_25">
    <path clip-path="url(#p2b68668d97)" d="M 281.015413 107.184514 
L 281.182005 107.85775 
L 281.681781 106.290141 
L 281.848373 105.842955 
L 282.181557 106.290141 
L 282.847925 109.425359 
L 283.014517 110.545782 
L 283.181109 110.769375 
L 283.347701 110.545782 
L 283.514293 110.992969 
L 283.680885 109.872546 
L 283.847477 109.872546 
L 284.180661 110.992969 
L 284.847029 114.798966 
L 285.180213 117.263405 
L 285.346805 116.366575 
L 285.513397 117.486998 
L 285.846581 116.142982 
L 286.013173 115.919389 
L 286.346357 117.039812 
L 286.679542 118.383828 
L 286.846134 118.383828 
L 287.012726 118.831014 
L 287.179318 119.727844 
L 287.34591 119.951437 
L 287.512502 119.951437 
L 287.845686 117.710591 
L 288.012278 116.142982 
L 288.17887 116.142982 
L 288.345462 115.919389 
L 288.512054 115.24861 
L 288.845238 115.24861 
L 289.511606 111.663748 
L 289.678198 110.096139 
L 289.84479 110.319732 
L 290.011382 108.304937 
L 290.177974 107.85775 
L 290.511158 105.616905 
L 291.010934 104.946125 
L 291.344118 103.154923 
L 291.843894 100.019705 
L 292.177078 99.122875 
L 292.343671 98.899282 
L 292.510263 98.452095 
L 292.843447 100.690484 
L 293.010039 100.466891 
L 293.176631 100.466891 
L 293.509815 98.899282 
L 293.676407 97.778859 
L 293.842999 97.778859 
L 294.342775 96.660893 
L 294.675959 97.331673 
L 294.842551 97.555266 
L 295.009143 98.228502 
L 295.342327 100.466891 
L 296.008695 97.778859 
L 296.341879 95.987657 
L 297.008247 98.002452 
L 297.174839 98.899282 
L 297.341431 98.899282 
L 297.508023 99.796111 
L 297.841207 97.778859 
L 298.007799 97.778859 
L 298.174392 97.108079 
L 298.84076 99.570061 
L 299.173944 100.019705 
L 299.507128 98.002452 
L 299.67372 97.778859 
L 299.840312 97.331673 
L 300.006904 97.555266 
L 300.340088 99.346468 
L 300.673272 99.346468 
L 300.839864 99.570061 
L 301.006456 98.675689 
L 301.173048 98.452095 
L 301.33964 99.122875 
L 301.672824 97.331673 
L 301.839416 97.555266 
L 302.006008 97.555266 
L 302.1726 98.675689 
L 302.339192 97.555266 
L 302.505784 98.228502 
L 302.672376 97.778859 
L 302.838968 98.899282 
L 303.00556 98.899282 
L 303.172152 98.675689 
L 303.338744 99.122875 
L 303.671928 98.228502 
L 303.83852 98.675689 
L 304.171705 97.108079 
L 304.338297 96.884486 
L 304.504889 96.884486 
L 304.671481 97.108079 
L 304.838073 96.884486 
L 305.171257 98.002452 
L 305.337849 96.884486 
L 305.671033 97.555266 
L 306.004217 95.54047 
L 306.170809 95.093284 
L 306.337401 95.093284 
L 306.503993 94.867234 
L 306.670585 95.54047 
L 306.837177 95.093284 
L 307.003769 95.316877 
L 307.336953 93.972861 
L 308.003321 89.046441 
L 308.336505 89.046441 
L 308.669689 89.493627 
L 309.002873 89.046441 
L 309.169465 88.149611 
L 309.336057 87.926018 
L 309.502649 88.149611 
L 309.669241 88.149611 
L 309.835834 88.373204 
L 310.002426 87.926018 
L 310.33561 90.164406 
L 310.502202 89.71722 
L 310.668794 90.388 
L 311.001978 89.270034 
L 311.16857 89.493627 
L 311.501754 87.478831 
L 311.668346 87.252781 
L 311.834938 87.702425 
L 312.168122 91.061236 
L 312.501306 93.749268 
L 312.667898 94.867234 
L 312.83449 94.867234 
L 313.001082 95.093284 
L 313.167674 96.434843 
L 313.334266 96.434843 
L 313.500858 96.660893 
L 313.66745 96.660893 
L 313.834042 97.555266 
L 314.167226 98.002452 
L 314.333818 99.122875 
L 314.667002 97.778859 
L 314.833594 98.228502 
L 315.166778 97.778859 
L 315.33337 97.778859 
L 315.499962 97.555266 
L 315.833147 96.660893 
L 315.999739 96.660893 
L 316.332923 98.675689 
L 316.499515 98.452095 
L 316.666107 98.675689 
L 316.832699 98.228502 
L 316.999291 98.228502 
L 317.165883 97.778859 
L 317.165883 97.778859 
" style="fill:none;stroke:#1f77b4;stroke-linecap:square;stroke-width:1.5;"/>
   </g>
   <g id="line2d_26">
    <path clip-path="url(#p2b68668d97)" d="M 317.332475 97.555266 
L 317.499067 97.331673 
L 317.665659 97.331673 
L 317.832251 97.108079 
L 317.998843 97.778859 
L 318.165435 98.228502 
L 318.332027 98.002452 
L 318.498619 98.899282 
L 318.665211 99.122875 
L 318.831803 99.796111 
L 318.998395 98.899282 
L 319.164987 97.108079 
L 319.331579 94.420047 
L 319.498171 89.046441 
L 319.664763 82.773547 
L 319.831355 74.488315 
L 319.997947 66.650269 
L 320.164539 60.15624 
L 320.331131 57.021021 
L 320.497723 56.347785 
L 320.664315 56.347785 
L 320.830907 57.468208 
L 320.997499 56.571378 
L 321.164091 52.76538 
L 321.330683 46.494944 
L 321.497276 40.4481 
L 321.663868 35.968866 
L 321.83046 38.656898 
L 321.997052 49.630162 
L 322.163644 68.441472 
L 322.330236 91.284829 
L 322.496828 112.560578 
L 322.66342 129.133499 
L 322.830012 138.762747 
L 322.996604 145.033183 
L 323.163196 147.497622 
L 323.329788 148.391995 
L 323.49638 149.065231 
L 323.662972 149.512417 
L 323.829564 148.615588 
L 323.996156 148.391995 
L 324.162748 149.288824 
L 324.32934 148.841638 
L 324.495932 148.615588 
L 324.662524 148.841638 
L 324.829116 149.065231 
L 324.995708 148.168401 
L 325.1623 147.047979 
L 325.328892 144.136353 
L 325.495484 139.433526 
L 325.662076 133.16309 
L 325.828668 125.774687 
L 325.99526 118.160235 
L 326.161852 112.336984 
L 326.328444 108.304937 
L 326.495036 105.169718 
L 326.661628 104.722532 
L 326.82822 104.272889 
L 326.994812 104.049295 
L 327.161405 105.169718 
L 327.327997 104.722532 
L 327.494589 102.258093 
L 327.661181 101.363721 
L 327.827773 101.810907 
L 327.994365 100.243298 
L 328.160957 100.690484 
L 328.327549 100.243298 
L 328.494141 101.13767 
L 328.660733 101.13767 
L 328.827325 101.13767 
L 328.993917 100.914077 
L 329.160509 100.690484 
L 329.327101 101.13767 
L 329.493693 100.690484 
" style="fill:none;stroke:#ff7f0e;stroke-linecap:square;stroke-width:1.5;"/>
   </g>
   <g id="line2d_27">
    <path clip-path="url(#p2b68668d97)" d="M 329.660285 100.466891 
L 329.826877 100.466891 
L 330.160061 101.587314 
L 330.326653 102.705279 
L 330.493245 102.705279 
L 330.659837 104.272889 
L 330.826429 104.498939 
L 330.993021 104.946125 
L 331.326205 107.410564 
L 331.492797 107.410564 
L 331.659389 107.634157 
L 331.992573 106.960921 
L 332.159165 107.184514 
L 333.32531 113.45495 
L 333.491902 113.681 
L 333.991678 112.113391 
L 335.157822 116.592626 
L 335.324414 116.816219 
L 336.157374 113.904594 
L 336.323966 113.45495 
L 336.490558 114.35178 
L 336.990334 112.784171 
L 337.156926 113.007764 
L 337.656702 110.096139 
L 338.156478 105.393311 
L 338.32307 105.169718 
L 338.489662 104.049295 
L 338.656254 104.272889 
L 339.322623 101.13767 
L 339.489215 100.243298 
L 339.655807 98.452095 
L 340.155583 97.108079 
L 340.488767 97.108079 
L 340.821951 98.002452 
L 340.988543 98.002452 
L 341.155135 98.452095 
L 341.654911 97.778859 
L 341.821503 97.778859 
L 342.487871 96.21125 
L 342.654463 97.108079 
L 342.987647 99.796111 
L 343.320831 102.258093 
L 343.487423 102.481686 
L 343.820607 101.810907 
L 343.987199 101.587314 
L 344.153791 102.258093 
L 344.320383 102.258093 
L 344.486975 103.154923 
L 344.653568 102.705279 
L 345.319936 105.393311 
L 345.486528 104.498939 
L 345.65312 105.169718 
L 345.819712 104.722532 
L 345.986304 104.722532 
L 346.152896 104.946125 
L 346.652672 106.737327 
L 346.819264 105.842955 
L 346.985856 106.290141 
L 347.152448 106.290141 
L 347.31904 106.066548 
L 347.485632 106.737327 
L 347.985408 105.616905 
L 348.152 105.842955 
L 348.318592 106.290141 
L 348.485184 105.842955 
L 348.651776 106.290141 
L 348.818368 107.184514 
L 348.98496 107.410564 
L 349.151552 108.52853 
L 349.318144 108.52853 
L 349.484736 106.737327 
L 350.151104 104.946125 
L 350.317696 105.169718 
L 350.484289 105.616905 
L 350.650881 105.393311 
L 350.817473 106.290141 
L 350.984065 106.290141 
L 351.150657 106.737327 
L 351.483841 106.737327 
L 351.983617 104.272889 
L 352.150209 104.722532 
L 352.483393 103.825702 
L 352.649985 105.169718 
L 352.983169 104.498939 
L 353.149761 104.722532 
L 354.482497 97.778859 
L 354.815681 98.899282 
L 354.982273 98.675689 
L 355.148865 98.675689 
L 355.482049 96.660893 
L 355.815233 95.54047 
L 356.648194 100.690484 
L 356.814786 101.13767 
L 356.981378 101.13767 
L 357.14797 100.690484 
L 357.814338 96.660893 
L 357.98093 96.884486 
L 358.480706 101.810907 
L 358.980482 104.722532 
L 359.147074 106.737327 
L 359.313666 107.184514 
L 359.64685 106.737327 
L 359.813442 106.960921 
L 359.980034 106.960921 
L 360.146626 107.184514 
L 360.313218 107.85775 
L 360.47981 107.410564 
L 360.646402 107.634157 
L 360.812994 107.184514 
L 361.146178 108.752123 
L 361.31277 108.081343 
L 361.479362 108.081343 
L 361.812546 107.184514 
L 361.979138 106.066548 
L 362.312323 108.081343 
L 362.478915 108.52853 
L 362.645507 109.425359 
L 363.145283 108.081343 
L 363.145283 108.081343 
" style="fill:none;stroke:#1f77b4;stroke-linecap:square;stroke-width:1.5;"/>
   </g>
   <g id="line2d_28">
    <path clip-path="url(#p2b68668d97)" d="M 363.311875 108.304937 
L 363.478467 108.081343 
L 363.645059 108.52853 
L 363.811651 107.410564 
L 363.978243 106.513734 
L 364.144835 106.737327 
L 364.311427 106.737327 
L 364.478019 108.081343 
L 364.644611 108.978173 
L 364.811203 110.096139 
L 364.977795 110.769375 
L 365.144387 109.425359 
L 365.310979 106.737327 
L 365.477571 100.466891 
L 365.644163 92.405252 
L 365.810755 83.446784 
L 365.977347 75.385145 
L 366.143939 69.114708 
L 366.310531 65.97949 
L 366.477123 65.75344 
L 366.643715 66.873863 
L 366.810307 67.321049 
L 366.976899 65.75344 
L 367.143491 60.827019 
L 367.310083 52.76538 
L 367.476675 43.583319 
L 367.643267 38.880491 
L 367.809859 40.895287 
L 367.976452 52.76538 
L 368.143044 72.920706 
L 368.309636 96.660893 
L 368.476228 119.054607 
L 368.64282 136.524358 
L 368.809412 146.377199 
L 368.976004 151.750806 
L 369.142596 154.438838 
L 369.309188 156.23004 
L 369.47578 157.574056 
L 369.642372 158.247293 
L 369.808964 159.365259 
L 369.975556 160.485681 
L 370.142148 161.382511 
L 370.30874 162.053291 
L 370.475332 162.726527 
L 370.641924 162.276884 
L 370.808516 162.276884 
L 370.975108 161.606104 
L 371.1417 160.485681 
L 371.308292 157.797649 
L 371.474884 153.768059 
L 371.641476 149.512417 
L 371.808068 142.794795 
L 371.97466 136.747951 
L 372.141252 129.580685 
L 372.307844 124.204621 
L 372.474436 119.501794 
L 372.641028 116.592626 
L 372.80762 114.798966 
L 372.974212 114.35178 
L 373.140804 113.904594 
L 373.307396 113.007764 
L 373.473988 112.784171 
L 373.64058 110.992969 
L 373.807173 110.545782 
L 373.973765 109.648953 
L 374.140357 109.648953 
L 374.306949 109.872546 
L 374.473541 109.872546 
L 374.640133 111.216562 
L 374.806725 110.992969 
L 374.973317 110.992969 
L 375.139909 110.319732 
L 375.306501 110.545782 
L 375.473093 109.872546 
" style="fill:none;stroke:#ff7f0e;stroke-linecap:square;stroke-width:1.5;"/>
   </g>
   <g id="line2d_29">
    <path clip-path="url(#p2b68668d97)" d="M 375.639685 109.648953 
L 375.806277 109.201766 
L 375.972869 109.648953 
L 376.139461 109.648953 
L 376.805829 112.560578 
L 377.139013 114.35178 
L 377.305605 114.35178 
L 377.472197 114.128187 
L 377.805381 113.007764 
L 377.971973 113.231357 
L 378.638341 116.366575 
L 378.804933 117.710591 
L 378.971525 117.934185 
L 379.138117 117.934185 
L 379.471302 118.831014 
L 379.637894 118.160235 
L 379.804486 118.383828 
L 379.971078 118.383828 
L 380.13767 118.607421 
L 380.97063 124.204621 
L 381.137222 123.310248 
L 381.303814 123.981028 
L 381.636998 122.413419 
L 381.80359 122.637012 
L 381.970182 121.966232 
L 382.303366 121.966232 
L 382.469958 122.863062 
L 382.63655 122.413419 
L 382.803142 122.413419 
L 383.136326 121.519046 
L 383.969286 117.486998 
L 384.135878 117.039812 
L 384.635654 114.798966 
L 384.802246 114.798966 
L 385.302023 111.887341 
L 385.801799 108.081343 
L 386.134983 107.410564 
L 386.468167 106.960921 
L 386.634759 107.184514 
L 386.801351 107.634157 
L 386.967943 107.634157 
L 387.467719 105.842955 
L 387.634311 103.825702 
L 387.800903 103.825702 
L 388.134087 102.258093 
L 388.467271 102.258093 
L 388.633863 103.602109 
L 388.800455 103.378516 
L 388.967047 104.498939 
L 389.133639 104.498939 
L 389.300231 105.393311 
L 389.633415 104.272889 
L 389.966599 101.13767 
L 390.133191 100.690484 
L 390.466375 101.13767 
L 390.966151 103.825702 
L 391.132744 104.272889 
L 391.299336 104.049295 
L 391.965704 102.258093 
L 392.298888 102.705279 
L 392.965256 104.272889 
L 393.131848 105.393311 
L 393.29844 104.722532 
L 393.465032 104.722532 
L 393.631624 103.378516 
L 393.798216 103.825702 
L 394.1314 103.378516 
L 394.297992 104.049295 
L 394.464584 104.049295 
L 395.130952 106.066548 
L 395.464136 104.498939 
L 395.630728 104.049295 
L 395.963912 102.705279 
L 396.130504 102.93133 
L 396.297096 102.93133 
L 396.463688 103.378516 
L 396.796872 105.169718 
L 397.130057 105.169718 
L 397.296649 104.946125 
L 397.463241 104.498939 
L 397.629833 104.498939 
L 397.796425 103.154923 
L 397.963017 102.93133 
L 398.129609 102.93133 
L 398.296201 102.705279 
L 398.462793 102.705279 
L 398.962569 105.393311 
L 399.129161 105.842955 
L 399.462345 104.272889 
L 399.628937 104.049295 
L 399.795529 103.602109 
L 400.295305 101.363721 
L 400.461897 101.363721 
L 400.628489 101.587314 
L 400.795081 101.363721 
L 400.961673 102.0345 
L 401.294857 100.466891 
L 401.461449 98.452095 
L 401.628041 98.452095 
L 401.961225 96.21125 
L 402.127817 96.434843 
L 402.294409 95.316877 
L 402.627593 95.764063 
L 402.960778 93.749268 
L 403.12737 93.972861 
L 403.627146 91.061236 
L 403.793738 91.061236 
L 403.96033 90.837643 
L 404.293514 92.852438 
L 404.959882 98.228502 
L 405.126474 97.778859 
L 405.293066 97.778859 
L 405.459658 95.987657 
L 405.62625 95.54047 
L 405.959434 92.405252 
L 406.126026 92.852438 
L 406.292618 92.405252 
L 407.125578 99.796111 
L 407.29217 100.466891 
L 407.458762 100.466891 
L 407.958538 102.0345 
L 408.12513 102.481686 
L 408.291722 102.481686 
L 408.458314 102.705279 
L 408.624907 103.154923 
L 408.791499 103.154923 
L 408.958091 103.602109 
L 409.124683 103.602109 
L 409.457867 102.481686 
L 409.624459 102.481686 
L 409.791051 103.154923 
L 409.957643 102.93133 
L 410.290827 103.825702 
L 410.457419 103.154923 
L 410.624011 103.154923 
L 410.790603 103.602109 
L 410.957195 103.378516 
L 411.123787 103.825702 
L 411.290379 103.825702 
L 411.290379 103.825702 
" style="fill:none;stroke:#1f77b4;stroke-linecap:square;stroke-width:1.5;"/>
   </g>
   <g id="line2d_30">
    <path clip-path="url(#p2b68668d97)" d="M 411.456971 103.602109 
L 411.623563 103.378516 
L 411.790155 102.258093 
L 411.956747 101.363721 
L 412.123339 100.914077 
L 412.289931 101.363721 
L 412.456523 101.810907 
L 412.623115 102.481686 
L 412.789707 103.602109 
L 412.956299 104.498939 
L 413.122891 104.722532 
L 413.289483 102.0345 
L 413.456075 97.778859 
L 413.622667 90.837643 
L 413.789259 82.549954 
L 413.955851 73.817536 
L 414.122443 65.75344 
L 414.289035 59.483003 
L 414.455628 57.468208 
L 414.62222 57.244615 
L 414.788812 59.25941 
L 414.955404 59.706596 
L 415.121996 57.691801 
L 415.288588 52.092144 
L 415.45518 44.703741 
L 415.621772 37.089289 
L 415.788364 33.72802 
L 415.954956 37.760068 
L 416.121548 52.76538 
L 416.28814 75.832331 
L 416.454732 101.587314 
L 416.621324 124.654264 
L 416.787916 141.227185 
L 416.954508 151.976856 
L 417.1211 156.903277 
L 417.287692 157.12687 
L 417.454284 156.903277 
L 417.620876 156.903277 
L 417.787468 157.797649 
L 417.95406 158.0237 
L 418.120652 158.694479 
L 418.287244 159.141665 
L 418.453836 159.365259 
L 418.620428 159.591309 
L 418.78702 159.814902 
L 418.953612 159.814902 
L 419.120204 158.694479 
L 419.286796 157.797649 
L 419.453388 154.215245 
L 419.61998 150.856433 
L 419.786572 146.153606 
L 419.953164 139.433526 
L 420.119756 132.49231 
L 420.286349 125.548637 
L 420.452941 119.727844 
L 420.619533 115.025016 
L 420.786125 112.113391 
L 420.952717 110.319732 
L 421.119309 109.201766 
L 421.285901 108.52853 
L 421.452493 107.410564 
L 421.619085 106.513734 
L 421.785677 106.290141 
L 421.952269 105.393311 
L 422.118861 103.825702 
L 422.285453 103.825702 
L 422.452045 103.378516 
L 422.618637 103.378516 
L 422.785229 104.272889 
L 422.951821 104.722532 
L 423.118413 104.272889 
L 423.285005 104.049295 
L 423.451597 103.154923 
L 423.618189 103.378516 
" style="fill:none;stroke:#ff7f0e;stroke-linecap:square;stroke-width:1.5;"/>
   </g>
   <g id="line2d_31">
    <path clip-path="url(#p2b68668d97)" d="M 423.784781 103.154923 
L 423.951373 103.378516 
L 424.284557 104.498939 
L 424.451149 104.272889 
L 424.784333 104.946125 
L 424.950925 107.184514 
L 425.117517 106.513734 
L 425.284109 108.081343 
L 425.617293 108.52853 
L 425.783885 107.634157 
L 425.950477 107.634157 
L 426.11707 107.184514 
L 426.283662 107.410564 
L 426.616846 109.201766 
L 427.449806 113.231357 
L 427.616398 113.007764 
L 427.78299 113.007764 
L 427.949582 113.45495 
L 428.116174 113.007764 
L 428.449358 113.681 
L 428.782542 114.128187 
L 429.115726 115.919389 
L 429.282318 115.919389 
L 429.44891 115.695796 
L 429.615502 116.142982 
L 429.782094 115.919389 
L 429.948686 114.798966 
L 430.115278 114.798966 
L 430.448462 114.35178 
L 430.615054 114.35178 
L 430.781646 115.025016 
L 430.948238 115.025016 
L 431.11483 115.24861 
L 432.114383 109.425359 
L 432.780751 104.946125 
L 432.947343 104.498939 
L 433.447119 101.587314 
L 433.613711 101.363721 
L 434.113487 98.675689 
L 434.280079 99.122875 
L 434.446671 98.002452 
L 434.613263 98.228502 
L 434.779855 98.228502 
L 435.113039 97.778859 
L 435.279631 98.899282 
L 435.612815 97.108079 
L 435.945999 96.434843 
L 436.279183 97.778859 
L 436.445775 97.331673 
L 436.778959 98.675689 
L 437.112143 99.122875 
L 437.278735 98.675689 
L 437.778512 95.54047 
L 437.945104 95.54047 
L 438.111696 96.434843 
L 438.278288 96.660893 
L 438.44488 96.434843 
L 438.611472 96.434843 
L 438.778064 97.108079 
L 438.944656 96.660893 
L 439.111248 97.108079 
L 439.27784 95.987657 
L 439.444432 96.21125 
L 440.1108 93.076031 
L 440.277392 93.299625 
L 440.443984 92.852438 
L 440.777168 94.867234 
L 441.110352 94.867234 
L 441.276944 95.54047 
L 441.443536 94.867234 
L 441.610128 94.867234 
L 441.77672 94.196454 
L 441.943312 94.196454 
L 442.276496 95.54047 
L 442.443088 96.21125 
L 442.60968 96.21125 
L 442.776272 95.987657 
L 443.276048 95.987657 
L 444.442193 98.899282 
L 444.775377 97.331673 
L 444.941969 97.108079 
L 445.441745 99.122875 
L 445.774929 98.002452 
L 446.108113 98.899282 
L 446.274705 97.555266 
L 446.607889 98.002452 
L 446.774481 98.452095 
L 446.941073 97.108079 
L 447.274257 98.899282 
L 447.774033 97.108079 
L 447.940625 97.331673 
L 448.107217 97.331673 
L 448.273809 97.108079 
L 448.606993 97.778859 
L 448.773585 97.778859 
L 448.940177 97.555266 
L 449.273362 97.555266 
L 449.439954 97.331673 
L 449.606546 97.555266 
L 449.93973 95.764063 
L 450.272914 95.316877 
L 450.606098 96.21125 
L 450.77269 95.987657 
L 451.272466 97.108079 
L 451.439058 96.884486 
L 451.60565 95.987657 
L 451.60565 95.987657 
" style="fill:none;stroke:#1f77b4;stroke-linecap:square;stroke-width:1.5;"/>
   </g>
   <g id="line2d_32">
    <path clip-path="url(#p2b68668d97)" d="M 451.772242 95.316877 
L 451.938834 95.316877 
L 452.105426 94.420047 
L 452.272018 94.196454 
L 452.43861 94.420047 
L 452.605202 94.867234 
L 452.771794 95.093284 
L 452.938386 95.987657 
L 453.104978 97.108079 
L 453.27157 97.331673 
L 453.438162 97.331673 
L 453.604754 94.867234 
L 453.771346 90.388 
L 453.937938 83.89397 
L 454.10453 75.832331 
L 454.271122 67.321049 
L 454.437714 59.483003 
L 454.604306 53.885803 
L 454.770898 51.197771 
L 454.93749 50.974178 
L 455.104083 51.197771 
L 455.270675 50.300941 
L 455.437267 46.94213 
L 455.603859 40.000914 
L 455.770451 33.057241 
L 455.937043 28.13082 
L 456.103635 27.907227 
L 456.270227 34.62485 
L 456.436819 49.406569 
L 456.603411 71.353097 
L 456.770003 93.972861 
L 456.936595 113.681 
L 457.103187 128.460262 
L 457.269779 136.074715 
L 457.436371 140.106763 
L 457.602963 141.450779 
L 457.769555 143.018388 
L 457.936147 144.362404 
L 458.102739 145.930013 
L 458.269331 147.721215 
L 458.435923 148.615588 
L 458.602515 149.065231 
L 458.769107 149.288824 
L 458.935699 149.065231 
L 459.102291 149.288824 
L 459.268883 148.615588 
L 459.435475 147.274029 
L 459.602067 145.70642 
L 459.768659 144.585997 
L 459.935251 142.345151 
L 460.101843 140.106763 
L 460.268435 135.403935 
L 460.435027 129.357092 
L 460.601619 122.863062 
L 460.768211 116.816219 
L 460.934804 111.216562 
L 461.101396 106.960921 
L 461.267988 103.154923 
L 461.43458 101.587314 
L 461.601172 100.243298 
L 461.767764 99.570061 
L 461.934356 99.796111 
L 462.100948 99.796111 
L 462.26754 100.019705 
L 462.434132 99.346468 
L 462.600724 98.675689 
L 462.767316 98.452095 
L 462.933908 98.002452 
L 463.1005 97.778859 
L 463.267092 97.778859 
L 463.433684 97.108079 
L 463.600276 97.331673 
L 463.766868 95.987657 
L 463.93346 97.108079 
" style="fill:none;stroke:#ff7f0e;stroke-linecap:square;stroke-width:1.5;"/>
   </g>
   <g id="patch_8">
    <path d="M 125.984871 183.5745 
L 125.984871 20.4945 
" style="fill:none;stroke:#000000;stroke-linecap:square;stroke-linejoin:miter;stroke-width:0.8;"/>
   </g>
   <g id="patch_9">
    <path d="M 480.02625 183.5745 
L 480.02625 20.4945 
" style="fill:none;stroke:#000000;stroke-linecap:square;stroke-linejoin:miter;stroke-width:0.8;"/>
   </g>
   <g id="patch_10">
    <path d="M 125.984871 183.5745 
L 480.02625 183.5745 
" style="fill:none;stroke:#000000;stroke-linecap:square;stroke-linejoin:miter;stroke-width:0.8;"/>
   </g>
   <g id="patch_11">
    <path d="M 125.984871 20.4945 
L 480.02625 20.4945 
" style="fill:none;stroke:#000000;stroke-linecap:square;stroke-linejoin:miter;stroke-width:0.8;"/>
   </g>
   <g id="text_19">
    <!-- Similar Patterns -->
    <g transform="translate(265.07356 14.4945)scale(0.096 -0.096)">
     <defs>
      <path d="M 3425 4513 
L 3425 3897 
Q 3066 4069 2747 4153 
Q 2428 4238 2131 4238 
Q 1616 4238 1336 4038 
Q 1056 3838 1056 3469 
Q 1056 3159 1242 3001 
Q 1428 2844 1947 2747 
L 2328 2669 
Q 3034 2534 3370 2195 
Q 3706 1856 3706 1288 
Q 3706 609 3251 259 
Q 2797 -91 1919 -91 
Q 1588 -91 1214 -16 
Q 841 59 441 206 
L 441 856 
Q 825 641 1194 531 
Q 1563 422 1919 422 
Q 2459 422 2753 634 
Q 3047 847 3047 1241 
Q 3047 1584 2836 1778 
Q 2625 1972 2144 2069 
L 1759 2144 
Q 1053 2284 737 2584 
Q 422 2884 422 3419 
Q 422 4038 858 4394 
Q 1294 4750 2059 4750 
Q 2388 4750 2728 4690 
Q 3069 4631 3425 4513 
z
" id="DejaVuSans-53" transform="scale(0.015625)"/>
      <path d="M 603 3500 
L 1178 3500 
L 1178 0 
L 603 0 
L 603 3500 
z
M 603 4863 
L 1178 4863 
L 1178 4134 
L 603 4134 
L 603 4863 
z
" id="DejaVuSans-69" transform="scale(0.015625)"/>
      <path d="M 3328 2828 
Q 3544 3216 3844 3400 
Q 4144 3584 4550 3584 
Q 5097 3584 5394 3201 
Q 5691 2819 5691 2113 
L 5691 0 
L 5113 0 
L 5113 2094 
Q 5113 2597 4934 2840 
Q 4756 3084 4391 3084 
Q 3944 3084 3684 2787 
Q 3425 2491 3425 1978 
L 3425 0 
L 2847 0 
L 2847 2094 
Q 2847 2600 2669 2842 
Q 2491 3084 2119 3084 
Q 1678 3084 1418 2786 
Q 1159 2488 1159 1978 
L 1159 0 
L 581 0 
L 581 3500 
L 1159 3500 
L 1159 2956 
Q 1356 3278 1631 3431 
Q 1906 3584 2284 3584 
Q 2666 3584 2933 3390 
Q 3200 3197 3328 2828 
z
" id="DejaVuSans-6d" transform="scale(0.015625)"/>
      <path d="M 603 4863 
L 1178 4863 
L 1178 0 
L 603 0 
L 603 4863 
z
" id="DejaVuSans-6c" transform="scale(0.015625)"/>
      <path id="DejaVuSans-20" transform="scale(0.015625)"/>
      <path d="M 2834 3397 
L 2834 2853 
Q 2591 2978 2328 3040 
Q 2066 3103 1784 3103 
Q 1356 3103 1142 2972 
Q 928 2841 928 2578 
Q 928 2378 1081 2264 
Q 1234 2150 1697 2047 
L 1894 2003 
Q 2506 1872 2764 1633 
Q 3022 1394 3022 966 
Q 3022 478 2636 193 
Q 2250 -91 1575 -91 
Q 1294 -91 989 -36 
Q 684 19 347 128 
L 347 722 
Q 666 556 975 473 
Q 1284 391 1588 391 
Q 1994 391 2212 530 
Q 2431 669 2431 922 
Q 2431 1156 2273 1281 
Q 2116 1406 1581 1522 
L 1381 1569 
Q 847 1681 609 1914 
Q 372 2147 372 2553 
Q 372 3047 722 3315 
Q 1072 3584 1716 3584 
Q 2034 3584 2315 3537 
Q 2597 3491 2834 3397 
z
" id="DejaVuSans-73" transform="scale(0.015625)"/>
     </defs>
     <use xlink:href="#DejaVuSans-53"/>
     <use x="63.476562" xlink:href="#DejaVuSans-69"/>
     <use x="91.259766" xlink:href="#DejaVuSans-6d"/>
     <use x="188.671875" xlink:href="#DejaVuSans-69"/>
     <use x="216.455078" xlink:href="#DejaVuSans-6c"/>
     <use x="244.238281" xlink:href="#DejaVuSans-61"/>
     <use x="305.517578" xlink:href="#DejaVuSans-72"/>
     <use x="346.630859" xlink:href="#DejaVuSans-20"/>
     <use x="378.417969" xlink:href="#DejaVuSans-50"/>
     <use x="434.220703" xlink:href="#DejaVuSans-61"/>
     <use x="495.5" xlink:href="#DejaVuSans-74"/>
     <use x="534.708984" xlink:href="#DejaVuSans-74"/>
     <use x="573.917969" xlink:href="#DejaVuSans-65"/>
     <use x="635.441406" xlink:href="#DejaVuSans-72"/>
     <use x="674.804688" xlink:href="#DejaVuSans-6e"/>
     <use x="738.183594" xlink:href="#DejaVuSans-73"/>
    </g>
   </g>
  </g>
 </g>
 <defs>
  <clipPath id="p9efc8dd938">
   <rect height="163.08" width="76.965517" x="33.62625" y="20.4945"/>
  </clipPath>
  <clipPath id="p2b68668d97">
   <rect height="163.08" width="354.041379" x="125.984871" y="20.4945"/>
  </clipPath>
 </defs>
</svg>
